<svg width="100%" height="100%" viewBox="0 0 75 75" fill="none" xmlns="http://www.w3.org/2000/svg">
<path d="M0.719238 74.3458H74.4587V0.602051H0.719238V74.3458Z" fill="#2EB0D2A6" stroke-width="4" stroke="#2EB0D2"/>
<path d="M10.7135 15.5969C10.7578 14.7635 11.108 14.2361 11.8971 14.2361C12.7516 14.2361 13.0807 14.7635 13.0807 15.7277V18.3165C13.0807 19.2575 12.7305 19.8061 11.876 19.8061C11.0426 19.8061 10.7135 19.2364 10.7135 18.3165V15.5969ZM11.876 21.8463C14.5281 21.8463 15.5598 20.399 15.5598 18.095V15.9029C15.5598 13.4681 14.5956 12.2423 12.7959 12.2423C11.7431 12.2423 11.108 12.7233 10.7346 13.447H10.7135V10.2463C10.7135 9.34543 10.9983 8.71036 11.8971 8.71036C12.7959 8.71036 13.0596 9.23782 13.0596 10.1577V11.1451H15.3404V10.3539C15.3404 8.15969 14.6167 6.62793 11.8528 6.62793C9.22179 6.62793 8.23438 8.31582 8.23438 10.6409V17.8777C8.23438 20.1795 9.24289 21.8463 11.876 21.8463Z" fill="white"/>
<path d="M49.3174 36.1403C48.5916 35.8196 47.6717 35.9356 46.7898 36.2922C43.471 37.6383 41.2113 38.1235 37.7195 37.0285C35.5211 36.3407 33.4639 34.8997 31.0334 35.7774C29.4193 36.3576 27.915 36.9125 26.09 36.8977L25.0372 31.4944H50.0749L49.3174 36.1403ZM40.8295 52.1836C40.8295 52.1836 39.6142 53.4326 37.6372 53.2976C35.6561 53.4326 34.4429 52.1836 34.4429 52.1836C32.4386 50.1814 33.1538 47.6896 33.85 46.4026C34.2805 45.5966 37.3609 40.9718 37.6267 40.5794V40.5477C37.6267 40.5477 37.6309 40.5541 37.6372 40.5625L37.6478 40.5477V40.5794C37.9073 40.9718 40.9898 45.5966 41.4223 46.4026C42.1207 47.6896 42.8317 50.1814 40.8295 52.1836ZM51.1699 30.4204C51.1066 30.3529 51.0222 30.3149 50.9272 30.3149H24.1742C24.0814 30.3149 23.997 30.3529 23.9337 30.4204C23.8746 30.4964 23.8535 30.5871 23.8683 30.6736L28.3623 57.857C28.3876 58.0089 28.5184 58.1186 28.6703 58.1186H34.1876L34.5653 62.5472L32.2423 62.5493L37.6436 67.9506L43.0596 62.5367L40.7387 62.5409L41.1143 58.1186H46.7286C46.8826 58.1186 47.0113 58.0089 47.0345 57.8528L51.2416 30.6736C51.2543 30.5808 51.2268 30.4922 51.1699 30.4204Z" fill="white"/>
<path d="M21.8599 15.6138H24.2778V16.4408H22.8726V18.1667H23.8769V18.9832H22.8726V20.8146H24.2778V21.6416H21.8599" fill="white"/>
<path d="M25.6892 20.344V19.536H26.6323V20.3609C26.6323 20.6985 26.7842 20.8947 27.1302 20.8947C27.4509 20.8947 27.5923 20.6816 27.5923 20.3609V20.1309C27.5923 19.7849 27.4509 19.5697 27.1408 19.2764L26.5437 18.6815C25.9656 18.1118 25.6998 17.7658 25.6998 17.0716V16.867C25.6998 16.1201 26.1344 15.542 27.1218 15.542C28.1345 15.542 28.5354 16.0399 28.5354 16.9113V17.4008H27.6113V16.8754C27.6113 16.5294 27.4509 16.3606 27.1302 16.3606C26.8475 16.3606 26.6513 16.521 26.6513 16.8585V16.983C26.6513 17.3206 26.837 17.5168 27.1302 17.8016L27.7801 18.4409C28.3308 19.0022 28.5966 19.3397 28.5966 20.0065V20.2997C28.5966 21.1268 28.1535 21.7133 27.1218 21.7133C26.0901 21.7133 25.6892 21.1352 25.6892 20.344Z" fill="white"/>
<path d="M30.2339 19.7301H31.042L30.6411 17.3122H30.6327L30.2339 19.7301ZM28.9617 21.6416L30.0989 15.6138H31.2572L32.4028 21.6416H31.3627L31.1749 20.5403H30.0989L29.9217 21.6416" fill="white"/>
<path d="M33.6729 17.8544V21.6416H32.8206V15.6138H33.8164L34.9093 19.0718V15.6138H35.7533V21.6416H34.865" fill="white"/>
<path d="M36.3313 15.6138H38.7492V16.4408H37.344V18.1667H38.3483V18.9832H37.344V20.8146H38.7492V21.6416H36.3313" fill="white"/>
<path d="M40.3929 19.7301H41.2031L40.8022 17.3122H40.7938L40.3929 19.7301ZM39.1228 21.6416L40.26 15.6138H41.4162L42.564 21.6416H41.5238L41.336 20.5403H40.26L40.0828 21.6416" fill="white"/>
<path d="M45.7729 17.73H45.7455L45.0619 21.6416H44.5893L43.834 17.73H43.815V21.6416H42.9795V15.6138H44.1631L44.8193 19.0106H44.8298L45.4164 15.6138H46.6971V21.6416H45.7729" fill="white"/>
<path d="M47.2732 15.6138H49.6932V16.4408H48.288V18.1667H49.2923V18.9832H48.288V20.8146H49.6932V21.6416H47.2732" fill="white"/>
<path d="M51.0793 17.8544V21.6416H50.2249V15.6138H51.2207L52.3157 19.0718V15.6138H53.1597V21.6416H52.2714" fill="white"/>
<path d="M53.6216 15.6138H56.3159V16.4408H55.4783V21.6416H54.4571V16.4408H53.6216" fill="white"/>
<path d="M58.8393 20.247V17.0105C58.8393 16.6454 58.6789 16.388 58.3139 16.388C57.9595 16.388 57.7991 16.6454 57.7991 17.0105V20.247C57.7991 20.6099 57.9595 20.8694 58.3139 20.8694C58.6789 20.8694 58.8393 20.6099 58.8393 20.247ZM56.7864 20.0866V17.1708C56.7864 16.2277 57.2484 15.542 58.3139 15.542C59.3921 15.542 59.8541 16.2277 59.8541 17.1708V20.0866C59.8541 21.0192 59.3921 21.7133 58.3139 21.7133C57.2484 21.7133 56.7864 21.0192 56.7864 20.0866Z" fill="white"/>
<path d="M22.9254 10.8413H23.7356L23.3347 8.4234H23.3263L22.9254 10.8413ZM24.1977 6.29877L22.6047 6.50343V5.93377L24.1977 5.59619V6.29877ZM21.6553 12.7528L22.7925 6.72497H23.9487L25.0943 12.7528H24.0563L23.8685 11.6494H22.7925L22.6153 12.7528" fill="white"/>
<path d="M27.1302 9.53328H28.5713V12.7529H27.8413V12.0946C27.7083 12.5483 27.4235 12.8225 26.8728 12.8225C26.0015 12.8225 25.6006 12.1305 25.6006 11.1958V8.28002C25.6006 7.33902 26.0542 6.65332 27.1218 6.65332C28.2421 6.65332 28.5713 7.27573 28.5713 8.16398V8.69777H27.6471V8.0838C27.6471 7.71036 27.5037 7.49726 27.1408 7.49726C26.7758 7.49726 26.6154 7.75678 26.6154 8.11967V11.3562C26.6154 11.7212 26.7652 11.9786 27.1134 11.9786C27.4425 11.9786 27.6113 11.7929 27.6113 11.4005V10.335H27.1302" fill="white"/>
<path d="M32.1813 6.72461V11.284C32.1813 12.2187 31.7804 12.8221 30.7487 12.8221C29.6832 12.8221 29.238 12.2187 29.238 11.284V6.72461H30.2508V11.3832C30.2508 11.7376 30.3921 11.9782 30.7487 11.9782C31.1053 11.9782 31.2466 11.7376 31.2466 11.3832V6.72461" fill="white"/>
<path d="M33.9495 10.8409H34.7576L34.3588 8.42304H34.3483L33.9495 10.8409ZM32.6772 12.7525L33.8166 6.72461H34.9728L36.1184 12.7525H35.0783L34.8905 11.649H33.8166L33.6372 12.7525" fill="white"/>
<path d="M38.6523 7.55167V9.92526H39.0257C39.3718 9.92526 39.5237 9.75647 39.5237 9.42734V8.04116C39.5237 7.70991 39.3718 7.55167 39.0257 7.55167H38.6523ZM37.6375 6.72461H39.1397C40.163 6.72461 40.5364 7.23098 40.5364 8.07492V9.34716C40.5364 10.1911 40.163 10.7059 39.1397 10.7059H38.6523V12.7525H37.6375" fill="white"/>
<path d="M43.2032 11.3562V8.11967C43.2032 7.75678 43.0428 7.49726 42.6778 7.49726C42.3234 7.49726 42.163 7.75678 42.163 8.11967V11.3562C42.163 11.7212 42.3234 11.9786 42.6778 11.9786C43.0428 11.9786 43.2032 11.7212 43.2032 11.3562ZM41.1482 11.1958V8.28002C41.1482 7.33902 41.6124 6.65332 42.6778 6.65332C43.7539 6.65332 44.2159 7.33902 44.2159 8.28002V11.1958C44.2159 12.1305 43.7539 12.8225 42.6778 12.8225C41.6124 12.8225 41.1482 12.1305 41.1482 11.1958Z" fill="white"/>
<path d="M44.7666 6.72461H47.4609V7.55167H46.6254V12.7525H45.6021V7.55167H44.7666" fill="white"/>
<path d="M49.1319 10.8413H49.942L49.5412 8.4234H49.5327L49.1319 10.8413ZM50.4041 6.29877L48.8112 6.50343V5.93377L50.4041 5.59619V6.29877ZM47.8596 12.7528L48.9989 6.72497H50.1551L51.3008 12.7528H50.2606L50.075 11.6494H48.9989L48.8217 12.7528" fill="white"/>
<path d="M55.0522 6.72461L53.9066 12.7525H52.8031L51.6575 6.72461H52.6871L53.3812 10.9296H53.3897L54.1007 6.72461" fill="white"/>
<path d="M55.5586 6.72461H57.9786V7.55167H56.5713V9.27543H57.5777V10.0941H56.5713V11.9254H57.9786V12.7525H55.5586" fill="white"/>
<path d="M58.6011 6.72461H59.6138V11.9254H60.8206V12.7525H58.6011" fill="white"/>
</svg>
