<svg width="100%" height="100%" viewBox="0 0 75 75" fill="none" xmlns="http://www.w3.org/2000/svg">
<path d="M0 74.0444H73.7395V0.302734H0V74.0444Z" fill="#5BAD49A6" stroke-width="4" stroke="#5BAD49"/>
<path d="M5.39917 9.17263V11.7825H5.42238L7.17567 9.96172H7.19888V21.3423H9.69695V6.47412H7.70102" fill="white"/>
<path d="M15.6403 11.1895C14.655 11.1895 13.9313 11.5397 13.5346 12.2212H13.5135V8.5142H17.8113V6.47607H11.2328V14.8522H13.5135V14.5231C13.5135 13.6475 13.9081 13.1643 14.6086 13.1643C15.3765 13.1643 15.6846 13.6897 15.6846 14.502V18.0972C15.6846 18.8863 15.3998 19.4348 14.6318 19.4348C13.7773 19.4348 13.4713 18.8652 13.4713 17.9896V16.1245H11.1885V17.8144C11.1885 20.072 12.0873 21.5194 14.6318 21.5194C17.153 21.5194 18.1827 20.1817 18.1827 18.1183V14.4809C18.1827 12.1326 16.9779 11.1895 15.6403 11.1895Z" fill="white"/>
<path d="M30.5361 50.1606C30.6268 50.1606 30.6985 50.2345 30.6985 50.3252V55.6927C30.6985 55.7834 30.6268 55.8573 30.5361 55.8573H28.3629C28.2722 55.8573 28.2004 55.7834 28.2004 55.6927V50.3252C28.2004 50.2345 28.2722 50.1606 28.3629 50.1606" fill="white"/>
<path d="M54.3984 58.1611H18.5899C18.5013 58.1611 18.4275 58.2392 18.4275 58.3299V60.5178C18.4275 60.6086 18.5013 60.6803 18.5899 60.6803H54.3984C54.4871 60.6803 54.563 60.6086 54.563 60.5178V58.3299C54.563 58.2392 54.4871 58.1611 54.3984 58.1611Z" fill="white"/>
<path d="M54.3984 62.5117H18.5899C18.5013 62.5117 18.4275 62.5835 18.4275 62.6742V64.8684C18.4275 64.957 18.5013 65.0309 18.5899 65.0309H54.3984C54.4871 65.0309 54.563 64.957 54.563 64.8684V62.6742C54.563 62.5856 54.4871 62.5117 54.3984 62.5117Z" fill="white"/>
<path d="M47.5857 44.2172C47.1363 43.867 45.9442 43.0504 44.4884 43.0504C43.4461 43.0504 42.4777 43.4598 41.6106 44.2721C41.5515 44.3311 41.5156 44.4113 41.5156 44.4978V44.6919C41.5156 44.789 41.5473 44.8776 41.619 44.9367C41.695 44.9957 41.7772 45.0168 41.8701 44.9957C41.8912 44.9936 41.9165 44.9852 41.9376 44.9789C42.003 44.9557 42.0663 44.9156 42.1169 44.8649C42.3047 44.7383 42.8174 44.5653 43.5516 44.5653C44.3091 44.5653 45.8007 44.77 47.2397 46.1119L47.2734 46.1414C47.3557 46.2258 47.4675 46.2722 47.5857 46.2722C47.6975 46.2722 47.8135 46.2237 47.8874 46.1435L47.9169 46.114C49.3643 44.77 50.8539 44.5653 51.6113 44.5653C52.3497 44.5653 52.8603 44.7383 53.0502 44.8649C53.1009 44.9156 53.1641 44.9557 53.2464 44.9852C53.2802 44.9957 53.3709 45.0147 53.4574 44.9936C53.5903 44.9557 53.6832 44.8354 53.6832 44.6982V44.5252C53.6832 44.443 53.6473 44.3607 53.5882 44.3037C52.7126 43.4703 51.7337 43.0483 50.6766 43.0483C49.2335 43.0483 48.0456 43.8522 47.5857 44.2172Z" fill="white"/>
<path d="M45.3619 29.9461C45.286 29.9799 45.2311 30.0495 45.2058 30.1339L45.1699 30.2542C45.1425 30.347 45.1615 30.4462 45.2163 30.5221C45.2733 30.596 45.3514 30.6382 45.44 30.6424C45.4547 30.6445 45.4716 30.6487 45.4843 30.6445C45.5455 30.6424 45.6024 30.6297 45.6552 30.6002C45.6889 30.5939 45.7543 30.577 45.8746 30.577C46.035 30.577 47.4781 30.6255 48.4318 32.248L48.4444 32.2712C48.495 32.364 48.5773 32.4294 48.6744 32.4548C48.6997 32.4632 48.7546 32.4716 48.7862 32.4716C48.8537 32.4716 48.9212 32.4548 48.9677 32.4273L48.9909 32.4168C49.5141 32.1552 50.0542 32.0201 50.588 32.0201C51.4932 32.0201 52.0839 32.3893 52.2211 32.5434C52.2485 32.5961 52.2928 32.6404 52.3413 32.6763C52.373 32.6953 52.4257 32.7206 52.4574 32.7333C52.4742 32.7354 52.4932 32.7396 52.5122 32.7396C52.5207 32.7438 52.5333 32.7438 52.5418 32.7438C52.5924 32.7438 52.6388 32.729 52.6852 32.7058C52.7591 32.67 52.8139 32.6024 52.8371 32.5223L52.8667 32.4168C52.8772 32.3915 52.8793 32.3619 52.8793 32.3303C52.8793 32.2754 52.8646 32.2206 52.8371 32.1763C52.143 30.9694 51.1345 30.7183 50.4087 30.7183C49.8686 30.7183 49.3981 30.8576 49.1196 30.9589C48.7925 30.5179 47.9634 29.6064 46.7059 29.6064C46.2628 29.6064 45.8113 29.7183 45.3619 29.9461Z" fill="white"/>
<path d="M37.796 35.4549L37.8066 35.6152C37.8129 35.7165 37.8635 35.803 37.95 35.8558C38.0218 35.9001 38.1125 35.9169 38.1906 35.8937C38.2074 35.8895 38.2285 35.8832 38.2433 35.8769C38.3045 35.8515 38.3572 35.8115 38.3973 35.7629C38.5492 35.6532 39.0408 35.4528 39.7645 35.4528C40.4587 35.4528 41.5178 35.6384 42.5938 36.5225L42.6191 36.5499C42.6972 36.6153 42.7964 36.6533 42.8955 36.6533H42.923C43.0348 36.6448 43.1403 36.5921 43.2036 36.5183L43.2268 36.4908C44.421 35.2291 45.7059 35.0392 46.3663 35.0392C46.8368 35.0392 47.1701 35.1363 47.3009 35.2101C47.3494 35.2523 47.4106 35.2861 47.4866 35.3072C47.5077 35.3114 47.5604 35.322 47.6174 35.3156C47.6406 35.3135 47.6701 35.3051 47.6934 35.2988C47.8199 35.2523 47.9043 35.1279 47.8959 34.9907L47.8875 34.8494C47.8832 34.7671 47.8432 34.6911 47.7799 34.6363C47.0667 34.0371 46.2987 33.7354 45.4907 33.7354C44.2311 33.7354 43.2268 34.4801 42.809 34.8451C42.4293 34.5856 41.5051 34.0518 40.4207 34.0518C39.467 34.0518 38.6125 34.4485 37.8804 35.2249C37.8213 35.2861 37.7939 35.3705 37.796 35.4549Z" fill="white"/>
<path d="M19.6765 38.3286C19.6765 36.185 21.415 34.4465 23.5587 34.4465C23.6409 34.4465 23.7232 34.4549 23.8076 34.4591C24.0102 31.7458 26.2719 29.6064 29.0401 29.6064C31.9411 29.6064 34.2915 31.9568 34.2915 34.8579C34.2915 35.6807 34.0974 36.4529 33.7598 37.1471C36.3887 37.7294 38.3572 40.0713 38.3572 42.8732C38.3572 46.114 35.7304 48.7429 32.4876 48.7429C32.2513 48.7429 24.6537 48.6964 24.6537 48.6964C22.3581 48.6964 20.4972 46.8377 20.4972 44.5421C20.4972 43.4387 20.9298 42.4407 21.6302 41.6959C20.4635 41.0271 19.6765 39.7717 19.6765 38.3286Z" fill="white"/>
<path d="M26.8205 6.47607L25.6727 12.5018H24.5713L23.4236 6.47607H24.4553L25.1494 10.681H25.1579L25.8689 6.47607" fill="white"/>
<path d="M27.3269 12.5018H28.3417V6.47607H27.3269V12.5018Z" fill="white"/>
<path d="M30.4558 11.6769C30.8735 11.6769 31.0339 11.4279 31.0339 11.0629V7.90656C31.0339 7.5521 30.8735 7.30314 30.4558 7.30314H30.0296V11.6769H30.4558ZM32.0487 8.09433V10.8857C32.0487 11.8098 31.6647 12.5018 30.5802 12.5018H29.0168V6.47607H30.5802C31.6647 6.47607 32.0487 7.15967 32.0487 8.09433Z" fill="white"/>
<path d="M33.8252 10.5924H34.6333L34.2345 8.17451H34.224L33.8252 10.5924ZM32.553 12.5018L33.6923 6.47607H34.8485L35.9942 12.5018H34.954L34.7683 11.4005H33.6923L33.5151 12.5018" fill="white"/>
<path d="M23.4512 15.3311H26.1455V16.156H25.31V21.3568H24.2867V16.156H23.4512" fill="white"/>
<path d="M26.5989 15.3311H29.0168V16.156H27.6116V17.8819H28.6159V18.6984H27.6116V20.5297H29.0168V21.3568H26.5989" fill="white"/>
<path d="M30.5549 16.156V18.0317H30.8925C31.2385 18.0317 31.3904 17.8544 31.3904 17.5337V16.6455C31.3904 16.3164 31.2385 16.156 30.8925 16.156H30.5549ZM30.5549 18.5929V21.3568H29.54V15.3311H31.0169C32.0381 15.3311 32.4116 15.8374 32.4116 16.6814V17.4536C32.4116 18.1034 32.1795 18.4853 31.6035 18.6203L32.5719 21.3568H31.5043" fill="white"/>
<path d="M33.9497 16.156V18.0317H34.2873C34.6333 18.0317 34.7852 17.8544 34.7852 17.5337V16.6455C34.7852 16.3164 34.6333 16.156 34.2873 16.156H33.9497ZM33.9497 18.5929V21.3568H32.937V15.3311H34.4118C35.4351 15.3311 35.8085 15.8374 35.8085 16.6814V17.4536C35.8085 18.1034 35.5764 18.4853 34.9983 18.6203L35.9668 21.3568H34.9013" fill="white"/>
<path d="M36.3401 15.3311H38.758V16.156H37.3549V17.8819H38.3592V18.6984H37.3549V20.5297H38.758V21.3568H36.3401" fill="white"/>
<path d="M39.2307 20.0597V19.2516H40.1738V20.0766C40.1738 20.4141 40.3236 20.6104 40.6696 20.6104C40.9903 20.6104 41.1317 20.3973 41.1317 20.0766V19.8466C41.1317 19.5006 40.9903 19.2854 40.6802 18.9921L40.0831 18.3971C39.505 17.8275 39.2392 17.4814 39.2392 16.7873V16.5826C39.2392 15.8379 39.6738 15.2598 40.6612 15.2598C41.6739 15.2598 42.0748 15.7577 42.0748 16.6291V17.1164H41.1507V16.5932C41.1507 16.2451 40.9903 16.0784 40.6696 16.0784C40.3848 16.0784 40.1907 16.2366 40.1907 16.5742V16.6987C40.1907 17.0363 40.3764 17.2325 40.6696 17.5173L41.3195 18.1566C41.8701 18.7178 42.136 19.0554 42.136 19.7221V20.0154C42.136 20.8424 41.6929 21.429 40.6612 21.429C39.6295 21.429 39.2307 20.8509 39.2307 20.0597Z" fill="white"/>
<path d="M42.5283 15.3311H45.2205V16.156H44.385V21.3568H43.3638V16.156H42.5283" fill="white"/>
<path d="M46.6889 16.156V18.0317H47.0265C47.3725 18.0317 47.5244 17.8544 47.5244 17.5337V16.6455C47.5244 16.3164 47.3725 16.156 47.0265 16.156H46.6889ZM46.6889 18.5929V21.3568H45.6741V15.3311H47.151C48.1721 15.3311 48.5456 15.8374 48.5456 16.6814V17.4536C48.5456 18.1034 48.3135 18.4853 47.7375 18.6203L48.7059 21.3568H47.6383" fill="white"/>
<path d="M49.071 15.3311H51.4889V16.156H50.0838V17.8819H51.0881V18.6984H50.0838V20.5297H51.4889V21.3568H49.071" fill="white"/>
</svg>
