<svg width="100%" height="100%" viewBox="0 0 75 75" fill="none" xmlns="http://www.w3.org/2000/svg">
<path d="M0.809814 74.4617H74.5493V0.722168H0.809814V74.4617Z" fill="#FD9D24A6" stroke-width="4" stroke="#FD9D24"/>
<path d="M6.09473 9.60036V12.2081H6.11583L7.86912 10.3873H7.89232V21.77H10.3925V6.90186H8.39658" fill="white"/>
<path d="M11.7957 9.60036V12.2081H11.8168L13.5722 10.3873H13.5933V21.77H16.0934V6.90186H14.0996" fill="white"/>
<path d="M13.4962 56.8615H24.5877C24.7375 56.8615 24.8599 56.7391 24.8599 56.5893C24.8599 56.5197 24.8304 56.4564 24.7882 56.4078L24.7734 56.391L19.254 49.2512L19.2013 49.1921C19.1506 49.1373 19.081 49.1035 18.9987 49.1035C18.9312 49.1035 18.87 49.1331 18.8215 49.1753L18.7371 49.2702L13.3527 56.3361L13.2705 56.4374C13.2388 56.4796 13.2219 56.5323 13.2219 56.5893C13.2219 56.7391 13.3464 56.8615 13.4962 56.8615Z" fill="white"/>
<path d="M24.554 57.8677H13.4414C13.2895 57.8677 13.1692 57.99 13.1692 58.1398V66.8367C13.1692 66.9886 13.2895 67.111 13.4414 67.111H17.0176V61.638C17.0176 61.4882 17.1378 61.3658 17.2897 61.3658H20.6107C20.7605 61.3658 20.8828 61.4882 20.8828 61.638V67.111H24.554C24.7038 67.111 24.8262 66.9886 24.8262 66.8367V58.1398C24.8262 57.99 24.7038 57.8677 24.554 57.8677Z" fill="white"/>
<path d="M61.9702 59.1506C61.9702 59.2962 61.8499 59.4123 61.7001 59.4123H58.4151C58.2653 59.4123 58.145 59.2962 58.145 59.1506V57.1547C58.145 57.0091 58.2653 56.891 58.4151 56.891H61.7001C61.8499 56.891 61.9702 57.0091 61.9702 57.1547V59.1506ZM61.9702 62.8429C61.9702 62.9885 61.8499 63.1066 61.7001 63.1066H58.4151C58.2653 63.1066 58.145 62.9885 58.145 62.8429V60.8449C58.145 60.7014 58.2653 60.5832 58.4151 60.5832H61.7001C61.8499 60.5832 61.9702 60.7014 61.9702 60.8449V62.8429ZM56.9466 59.1506C56.9466 59.2962 56.8284 59.4123 56.6786 59.4123H53.3915C53.2417 59.4123 53.1214 59.2962 53.1214 59.1506V57.1547C53.1214 57.0091 53.2417 56.891 53.3915 56.891H56.6786C56.8284 56.891 56.9466 57.0091 56.9466 57.1547V59.1506ZM56.9466 62.8429C56.9466 62.9885 56.8284 63.1066 56.6786 63.1066H53.3915C53.2417 63.1066 53.1214 62.9885 53.1214 62.8429V60.8449C53.1214 60.7014 53.2417 60.5832 53.3915 60.5832H56.6786C56.8284 60.5832 56.9466 60.7014 56.9466 60.8449V62.8429ZM62.966 55.5913H51.9652C51.8175 55.5913 51.6973 55.7074 51.6973 55.8529V66.9613C51.6973 67.1048 51.8175 67.2208 51.9652 67.2208H62.966C63.1158 67.2208 63.2361 67.1048 63.2361 66.9613V55.8529C63.2361 55.7074 63.1158 55.5913 62.966 55.5913Z" fill="white"/>
<path d="M35.8249 37.7016C35.8249 37.7796 35.7616 37.8429 35.6836 37.8429H33.2193C33.1412 37.8429 33.0779 37.7796 33.0779 37.7016V34.9545C33.0779 34.8765 33.1412 34.8132 33.2193 34.8132H35.6836C35.7616 34.8132 35.8249 34.8765 35.8249 34.9545V37.7016ZM35.8249 44.01C35.8249 44.086 35.7616 44.1493 35.6836 44.1493H33.2193C33.1412 44.1493 33.0779 44.086 33.0779 44.01V41.263C33.0779 41.1828 33.1412 41.1216 33.2193 41.1216H35.6836C35.7616 41.1216 35.8249 41.1828 35.8249 41.263V44.01ZM35.8249 50.3164C35.8249 50.3966 35.7616 50.4599 35.6836 50.4599H33.2193C33.1412 50.4599 33.0779 50.3966 33.0779 50.3164V47.5694C33.0779 47.4934 33.1412 47.4301 33.2193 47.4301H35.6836C35.7616 47.4301 35.8249 47.4934 35.8249 47.5694V50.3164ZM35.8249 56.6249C35.8249 56.7051 35.7616 56.7662 35.6836 56.7662H33.2193C33.1412 56.7662 33.0779 56.7051 33.0779 56.6249V53.88C33.0779 53.7998 33.1412 53.7365 33.2193 53.7365H35.6836C35.7616 53.7365 35.8249 53.7998 35.8249 53.88V56.6249ZM35.8249 62.9334C35.8249 63.0114 35.7616 63.0747 35.6836 63.0747H33.2193C33.1412 63.0747 33.0779 63.0114 33.0779 62.9334V60.1863C33.0779 60.1083 33.1412 60.0471 33.2193 60.0471H35.6836C35.7616 60.0471 35.8249 60.1083 35.8249 60.1863V62.9334ZM30.9913 37.7016C30.9913 37.7796 30.928 37.8429 30.8499 37.8429H28.3856C28.3075 37.8429 28.2442 37.7796 28.2442 37.7016V34.9545C28.2442 34.8765 28.3075 34.8132 28.3856 34.8132H30.8499C30.928 34.8132 30.9913 34.8765 30.9913 34.9545V37.7016ZM30.9913 44.01C30.9913 44.086 30.928 44.1493 30.8499 44.1493H28.3856C28.3075 44.1493 28.2442 44.086 28.2442 44.01V41.263C28.2442 41.1828 28.3075 41.1216 28.3856 41.1216H30.8499C30.928 41.1216 30.9913 41.1828 30.9913 41.263V44.01ZM30.9913 50.3164C30.9913 50.3966 30.928 50.4599 30.8499 50.4599H28.3856C28.3075 50.4599 28.2442 50.3966 28.2442 50.3164V47.5694C28.2442 47.4934 28.3075 47.4301 28.3856 47.4301H30.8499C30.928 47.4301 30.9913 47.4934 30.9913 47.5694V50.3164ZM30.9913 56.6249C30.9913 56.7051 30.928 56.7662 30.8499 56.7662H28.3856C28.3075 56.7662 28.2442 56.7051 28.2442 56.6249V53.88C28.2442 53.7998 28.3075 53.7365 28.3856 53.7365H30.8499C30.928 53.7365 30.9913 53.7998 30.9913 53.88V56.6249ZM30.9913 62.9334C30.9913 63.0114 30.928 63.0747 30.8499 63.0747H28.3856C28.3075 63.0747 28.2442 63.0114 28.2442 62.9334V60.1863C28.2442 60.1083 28.3075 60.0471 28.3856 60.0471H30.8499C30.928 60.0471 30.9913 60.1083 30.9913 60.1863V62.9334ZM37.3947 29.8086H26.6302C26.4867 29.8086 26.3665 29.9246 26.3665 30.0723V66.8619C26.3665 67.0075 26.4867 67.1256 26.6302 67.1256H37.3947C37.5403 67.1256 37.6605 67.0075 37.6605 66.8619V30.0723C37.6605 29.9246 37.5403 29.8086 37.3947 29.8086Z" fill="white"/>
<path d="M63.2235 54.4729C63.2235 54.5973 63.1243 54.6965 63.0019 54.6965H51.9294C51.8091 54.6965 51.71 54.5973 51.71 54.4729V52.2596C51.71 52.1372 51.8091 52.0381 51.9294 52.0381H63.0019C63.1243 52.0381 63.2235 52.1372 63.2235 52.2596" fill="white"/>
<path d="M49.174 47.9958C49.174 48.1435 49.0558 48.2595 48.9102 48.2595H45.7033C45.5577 48.2595 45.4374 48.1435 45.4374 47.9958V45.9872C45.4374 45.8416 45.5577 45.7235 45.7033 45.7235H48.9102C49.0558 45.7235 49.174 45.8416 49.174 45.9872V47.9958ZM49.174 51.7091C49.174 51.8547 49.0558 51.9708 48.9102 51.9708H45.7033C45.5577 51.9708 45.4374 51.8547 45.4374 51.7091V49.7005C45.4374 49.5529 45.5577 49.4368 45.7033 49.4368H48.9102C49.0558 49.4368 49.174 49.5529 49.174 49.7005V51.7091ZM49.174 55.4204C49.174 55.5638 49.0558 55.682 48.9102 55.682H45.7033C45.5577 55.682 45.4374 55.5638 45.4374 55.4204V53.4097C45.4374 53.2641 45.5577 53.1481 45.7033 53.1481H48.9102C49.0558 53.1481 49.174 53.2641 49.174 53.4097V55.4204ZM49.174 59.1295C49.174 59.2751 49.0558 59.3932 48.9102 59.3932H45.7033C45.5577 59.3932 45.4374 59.2751 45.4374 59.1295V57.123C45.4374 56.9753 45.5577 56.8593 45.7033 56.8593H48.9102C49.0558 56.8593 49.174 56.9753 49.174 57.123V59.1295ZM49.174 62.8407C49.174 62.9863 49.0558 63.1045 48.9102 63.1045H45.7033C45.5577 63.1045 45.4374 62.9863 45.4374 62.8407V60.8343C45.4374 60.6866 45.5577 60.5705 45.7033 60.5705H48.9102C49.0558 60.5705 49.174 60.6866 49.174 60.8343V62.8407ZM44.2791 47.289V51.7112C44.2791 51.8589 44.1588 51.975 44.0154 51.975H40.8084C40.6607 51.975 40.5425 51.8589 40.5425 51.7112V51.1563C40.5447 51.1205 40.551 51.0867 40.5636 51.0572C40.5679 51.0466 40.57 51.0424 40.5784 51.0255C40.5847 51.015 40.5953 51.0023 40.6016 50.9918C40.6101 50.9791 40.6227 50.9622 40.6333 50.9475C41.0426 50.3609 42.8929 48.0823 43.6715 47.1286L43.7474 47.0337C43.8044 46.9662 43.8909 46.9219 43.9858 46.9219C44.1314 46.9219 44.2496 47.0295 44.2791 47.1687V47.289ZM44.2707 55.4204C44.2707 55.5638 44.1525 55.682 44.0069 55.682H40.7978C40.6523 55.682 40.5341 55.5638 40.5341 55.4204V53.4097C40.5341 53.2641 40.6523 53.1481 40.7978 53.1481H44.0069C44.1525 53.1481 44.2707 53.2641 44.2707 53.4097V55.4204ZM44.2707 59.1295C44.2707 59.2751 44.1525 59.3932 44.0069 59.3932H40.7978C40.6523 59.3932 40.5341 59.2751 40.5341 59.1295V57.123C40.5341 56.9753 40.6523 56.8593 40.7978 56.8593H44.0069C44.1525 56.8593 44.2707 56.9753 44.2707 57.123V59.1295ZM44.2707 62.8407C44.2707 62.9863 44.1525 63.1045 44.0069 63.1045H40.7978C40.6523 63.1045 40.5341 62.9863 40.5341 62.8407V60.8343C40.5341 60.6866 40.6523 60.5705 40.7978 60.5705H44.0069C44.1525 60.5705 44.2707 60.6866 44.2707 60.8343V62.8407ZM45.9438 44.044L46.0197 43.9491C46.7434 43.0207 47.9629 41.5185 48.5579 40.7885L48.636 40.6957C48.6908 40.6282 48.7773 40.5839 48.8723 40.5839C49.02 40.5839 49.1381 40.6915 49.1655 40.8307V44.2255C49.1655 44.39 49.0368 44.5208 48.8744 44.5293C48.868 44.5293 48.8659 44.5314 48.8596 44.5314C48.8554 44.5314 48.8512 44.5293 48.8469 44.5293H46.2033C46.1991 44.5293 46.1949 44.5314 46.1906 44.5314C46.1843 44.5314 46.1822 44.5293 46.1759 44.5293C46.0134 44.5208 45.8847 44.39 45.8847 44.2255C45.8847 44.1579 45.9058 44.0947 45.9438 44.044ZM50.3977 36.7566C50.3618 36.6384 50.2584 36.5498 50.1276 36.5498C50.0707 36.5498 50.0179 36.5709 49.9736 36.6004C49.9673 36.6068 49.9609 36.6089 49.9546 36.6131L49.8618 36.7291L39.283 50.1499L39.2344 50.2154C39.1796 50.2702 39.1437 50.3419 39.1416 50.4242V66.917C39.1416 67.0626 39.2598 67.1807 39.4074 67.1807H50.1614C50.307 67.1807 50.423 67.0626 50.423 66.917V36.8663C50.423 36.8262 50.4125 36.7882 50.3977 36.7566Z" fill="white"/>
<path d="M20.9924 10.4336V7.51781C20.9924 6.57471 21.4355 5.89111 22.5031 5.89111C23.6234 5.89111 23.9336 6.51352 23.9336 7.40177V8.11279H23.0095V7.3216C23.0095 6.94815 22.885 6.73506 22.5221 6.73506C22.1571 6.73506 22.0052 6.99246 22.0052 7.35746V10.5919C22.0052 10.9569 22.1571 11.2143 22.5221 11.2143C22.885 11.2143 23.0095 10.9843 23.0095 10.6277V9.51796H23.9336V10.5581C23.9336 11.4189 23.5791 12.0603 22.5031 12.0603C21.4355 12.0603 20.9924 11.3662 20.9924 10.4336Z" fill="white"/>
<path d="M24.3894 11.9886H25.4021V5.96289H24.3894V11.9886Z" fill="white"/>
<path d="M27.3305 11.1616C27.7483 11.1616 27.9086 10.9126 27.9086 10.5476V7.39337C27.9086 7.03681 27.7483 6.78784 27.3305 6.78784H26.9043V11.1616H27.3305ZM28.9214 7.57904V10.3704C28.9214 11.2945 28.5395 11.9886 27.455 11.9886H25.8916V5.96289H27.455C28.5395 5.96289 28.9214 6.64648 28.9214 7.57904Z" fill="white"/>
<path d="M30.5123 10.0771H31.3225L30.9216 7.65922H30.9132L30.5123 10.0771ZM29.2422 11.9886L30.3794 5.96289H31.5356L32.6813 11.9886H31.6411L31.4554 10.8873H30.3794L30.2022 11.9886" fill="white"/>
<path d="M34.443 11.1616C34.8607 11.1616 35.019 10.9126 35.019 10.5476V7.39337C35.019 7.03681 34.8607 6.78784 34.443 6.78784H34.0147V11.1616H34.443ZM36.0338 7.57904V10.3704C36.0338 11.2945 35.6519 11.9886 34.5675 11.9886H33.002V5.96289H34.5675C35.6519 5.96289 36.0338 6.64648 36.0338 7.57904Z" fill="white"/>
<path d="M36.5127 5.96289H38.9327V6.78784H37.5275V8.51371H38.5318V9.33022H37.5275V11.1616H38.9327V11.9886H36.5127" fill="white"/>
<path d="M39.3145 10.691V9.88296H40.2554V10.7079C40.2554 11.0455 40.4052 11.2417 40.7534 11.2417C41.0741 11.2417 41.2154 11.0286 41.2154 10.7079V10.4779C41.2154 10.1319 41.0741 9.91672 40.7618 9.62345L40.1668 9.02847C39.5887 8.45881 39.3229 8.11279 39.3229 7.42076V7.21399C39.3229 6.46921 39.7575 5.89111 40.7449 5.89111C41.7577 5.89111 42.1585 6.38904 42.1585 7.2583V7.7499H41.2344V7.22454C41.2344 6.87642 41.0741 6.70974 40.7534 6.70974C40.4685 6.70974 40.2723 6.86798 40.2723 7.20555V7.33004C40.2723 7.66972 40.4601 7.86383 40.7534 8.14866L41.4032 8.78795C41.9539 9.34917 42.2197 9.68675 42.2197 10.3535V10.6467C42.2197 11.4738 41.7745 12.0603 40.7449 12.0603C39.7132 12.0603 39.3145 11.4822 39.3145 10.691Z" fill="white"/>
<path d="M43.4836 5.96289H45.9015V6.78784H44.4964V8.51371H45.5007V9.33022H44.4964V11.1616H45.9015V11.9886H43.4836" fill="white"/>
<path d="M21.1169 17.9092V14.9934C21.1169 14.0524 21.5621 13.3667 22.6276 13.3667C23.7479 13.3667 24.0581 13.9891 24.0581 14.8795V15.5905H23.134V14.7993C23.134 14.4258 23.0095 14.2128 22.6466 14.2128C22.2816 14.2128 22.1297 14.4702 22.1297 14.8352V18.0696C22.1297 18.4346 22.2816 18.692 22.6466 18.692C23.0095 18.692 23.134 18.462 23.134 18.1054V16.9935H24.0581V18.0337C24.0581 18.8966 23.7036 19.5359 22.6276 19.5359C21.5621 19.5359 21.1169 18.8439 21.1169 17.9092Z" fill="white"/>
<path d="M26.7524 18.0696V14.8352C26.7524 14.4702 26.592 14.2128 26.227 14.2128C25.8725 14.2128 25.7122 14.4702 25.7122 14.8352V18.0696C25.7122 18.4346 25.8725 18.692 26.227 18.692C26.592 18.692 26.7524 18.4346 26.7524 18.0696ZM24.6995 17.9092V14.9934C24.6995 14.0524 25.1615 13.3667 26.227 13.3667C27.303 13.3667 27.7651 14.0524 27.7651 14.9934V17.9092C27.7651 18.8439 27.303 19.5359 26.227 19.5359C25.1615 19.5359 24.6995 18.8439 24.6995 17.9092Z" fill="white"/>
<path d="M31.2232 15.5547H31.1979L30.5143 19.4642H30.0417L29.2864 15.5547H29.2674V19.4642H28.4319V13.4385H29.6155L30.2717 16.8353H30.2822L30.8688 13.4385H32.1495V19.4642H31.2232" fill="white"/>
<path d="M35.7573 13.4385V17.9979C35.7573 18.9325 35.3564 19.536 34.3268 19.536C33.2592 19.536 32.8162 18.9325 32.8162 17.9979V13.4385H33.8289V18.097C33.8289 18.4515 33.9703 18.692 34.3268 18.692C34.6813 18.692 34.8247 18.4515 34.8247 18.097V13.4385" fill="white"/>
<path d="M37.2786 15.6791V19.4642H36.4241V13.4385H37.4199L38.5128 16.8965V13.4385H39.3589V19.4642H38.4685" fill="white"/>
<path d="M40.0234 19.4642H41.0383V13.4385H40.0234V19.4642Z" fill="white"/>
<path d="M43.144 18.6393C43.5618 18.6393 43.7221 18.3903 43.7221 18.0253V14.869C43.7221 14.5145 43.5618 14.2655 43.144 14.2655H42.7178V18.6393H43.144ZM44.7348 15.0567V17.8481C44.7348 18.7722 44.3529 19.4642 43.2685 19.4642H41.7051V13.4385H43.2685C44.3529 13.4385 44.7348 14.1221 44.7348 15.0567Z" fill="white"/>
<path d="M46.5133 17.5548H47.3235L46.9226 15.1369H46.9142L46.5133 17.5548ZM45.2432 19.4642L46.3804 13.4385H47.5366L48.6822 19.4642H47.6421L47.4564 18.3629H46.3804L46.2031 19.4642" fill="white"/>
<path d="M50.6296 18.6393C51.0473 18.6393 51.2077 18.3903 51.2077 18.0253V14.869C51.2077 14.5145 51.0473 14.2655 50.6296 14.2655H50.2034V18.6393H50.6296ZM52.2204 15.0567V17.8481C52.2204 18.7722 51.8385 19.4642 50.7541 19.4642H49.1907V13.4385H50.7541C51.8385 13.4385 52.2204 14.1221 52.2204 15.0567Z" fill="white"/>
<path d="M52.8872 13.4385H55.3051V14.2655H53.8999V15.9893H54.9042V16.8079H53.8999V18.6393H55.3051V19.4642H52.8872" fill="white"/>
<path d="M55.8833 18.1666V17.3585H56.8264V18.1856C56.8264 18.5232 56.9762 18.7194 57.3243 18.7194C57.6429 18.7194 57.7864 18.5042 57.7864 18.1856V17.9535C57.7864 17.6075 57.6429 17.3944 57.3328 17.1011L56.7357 16.5062C56.1597 15.9365 55.8917 15.5905 55.8917 14.8963V14.6917C55.8917 13.9448 56.3285 13.3667 57.3138 13.3667C58.3286 13.3667 58.7274 13.8646 58.7274 14.736V15.2255H57.8033V14.7001C57.8033 14.3541 57.6429 14.1853 57.3243 14.1853C57.0395 14.1853 56.8433 14.3457 56.8433 14.6833V14.8077C56.8433 15.1453 57.0311 15.3415 57.3243 15.6242L57.9721 16.2656C58.5227 16.8248 58.7907 17.1623 58.7907 17.829V18.1223C58.7907 18.9494 58.3455 19.5359 57.3138 19.5359C56.2842 19.5359 55.8833 18.9578 55.8833 18.1666Z" fill="white"/>
<path d="M21.0642 26.4161V25.6081H22.0052V26.4351C22.0052 26.7727 22.1571 26.9689 22.5031 26.9689C22.8238 26.9689 22.9652 26.7537 22.9652 26.4351V26.203C22.9652 25.857 22.8238 25.6439 22.5116 25.3507L21.9166 24.7536C21.3385 24.186 21.0726 23.84 21.0726 23.1459V22.9412C21.0726 22.1943 21.5073 21.6162 22.4947 21.6162C23.5074 21.6162 23.9083 22.1141 23.9083 22.9855V23.475H22.9842V22.9496C22.9842 22.6036 22.8238 22.4348 22.5031 22.4348C22.2183 22.4348 22.0221 22.5952 22.0221 22.9328V23.0572C22.0221 23.3948 22.2099 23.591 22.5031 23.8738L23.153 24.5152C23.7036 25.0743 23.9695 25.4118 23.9695 26.0786V26.3718C23.9695 27.1989 23.5264 27.7854 22.4947 27.7854C21.463 27.7854 21.0642 27.2073 21.0642 26.4161Z" fill="white"/>
<path d="M27.5267 21.688V26.2474C27.5267 27.1821 27.1259 27.7855 26.0942 27.7855C25.0287 27.7855 24.5835 27.1821 24.5835 26.2474V21.688H25.5962V26.3466C25.5962 26.701 25.7397 26.9415 26.0942 26.9415C26.4507 26.9415 26.5921 26.701 26.5921 26.3466V21.688" fill="white"/>
<path d="M28.1406 26.4161V25.6081H29.0816V26.4351C29.0816 26.7727 29.2335 26.9689 29.5795 26.9689C29.9002 26.9689 30.0416 26.7537 30.0416 26.4351V26.203C30.0416 25.857 29.9002 25.6439 29.588 25.3507L28.993 24.7536C28.4149 24.186 28.1491 23.84 28.1491 23.1459V22.9412C28.1491 22.1943 28.5837 21.6162 29.5711 21.6162C30.5838 21.6162 30.9847 22.1141 30.9847 22.9855V23.475H30.0606V22.9496C30.0606 22.6036 29.9002 22.4348 29.5795 22.4348C29.2947 22.4348 29.1006 22.5952 29.1006 22.9328V23.0572C29.1006 23.3948 29.2863 23.591 29.5795 23.8738L30.2273 24.5152C30.7801 25.0743 31.0459 25.4118 31.0459 26.0786V26.3718C31.0459 27.1989 30.6028 27.7854 29.5711 27.7854C28.5394 27.7854 28.1406 27.2073 28.1406 26.4161Z" fill="white"/>
<path d="M31.5439 21.688H34.2361V22.5151H33.4006V27.7137H32.3794V22.5151H31.5439" fill="white"/>
<path d="M34.7974 21.688H37.2153V22.5151H35.8122V24.2388H36.8165V25.0574H35.8122V26.8888H37.2153V27.7137H34.7974" fill="white"/>
<path d="M38.6921 23.9287V27.7159H37.8376V21.688H38.8335L39.9264 25.146V21.688H40.7725V27.7159H39.8821" fill="white"/>
<path d="M41.3232 21.688H44.0154V22.5151H43.1799V27.7137H42.1587V22.5151H41.3232" fill="white"/>
<path d="M45.6864 25.8042H46.4966L46.0957 23.3863H46.0873L45.6864 25.8042ZM46.9586 21.2617L45.3678 21.4663V20.8967L46.9586 20.5591V21.2617ZM44.4163 27.7136L45.5535 21.6879H46.7097L47.8553 27.7136H46.8152L46.6295 26.6123H45.5535L45.3762 27.7136" fill="white"/>
<path d="M51.6067 21.688L50.461 27.7137H49.3597L48.2119 21.688H49.2436L49.9357 25.8929H49.9462L50.6572 21.688" fill="white"/>
<path d="M52.115 21.688H54.5329V22.5151H53.1277V24.2388H54.132V25.0574H53.1277V26.8888H54.5329V27.7137H52.115" fill="white"/>
<path d="M55.1553 27.7137H56.168V21.688H55.1553V27.7137Z" fill="white"/>
<path d="M56.7905 26.4161V25.6081H57.7315V26.4351C57.7315 26.7727 57.8834 26.9689 58.2294 26.9689C58.5501 26.9689 58.6915 26.7537 58.6915 26.4351V26.203C58.6915 25.857 58.5501 25.6439 58.24 25.3507L57.6429 24.7536C57.0669 24.186 56.799 23.84 56.799 23.1459V22.9412C56.799 22.1943 57.2336 21.6162 58.221 21.6162C59.2337 21.6162 59.6346 22.1141 59.6346 22.9855V23.475H58.7105V22.9496C58.7105 22.6036 58.5501 22.4348 58.2294 22.4348C57.9467 22.4348 57.7505 22.5952 57.7505 22.9328V23.0572C57.7505 23.3948 57.9362 23.591 58.2294 23.8738L58.8793 24.5152C59.43 25.0743 59.6958 25.4118 59.6958 26.0786V26.3718C59.6958 27.1989 59.2527 27.7854 58.221 27.7854C57.1893 27.7854 56.7905 27.2073 56.7905 26.4161Z" fill="white"/>
</svg>
