<svg width="100%" height="100%" viewBox="0 0 75 75" fill="none" xmlns="http://www.w3.org/2000/svg">
<path d="M0.647461 74.4617H74.387V0.722168H0.647461V74.4617Z" fill="#CD1B62A6" stroke-width="4" stroke="#CD1B62"/>
<path d="M7.76187 10.3833V21.7765H10.2642V6.89355H8.26823L5.96216 9.59417V12.2062H5.98326L7.73866 10.3833" fill="white"/>
<path d="M14.5029 18.3309V10.3388C14.5029 9.43998 14.83 8.8028 15.6866 8.8028C16.5643 8.8028 16.8934 9.43998 16.8934 10.3388V18.3309C16.8934 19.2318 16.5643 19.8648 15.6866 19.8648C14.83 19.8648 14.5029 19.2318 14.5029 18.3309ZM19.3957 17.9343V10.7333C19.3957 8.40826 18.2332 6.71826 15.6866 6.71826C13.1632 6.71826 11.9985 8.40826 11.9985 10.7333V17.9343C11.9985 20.2403 13.1632 21.9514 15.6866 21.9514C18.2332 21.9514 19.3957 20.2403 19.3957 17.9343Z" fill="white"/>
<path d="M45.1317 49.4326H30.3923C30.3037 49.4326 30.2319 49.5065 30.2319 49.593V52.9329C30.2319 53.0236 30.3037 53.0953 30.3923 53.0953H45.1317C45.2225 53.0953 45.2921 53.0236 45.2921 52.9329V49.593C45.2921 49.5065 45.2225 49.4326 45.1317 49.4326Z" fill="white"/>
<path d="M45.2942 43.3137C45.2942 43.2251 45.2225 43.1533 45.1317 43.1533H30.3923C30.3037 43.1533 30.2319 43.2251 30.2319 43.3137V46.6557C30.2319 46.7422 30.3037 46.8139 30.3923 46.8139H45.1317C45.2225 46.8139 45.2942 46.7422 45.2942 46.6557" fill="white"/>
<path d="M53.8223 44.6197C53.2167 42.1912 52.1175 40.0202 50.6596 38.1741L50.6279 38.1994C51.1027 38.902 51.5267 39.6489 51.8875 40.4358C53.7991 43.9424 54.3856 48.1748 53.1788 52.3122C50.7588 60.6124 42.0661 65.3807 33.766 62.9586C30.2784 61.9416 27.4153 59.8128 25.4468 57.0721C24.2146 55.4897 23.2842 53.6351 22.7715 51.5674C20.8009 43.647 25.6219 35.6275 33.5444 33.6569C38.4435 32.4374 43.3721 33.8278 46.8914 36.9335C46.923 36.9609 46.9526 36.9904 46.9863 37.0179C47.0813 37.0896 47.1931 37.1402 47.3218 37.1402C47.4632 37.1402 47.5898 37.0833 47.6889 36.9968L47.7501 36.9377L49.6237 35.0874L49.7481 34.965C49.8178 34.87 49.8684 34.7582 49.8684 34.6316C49.8684 34.4839 49.8072 34.3531 49.7165 34.2497C49.6975 34.2329 49.6764 34.2139 49.6574 34.197C45.328 30.3296 39.2305 28.5911 33.171 30.0997C23.4403 32.5197 17.518 42.3706 19.938 52.1012C20.9528 56.1796 23.2736 59.5828 26.3414 61.9901C29.3986 64.4967 33.2912 65.9187 37.3696 65.8765C38.6819 65.8617 40.0111 65.7014 41.3404 65.3701C50.5182 63.0873 56.1051 53.7976 53.8223 44.6197Z" fill="white"/>
<path d="M25.2169 7.72498V9.63018H25.5587C25.911 9.63018 26.065 9.44873 26.065 9.12381V8.22079C26.065 7.88744 25.911 7.72498 25.5587 7.72498H25.2169ZM25.2169 10.1977V13.0059H24.1873V6.88525H25.6853C26.7233 6.88525 27.1031 7.40006 27.1031 8.25666V9.04364C27.1031 9.70191 26.8689 10.0901 26.2823 10.2252L27.2655 13.0059H26.1832" fill="white"/>
<path d="M27.7444 6.88525H30.1981V7.72498H28.7719V9.47616H29.7931V10.3053H28.7719V12.1662H30.1981V13.0059H27.7444" fill="white"/>
<path d="M32.3038 12.1662C32.7258 12.1662 32.8883 11.913 32.8883 11.5438V8.33895C32.8883 7.97816 32.7258 7.72498 32.3038 7.72498H31.8692V12.1662H32.3038ZM33.9179 8.52883V11.3624C33.9179 12.3013 33.5297 13.0059 32.4283 13.0059H30.8396V6.88525H32.4283C33.5297 6.88525 33.9179 7.5794 33.9179 8.52883Z" fill="white"/>
<path d="M37.5828 6.88525V11.5164C37.5828 12.4637 37.1777 13.0777 36.1312 13.0777C35.0467 13.0777 34.5952 12.4637 34.5952 11.5164V6.88525H35.6248V11.6156C35.6248 11.9763 35.7683 12.2211 36.1312 12.2211C36.492 12.2211 36.6354 11.9763 36.6354 11.6156V6.88525" fill="white"/>
<path d="M39.3529 13.6283C39.642 13.6199 39.6863 13.5566 39.6863 13.4848C39.6863 13.4215 39.6335 13.3857 39.5428 13.3857H39.4964V13.0502C38.6208 12.9426 38.26 12.2822 38.26 11.4256V8.46549C38.26 7.50762 38.7115 6.81348 39.7939 6.81348C40.9332 6.81348 41.2476 7.44432 41.2476 8.34734V9.07102H40.3087V8.26717C40.3087 7.88739 40.1821 7.67008 39.8129 7.67008C39.4436 7.67008 39.2896 7.9317 39.2896 8.30304V11.5881C39.2896 11.9594 39.4436 12.221 39.8129 12.221C40.1821 12.221 40.3087 11.9847 40.3087 11.624V10.4952H41.2476V11.5522C41.2476 12.4109 40.9058 13.0418 39.8846 13.0776V13.1599C40.1293 13.1958 40.2644 13.2865 40.2644 13.4848C40.2644 13.7633 40.0028 13.9174 39.3529 13.9174" fill="white"/>
<path d="M43.0261 11.0644H43.8489L43.4417 8.60856H43.4333L43.0261 11.0644ZM42.5387 6.64217C42.5577 6.21598 42.7202 5.87207 43.1717 5.87207C43.4333 5.87207 43.6485 6.02609 43.7856 6.02609C43.8574 6.02609 43.9101 5.98178 43.9101 5.89106H44.4165C44.3996 6.31514 44.235 6.65905 43.7856 6.65905C43.5219 6.65905 43.3067 6.50503 43.1717 6.50503C43.0978 6.50503 43.0451 6.55144 43.0451 6.64217H42.5387ZM41.7349 13.0055L42.8911 6.8848H44.0641L45.2288 13.0055H44.1717L43.984 11.8873H42.8911L42.7096 13.0055" fill="white"/>
<path d="M47.8282 11.5881V8.30304C47.8282 7.9317 47.6657 7.67008 47.2965 7.67008C46.9357 7.67008 46.7733 7.9317 46.7733 8.30304V11.5881C46.7733 11.9594 46.9357 12.2189 47.2965 12.2189C47.6657 12.2189 47.8282 11.9594 47.8282 11.5881ZM45.7437 11.4256V8.46549C45.7437 7.50762 46.212 6.81348 47.2965 6.81348C48.3894 6.81348 48.8578 7.50762 48.8578 8.46549V11.4256C48.8578 12.373 48.3894 13.0776 47.2965 13.0776C46.212 13.0776 45.7437 12.373 45.7437 11.4256Z" fill="white"/>
<path d="M52.0351 12.1662C52.4592 12.1662 52.6217 11.913 52.6217 11.5438V8.33895C52.6217 7.97816 52.4592 7.72498 52.0351 7.72498H51.6005V12.1662H52.0351ZM53.6513 8.52883V11.3624C53.6513 12.3013 53.2631 13.0059 52.1617 13.0059H50.573V6.88525H52.1617C53.2631 6.88525 53.6513 7.5794 53.6513 8.52883Z" fill="white"/>
<path d="M55.4553 11.0649H56.2781L55.873 8.60901H55.8625L55.4553 11.0649ZM54.1641 13.0059L55.3203 6.88525H56.4955L57.658 13.0059H56.6031L56.4132 11.8877H55.3203L55.1409 13.0059" fill="white"/>
<path d="M58.1201 11.6872V10.8665H59.0759V11.7062C59.0759 12.048 59.2299 12.2464 59.5822 12.2464C59.9072 12.2464 60.0506 12.0312 60.0506 11.7062V11.4699C60.0506 11.1197 59.9072 10.9024 59.5907 10.6049L58.9852 9.99936C58.3986 9.42126 58.1286 9.06891 58.1286 8.36633V8.15746C58.1286 7.40002 58.5695 6.81348 59.5717 6.81348C60.6013 6.81348 61.0085 7.31773 61.0085 8.20387V8.69969H60.0696V8.168C60.0696 7.81566 59.9072 7.64265 59.5822 7.64265C59.2932 7.64265 59.0949 7.80511 59.0949 8.14902V8.27561C59.0949 8.6174 59.2826 8.81573 59.5822 9.10478L60.2405 9.75673C60.7996 10.3243 61.0718 10.6661 61.0718 11.3454V11.6429C61.0718 12.4827 60.6203 13.0776 59.5717 13.0776C58.5252 13.0776 58.1201 12.4911 58.1201 11.6872Z" fill="white"/>
<path d="M25.6494 20.9325C26.0735 20.9325 26.2359 20.6793 26.2359 20.308V17.1031C26.2359 16.7423 26.0735 16.4891 25.6494 16.4891H25.2169V20.9325H25.6494ZM27.2655 17.293V20.1286C27.2655 21.0675 26.8773 21.7722 25.776 21.7722H24.1873V15.6494H25.776C26.8773 15.6494 27.2655 16.3457 27.2655 17.293Z" fill="white"/>
<path d="M27.9238 15.6494H30.3797V16.4891H28.9534V18.2403H29.9725V19.0716H28.9534V20.9325H30.3797V21.7722H27.9238" fill="white"/>
<path d="M30.9387 20.4535V19.6307H31.8945V20.4704C31.8945 20.8143 32.0485 21.0126 32.4009 21.0126C32.7258 21.0126 32.8713 20.7953 32.8713 20.4704V20.2362C32.8713 19.8839 32.7258 19.6665 32.4114 19.3691L31.8059 18.7656C31.2193 18.1875 30.9472 17.8352 30.9472 17.1305V16.9216C30.9472 16.1642 31.3902 15.5776 32.3924 15.5776C33.422 15.5776 33.8271 16.084 33.8271 16.968V17.4638H32.8882V16.9322C32.8882 16.5798 32.7258 16.4089 32.4009 16.4089C32.1118 16.4089 31.9135 16.5714 31.9135 16.9132V17.0398C31.9135 17.3837 32.1034 17.582 32.4009 17.8711L33.0612 18.5209C33.6203 19.0905 33.8904 19.4323 33.8904 20.1096V20.4071C33.8904 21.2468 33.4389 21.8418 32.3924 21.8418C31.3459 21.8418 30.9387 21.2553 30.9387 20.4535Z" fill="white"/>
<path d="M34.5044 21.7722H35.534V15.6494H34.5044V21.7722Z" fill="white"/>
<path d="M37.7536 18.504H39.2179V21.7722H38.4773V21.1012C38.3423 21.5633 38.0532 21.8418 37.492 21.8418C36.608 21.8418 36.2029 21.1392 36.2029 20.1919V17.2297C36.2029 16.2739 36.6628 15.5776 37.7452 15.5776C38.8824 15.5776 39.2179 16.2085 39.2179 17.1136V17.6537H38.279V17.0313C38.279 16.6516 38.1334 16.4342 37.7642 16.4342C37.3928 16.4342 37.2304 16.698 37.2304 17.0672V20.3544C37.2304 20.7236 37.3844 20.9852 37.7367 20.9852C38.0701 20.9852 38.241 20.7953 38.241 20.3987V19.3142H37.7536" fill="white"/>
<path d="M42.8638 15.6494V20.2827C42.8638 21.23 42.4587 21.8418 41.4101 21.8418C40.3277 21.8418 39.8762 21.23 39.8762 20.2827V15.6494H40.9058V20.3797C40.9058 20.7426 41.0493 20.9852 41.4101 20.9852C41.7709 20.9852 41.9165 20.7426 41.9165 20.3797V15.6494" fill="white"/>
<path d="M44.6423 19.8312H45.463L45.0579 17.3753H45.0474L44.6423 19.8312ZM43.3511 21.7722L44.5073 15.6494H45.6804L46.845 21.7722H45.788L45.5981 20.6519H44.5073L44.3258 21.7722" fill="white"/>
<path d="M47.3408 15.6494H48.3704V20.9325H49.5984V21.7722H47.3408" fill="white"/>
<path d="M51.6027 20.9325C52.0267 20.9325 52.1892 20.6793 52.1892 20.308V17.1031C52.1892 16.7423 52.0267 16.4891 51.6027 16.4891H51.168V20.9325H51.6027ZM53.2167 17.293V20.1286C53.2167 21.0675 52.8285 21.7722 51.7272 21.7722H50.1384V15.6494H51.7272C52.8285 15.6494 53.2167 16.3457 53.2167 17.293Z" fill="white"/>
<path d="M55.0037 19.8312H55.8266L55.4215 17.3753H55.4109L55.0037 19.8312ZM53.7146 21.7722L54.8687 15.6494H56.0439L57.2064 21.7722H56.1515L55.9616 20.6519H54.8687L54.6894 21.7722" fill="white"/>
<path d="M59.1665 20.9325C59.5906 20.9325 59.753 20.6793 59.753 20.308V17.1031C59.753 16.7423 59.5906 16.4891 59.1665 16.4891H58.7318V20.9325H59.1665ZM60.7805 17.293V20.1286C60.7805 21.0675 60.3944 21.7722 59.2931 21.7722H57.7043V15.6494H59.2931C60.3944 15.6494 60.7805 16.3457 60.7805 17.293Z" fill="white"/>
<path d="M61.4409 15.6494H63.8968V16.4891H62.4684V18.2403H63.4896V19.0716H62.4684V20.9325H63.8968V21.7722H61.4409" fill="white"/>
<path d="M64.4561 20.4535V19.6307H65.4118V20.4704C65.4118 20.8143 65.5658 21.0126 65.9182 21.0126C66.2431 21.0126 66.3887 20.7953 66.3887 20.4704V20.2362C66.3887 19.8839 66.2431 19.6665 65.9287 19.3691L65.3232 18.7656C64.7367 18.1875 64.4666 17.8352 64.4666 17.1305V16.9216C64.4666 16.1642 64.9076 15.5776 65.9097 15.5776C66.9394 15.5776 67.3444 16.084 67.3444 16.968V17.4638H66.4056V16.9322C66.4056 16.5798 66.2431 16.4089 65.9182 16.4089C65.6291 16.4089 65.4308 16.5714 65.4308 16.9132V17.0398C65.4308 17.3837 65.6207 17.582 65.9182 17.8711L66.5786 18.5209C67.1377 19.0905 67.4077 19.4323 67.4077 20.1096V20.4071C67.4077 21.2468 66.9562 21.8418 65.9097 21.8418C64.8633 21.8418 64.4561 21.2553 64.4561 20.4535Z" fill="white"/>
</svg>
