<svg width="100%" height="100%" viewBox="0 0 75 75" fill="none" xmlns="http://www.w3.org/2000/svg">
<path d="M0.419678 74.0465H74.1592V0.302734H0.419678V74.0465Z" fill="#0B6495A6" stroke-width="4" stroke="#0B6495"/>
<path d="M6.09302 9.18728V11.7972H6.11623L7.86952 9.97636H7.89273V21.3569H10.3929V6.48877H8.39698" fill="white"/>
<path d="M16.6653 18.0026C16.6653 18.9457 16.313 19.4942 15.4585 19.4942C14.6251 19.4942 14.296 18.9246 14.296 18.0026V15.283C14.3403 14.4496 14.6905 13.9242 15.4817 13.9242C16.3341 13.9242 16.6653 14.4496 16.6653 15.4159V18.0026ZM19.1423 17.7831V15.591C19.1423 13.1562 18.1781 11.9283 16.3805 11.9283C15.3256 11.9283 14.6905 12.4115 14.3192 13.1351H14.296V9.93237C14.296 9.03357 14.5808 8.39639 15.4817 8.39639C16.3805 8.39639 16.6421 8.92386 16.6421 9.84376V10.8333H18.9229V10.0421C18.9229 7.84994 18.2013 6.31396 15.4353 6.31396C12.8043 6.31396 11.8169 8.00396 11.8169 10.329V17.5637C11.8169 19.8656 12.8275 21.5345 15.4585 21.5345C18.1106 21.5345 19.1423 20.0871 19.1423 17.7831Z" fill="white"/>
<path d="M52.0309 25.4458C52.0309 25.4458 51.1807 26.5767 51.4275 27.6759C51.6765 28.7752 52.9297 29.4292 52.9297 29.4292C52.9297 29.4292 53.78 28.3004 53.5332 27.2012C53.2842 26.102 52.0309 25.4458 52.0309 25.4458Z" fill="white"/>
<path d="M50.6469 31.8936C50.6469 31.8936 51.4951 30.7648 51.2482 29.6634C50.9993 28.5642 49.746 27.9102 49.746 27.9102C49.746 27.9102 48.8958 29.0389 49.1426 30.1382C49.3916 31.2374 50.6469 31.8936 50.6469 31.8936Z" fill="white"/>
<path d="M54.1387 30.6846C54.1387 30.6846 55.0375 31.5897 56.0586 31.499C57.0819 31.4083 57.8394 30.3555 57.8394 30.3555C57.8394 30.3555 56.9427 29.4503 55.9194 29.5411C54.8982 29.6318 54.1387 30.6846 54.1387 30.6846Z" fill="white"/>
<path d="M55.6091 25.849C54.7778 26.6929 54.8959 28.1867 54.8959 28.1867C54.8959 28.1867 56.3623 28.3133 57.1957 27.4693C58.0248 26.6275 57.9088 25.1337 57.9088 25.1337C57.9088 25.1337 56.4403 25.0071 55.6091 25.849Z" fill="white"/>
<path d="M53.7757 34.0395C54.7927 34.1597 55.7505 33.2863 55.7505 33.2863C55.7505 33.2863 55.0564 32.2166 54.0394 32.0963C53.0204 31.976 52.0625 32.8516 52.0625 32.8516C52.0625 32.8516 52.7566 33.9192 53.7757 34.0395Z" fill="white"/>
<path d="M54.685 51.7324H47.0706C46.4756 51.7324 45.9924 52.2135 45.9924 52.8084C45.9924 53.4055 46.4756 53.8866 47.0706 53.8866H54.685C55.28 53.8866 55.7611 53.4055 55.7611 52.8084C55.7611 52.2135 55.28 51.7324 54.685 51.7324Z" fill="white"/>
<path d="M54.685 63.605H47.0706C46.4756 63.605 45.9924 64.086 45.9924 64.681C45.9924 65.276 46.4756 65.7591 47.0706 65.7591H54.685C55.28 65.7591 55.7611 65.276 55.7611 64.681C55.7611 64.086 55.28 63.605 54.685 63.605Z" fill="white"/>
<path d="M20.4483 49.1184C20.2689 49.0636 20.0917 49.015 19.9187 48.9834C19.9187 48.9834 20.1149 49.0446 20.4483 49.1184Z" fill="white"/>
<path d="M32.7847 53.7792C33.2868 53.7877 33.7911 53.7729 34.2953 53.7391V57.7162L32.7847 57.6803V53.7792ZM54.4044 54.64H47.349C47.0114 54.64 46.7372 54.9143 46.7372 55.2519V57.3892L42.1313 57.8955L35.4051 57.7415V53.6315C36.2976 53.5176 37.1922 53.3404 38.0804 53.0893C44.5556 51.2622 45.9692 45.9073 45.8278 42.2024C45.6886 38.43 46.8954 36.9637 48.6297 36.3117C49.1255 36.126 49.6171 36.0079 50.0665 35.9319C50.0855 36.8582 50.2733 37.9363 50.6889 39.2191C50.8429 39.2106 50.9948 39.198 51.1489 39.1811C50.71 37.8688 50.5243 36.7885 50.5138 35.8665C51.4105 35.761 52.0498 35.8201 52.0498 35.8201C52.0498 35.8201 51.4442 35.4952 50.5876 34.7799C50.8788 32.9929 51.9443 31.8958 53.0393 30.7754C53.6406 30.1573 54.2651 29.5201 54.7567 28.7605L54.3748 28.5137C53.9086 29.2352 53.2988 29.8555 52.7144 30.4569C51.6447 31.5519 50.5644 32.668 50.1994 34.4424C49.8513 34.128 49.4757 33.7588 49.0896 33.3263C47.4925 31.535 45.4375 32.8515 42.5069 35.5817C39.5721 38.3097 35.884 38.4026 32.2825 34.7167C27.5311 29.8513 23.3853 29.8787 20.5412 30.1551C22.4865 30.9822 23.1679 32.8009 24.1511 37.4194C25.1829 42.2657 27.7843 44.46 31.3436 44.7617C29.3646 45.4622 29.2654 46.5783 26.6133 48.4096C24.5415 49.8401 21.6299 49.3865 20.4483 49.1185C22.6152 49.7958 25.185 52.0702 27.4826 52.8614C28.8202 53.3214 30.2317 53.6083 31.677 53.7222V57.655L19.6255 57.3807V60.1236L42.1313 59.6087L46.7372 60.1172V62.2524C46.7372 62.59 47.0114 62.8643 47.349 62.8643H54.4044C54.742 62.8643 55.0183 62.59 55.0183 62.2524V55.2519C55.0183 54.9143 54.742 54.64 54.4044 54.64Z" fill="white"/>
<path d="M18.9651 59.6698C18.9651 60.25 18.5621 60.7184 18.0641 60.7184H17.5219C17.024 60.7184 16.6189 60.25 16.6189 59.6698V57.7731C16.6189 57.195 17.024 56.7266 17.5219 56.7266H18.0641C18.5621 56.7266 18.9651 57.195 18.9651 57.7731" fill="white"/>
<path d="M24.9782 5.9296V8.30319H25.3517C25.6977 8.30319 25.8475 8.1344 25.8475 7.80527V6.41909C25.8475 6.08995 25.6977 5.9296 25.3517 5.9296H24.9782ZM23.9634 5.10254H25.4656C26.4889 5.10254 26.8623 5.6089 26.8623 6.45496V7.72509C26.8623 8.57114 26.4889 9.08595 25.4656 9.08595H24.9782V11.1304H23.9634" fill="white"/>
<path d="M28.4004 9.21887H29.2085L28.8097 6.80097H28.7992L28.4004 9.21887ZM27.1282 11.1304L28.2675 5.10254H29.4237L30.5694 11.1304H29.5292L29.3414 10.0269H28.2675L28.0882 11.1304" fill="white"/>
<path d="M31.8837 10.3033H33.4218V11.1304H30.8267V10.3033L32.4175 5.9296H30.987V5.10254H33.4851V5.9296" fill="white"/>
<path d="M34.96 10.2402L34.4451 11.601H33.8755L34 10.1621H34.96" fill="white"/>
<path d="M38.9771 5.10254V9.7611C38.9771 10.6325 38.5973 11.2 37.5825 11.2C36.5339 11.2 36.249 10.6219 36.249 9.85816V8.65765H37.2111V9.87715C37.2111 10.1789 37.3166 10.3561 37.5825 10.3561C37.8588 10.3561 37.9643 10.1789 37.9643 9.8666V5.10254" fill="white"/>
<path d="M42.4015 5.10254V9.66194C42.4015 10.5966 42.0006 11.2 40.971 11.2C39.9034 11.2 39.4583 10.5966 39.4583 9.66194V5.10254H40.4731V9.7611C40.4731 10.1156 40.6145 10.3561 40.971 10.3561C41.3255 10.3561 41.4668 10.1156 41.4668 9.7611V5.10254" fill="white"/>
<path d="M42.8276 9.83313V9.02294H43.7686V9.85001C43.7686 10.1876 43.9205 10.3838 44.2687 10.3838C44.5873 10.3838 44.7286 10.1707 44.7286 9.85001V9.61792C44.7286 9.27191 44.5873 9.05881 44.2771 8.76554L43.68 8.17056C43.104 7.6009 42.8361 7.25488 42.8361 6.56074V6.35608C42.8361 5.60919 43.2707 5.0332 44.2581 5.0332C45.2709 5.0332 45.6717 5.53113 45.6717 6.40039V6.88988H44.7476V6.36663C44.7476 6.01851 44.5873 5.84972 44.2687 5.84972C43.9838 5.84972 43.7876 6.01007 43.7876 6.34764V6.47213C43.7876 6.8097 43.9733 7.00592 44.2687 7.29075L44.9164 7.93004C45.4671 8.48915 45.735 8.82884 45.735 9.49555V9.78882C45.735 10.6138 45.2898 11.2003 44.2581 11.2003C43.2264 11.2003 42.8276 10.6222 42.8276 9.83313Z" fill="white"/>
<path d="M46.0642 5.10254H48.7564V5.9296H47.9209V11.1304H46.8997V5.9296H46.0642" fill="white"/>
<path d="M49.1404 11.1304H50.1531V5.10254H49.1404V11.1304Z" fill="white"/>
<path d="M51.7165 11.7425C52.0013 11.7341 52.0456 11.6729 52.0456 11.6012C52.0456 11.5379 51.9929 11.5041 51.9043 11.5041H51.86V11.175C50.997 11.0674 50.6426 10.4197 50.6426 9.57362V6.6599C50.6426 5.7168 51.0856 5.0332 52.1532 5.0332C53.2736 5.0332 53.5837 5.6535 53.5837 6.54386V7.25488H52.6596V6.46369C52.6596 6.09024 52.5351 5.87715 52.1701 5.87715C51.8051 5.87715 51.6553 6.13455 51.6553 6.49955V9.73396C51.6553 10.099 51.8051 10.3564 52.1701 10.3564C52.5351 10.3564 52.6596 10.1264 52.6596 9.76983V8.65794H53.5837V9.6981C53.5837 10.5442 53.2461 11.1666 52.2418 11.2003V11.2805C52.4803 11.3164 52.6153 11.405 52.6153 11.6012C52.6153 11.8776 52.3579 12.0274 51.7165 12.0274" fill="white"/>
<path d="M55.1577 9.21887H55.9658L55.5671 6.80097H55.5565L55.1577 9.21887ZM53.8855 11.1304L55.0227 5.10254H56.181L57.3267 11.1304H56.2865L56.1008 10.0269H55.0227L54.8476 11.1304" fill="white"/>
<path d="M58.4998 5.10254H60.9177V5.9296H59.5125V7.65336H60.5189V8.47198H59.5125V10.3033H60.9177V11.1304H58.4998" fill="white"/>
<path d="M23.9993 19.0511H25.0141V13.0254H23.9993V19.0511Z" fill="white"/>
<path d="M26.5333 15.2639V19.0511H25.6809V13.0254H26.6747L27.7697 16.4813V13.0254H28.6136V19.0511H27.7233" fill="white"/>
<path d="M29.217 17.7535V16.9434H30.1601V17.7704C30.1601 18.108 30.3099 18.3042 30.6581 18.3042C30.9788 18.3042 31.1201 18.0911 31.1201 17.7704V17.5383C31.1201 17.1923 30.9788 16.9792 30.6665 16.686L30.0715 16.091C29.4934 15.5213 29.2276 15.1753 29.2276 14.4811V14.2765C29.2276 13.5317 29.6622 12.9536 30.6475 12.9536C31.6624 12.9536 32.0632 13.4515 32.0632 14.3208V14.8103H31.137V14.287C31.137 13.9389 30.9788 13.7701 30.6581 13.7701C30.3732 13.7701 30.177 13.9305 30.177 14.2681V14.3925C30.177 14.7301 30.3648 14.9263 30.6581 15.2112L31.3079 15.8504C31.8586 16.4117 32.1244 16.7492 32.1244 17.416V17.7092C32.1244 18.5342 31.6792 19.1228 30.6475 19.1228C29.6179 19.1228 29.217 18.5447 29.217 17.7535Z" fill="white"/>
<path d="M32.6223 13.0254H35.3166V13.8503H34.4811V19.0511H33.4578V13.8503H32.6223" fill="white"/>
<path d="M35.8672 19.0511H36.8799V13.0254H35.8672V19.0511Z" fill="white"/>
<path d="M37.4326 13.0254H40.1248V13.8503H39.2893V19.0511H38.2681V13.8503H37.4326" fill="white"/>
<path d="M43.6188 13.0254V17.5848C43.6188 18.5173 43.2179 19.1229 42.1883 19.1229C41.1207 19.1229 40.6755 18.5173 40.6755 17.5848V13.0254H41.6904V17.6818C41.6904 18.0384 41.8317 18.2768 42.1883 18.2768C42.5428 18.2768 42.6841 18.0384 42.6841 17.6818V13.0254" fill="white"/>
<path d="M44.2686 19.0511H45.2813V13.0254H44.2686V19.0511Z" fill="white"/>
<path d="M47.0157 19.6651C47.2984 19.6545 47.3428 19.5933 47.3428 19.5216C47.3428 19.4604 47.29 19.4245 47.2014 19.4245H47.1571V19.0954C46.2963 18.9878 45.9397 18.3401 45.9397 17.494V14.5803C45.9397 13.6372 46.3828 12.9536 47.4504 12.9536C48.5707 12.9536 48.8808 13.576 48.8808 14.4643V15.1753H47.9567V14.3841C47.9567 14.0107 47.8322 13.7976 47.4672 13.7976C47.1043 13.7976 46.9524 14.055 46.9524 14.42V17.6544C46.9524 18.0194 47.1043 18.2768 47.4672 18.2768C47.8322 18.2768 47.9567 18.0468 47.9567 17.6902V16.5805H48.8808V17.6206C48.8808 18.4646 48.5433 19.087 47.539 19.1228V19.2009C47.7795 19.2368 47.9124 19.3254 47.9124 19.5216C47.9124 19.798 47.655 19.9478 47.0157 19.9478" fill="white"/>
<path d="M51.5666 17.6563V14.4198C51.5666 14.0548 51.4062 13.7974 51.0412 13.7974C50.6868 13.7974 50.5264 14.0548 50.5264 14.4198V17.6563C50.5264 18.0192 50.6868 18.2766 51.0412 18.2766C51.4062 18.2766 51.5666 18.0192 51.5666 17.6563ZM50.1171 12.7825C50.134 12.3669 50.2943 12.0293 50.7395 12.0293C50.9969 12.0293 51.21 12.1791 51.3429 12.1791C51.4147 12.1791 51.4674 12.1348 51.4674 12.0462H51.9653C51.9484 12.4639 51.7881 12.8015 51.3429 12.8015C51.0855 12.8015 50.8724 12.6496 50.7395 12.6496C50.6678 12.6496 50.615 12.696 50.615 12.7825H50.1171ZM49.5137 17.4938V14.5801C49.5137 13.637 49.9736 12.9534 51.0412 12.9534C52.1172 12.9534 52.5793 13.637 52.5793 14.5801V17.4938C52.5793 18.4285 52.1172 19.1226 51.0412 19.1226C49.9736 19.1226 49.5137 18.4285 49.5137 17.4938Z" fill="white"/>
<path d="M53.2378 13.0254H55.6557V13.8503H54.2505V15.5762H55.2548V16.3927H54.2505V18.2241H55.6557V19.0511H53.2378" fill="white"/>
<path d="M56.2231 17.7535V16.9434H57.1663V17.7704C57.1663 18.108 57.3161 18.3042 57.6642 18.3042C57.9849 18.3042 58.1262 18.0911 58.1262 17.7704V17.5383C58.1262 17.1923 57.9849 16.9792 57.6726 16.686L57.0776 16.091C56.4995 15.5213 56.2337 15.1753 56.2337 14.4811V14.2765C56.2337 13.5317 56.6683 12.9536 57.6557 12.9536C58.6685 12.9536 59.0693 13.4515 59.0693 14.3208V14.8103H58.1452V14.287C58.1452 13.9389 57.9849 13.7701 57.6642 13.7701C57.3793 13.7701 57.1831 13.9305 57.1831 14.2681V14.3925C57.1831 14.7301 57.3709 14.9263 57.6642 15.2112L58.314 15.8504C58.8647 16.4117 59.1305 16.7492 59.1305 17.416V17.7092C59.1305 18.5342 58.6853 19.1228 57.6557 19.1228C56.624 19.1228 56.2231 18.5447 56.2231 17.7535Z" fill="white"/>
<path d="M23.9993 21.2725H26.4172V22.0995H25.0141V23.8254H26.0184V24.6419H25.0141V26.4733H26.4172V27.3003H23.9993" fill="white"/>
<path d="M27.0312 21.2725H29.4048V22.0995H28.044V23.8254H29.0588V24.6419H28.044V27.3003H27.0312" fill="white"/>
<path d="M29.928 27.3007H30.9428V21.2749H29.928V27.3007Z" fill="white"/>
<path d="M31.6096 25.7456V22.8298C31.6096 21.8867 32.0527 21.2031 33.1203 21.2031C34.2406 21.2031 34.5508 21.8255 34.5508 22.7138V23.4248H33.6266V22.6336C33.6266 22.2602 33.5022 22.0471 33.1372 22.0471C32.7743 22.0471 32.6224 22.3045 32.6224 22.6695V25.9039C32.6224 26.2689 32.7743 26.5263 33.1372 26.5263C33.5022 26.5263 33.6266 26.2963 33.6266 25.9398V24.83H34.5508V25.8701C34.5508 26.731 34.1963 27.3723 33.1203 27.3723C32.0527 27.3723 31.6096 26.6782 31.6096 25.7456Z" fill="white"/>
<path d="M36.2933 25.3888H37.1035L36.7026 22.9709H36.6942L36.2933 25.3888ZM35.0232 27.3003L36.1604 21.2725H37.3166L38.4644 27.3003H37.4221L37.2364 26.1969H36.1604L35.9832 27.3003" fill="white"/>
<path d="M39.9476 26.4733H41.4857V27.3003H38.8884V26.4733L40.4793 22.0995H39.0488V21.2725H41.5468V22.0995" fill="white"/>
<path d="M42.1526 21.2725H44.5705V22.0995H43.1653V23.8254H44.1696V24.6419H43.1653V26.4733H44.5705V27.3003H42.1526" fill="white"/>
<path d="M45.1401 26.0031V25.195H46.0811V26.0199C46.0811 26.3575 46.233 26.5537 46.5791 26.5537C46.8976 26.5537 47.0411 26.3406 47.0411 26.0199V25.79C47.0411 25.4439 46.8976 25.2287 46.5875 24.9355L45.9925 24.3405C45.4144 23.7708 45.1486 23.4248 45.1486 22.7307V22.526C45.1486 21.7812 45.5832 21.2031 46.5706 21.2031C47.5834 21.2031 47.9842 21.7011 47.9842 22.5724V23.0619H47.0601V22.5366C47.0601 22.1884 46.8976 22.0217 46.5791 22.0217C46.2963 22.0217 46.1001 22.18 46.1001 22.5176V22.642C46.1001 22.9796 46.2858 23.1758 46.5791 23.4607L47.2268 24.1C47.7796 24.6612 48.0454 24.9988 48.0454 25.6655V25.9587C48.0454 26.7858 47.6023 27.3723 46.5706 27.3723C45.5389 27.3723 45.1401 26.7942 45.1401 26.0031Z" fill="white"/>
</svg>
