<svg width="100%" height="100%" viewBox="0 0 75 75" fill="none" xmlns="http://www.w3.org/2000/svg">
<path d="M0.322754 74.4638H74.0623V0.722168H0.322754V74.4638Z" fill="#991E41A6" stroke-width="4" stroke="#991E41"/>
<path d="M12.1508 18.3943C12.1508 19.2952 11.8216 19.9303 10.9228 19.9303C10.0451 19.9303 9.716 19.2952 9.716 18.3943V15.9827C9.716 15.0839 10.0451 14.4489 10.9228 14.4489C11.8216 14.4489 12.1508 15.0839 12.1508 15.9827V18.3943ZM9.80251 10.1722C9.80251 9.27128 10.1127 8.74592 10.9228 8.74592C11.7562 8.74592 12.0643 9.27128 12.0643 10.1722V11.1807C12.0643 12.0795 11.7562 12.607 10.9228 12.607C10.1127 12.607 9.80251 12.0795 9.80251 11.1807V10.1722ZM14.651 18.1327V16.5081C14.651 15.0839 14.1467 14.0522 12.9842 13.5269C13.9695 13.0458 14.4315 12.1681 14.4315 10.9402V10.3262C14.4315 8.00115 13.2247 6.75 10.9228 6.75C8.64208 6.75 7.45845 8.00115 7.45845 10.3262V10.9402C7.45845 12.1449 7.8973 13.0458 8.8594 13.5269C7.69898 14.0522 7.21582 15.0839 7.21582 16.5081V18.1327C7.21582 20.3923 8.29185 21.9705 10.9228 21.9705C13.5749 21.9705 14.651 20.3923 14.651 18.1327Z" fill="white"/>
<path d="M51.183 37.001L43.6888 44.1302C43.4061 44.4129 43.2605 44.6197 43.2605 45.202V65.1845C43.2605 65.4187 43.4525 65.6107 43.6888 65.6107H51.432C51.6662 65.6107 51.8582 65.4187 51.8582 65.1845V37.1803C51.8582 36.944 51.6725 36.5157 51.183 37.001Z" fill="white"/>
<path d="M29.5928 46.291L22.0965 53.4202C21.8138 53.7008 21.6682 53.9075 21.6682 54.4899V65.1847C21.6682 65.4189 21.8602 65.6109 22.0965 65.6109H29.8397C30.0739 65.6109 30.2659 65.4189 30.2659 65.1847V46.4703C30.2659 46.234 30.0802 45.8015 29.5928 46.291Z" fill="white"/>
<path d="M54.5906 28.355C54.5927 28.298 54.5737 28.2368 54.5273 28.1925C54.4872 28.1546 54.4366 28.1356 54.388 28.1313L54.3479 28.1356L54.2868 28.1377L48.5479 29.4331L48.4424 29.4437C48.4024 29.4521 48.3623 29.4711 48.3306 29.5028C48.2462 29.5871 48.2462 29.7264 48.3306 29.8108L48.396 29.8741L49.7063 31.1864L36.7011 44.1895L30.6964 38.1827C30.6289 38.1152 30.5192 38.1152 30.4517 38.1827L28.8208 39.8136V39.8157L19.1914 49.443C19.126 49.5105 19.126 49.6202 19.1914 49.6878L20.8244 51.3187C20.8898 51.3862 20.9995 51.3862 21.0671 51.3187L30.5741 41.8117L34.933 46.1706C34.9373 46.177 34.9394 46.1854 34.9478 46.1917L36.5787 47.8205C36.6441 47.8881 36.7538 47.8881 36.8214 47.8205L51.5819 33.06L52.9575 34.4356C53.0419 34.5221 53.1791 34.5221 53.2635 34.4356C53.3036 34.3955 53.3225 34.347 53.3247 34.2964L53.3268 34.2774L54.5864 28.4183" fill="white"/>
<path d="M40.4291 47.5418L36.8043 51.1982C36.7347 51.2531 36.6334 51.2531 36.5701 51.1877L33.2851 47.8393C32.6838 47.2401 32.553 47.7254 32.553 47.9617V65.1845C32.553 65.4186 32.7429 65.6106 32.9771 65.6106H40.7223C40.9565 65.6106 41.1464 65.4186 41.1464 65.1845V47.6769C41.1464 47.4406 40.9629 47.008 40.4291 47.5418Z" fill="white"/>
<path d="M19.1091 6.43555H21.8034V7.26261H20.9658V12.4634H19.9446V7.26261H19.1091" fill="white"/>
<path d="M23.3498 7.26261V9.13827H23.6874C24.0334 9.13827 24.1853 8.96105 24.1853 8.64035V7.74999C24.1853 7.42296 24.0334 7.26261 23.6874 7.26261H23.3498ZM23.3498 9.69739V12.4613H22.335V6.43555H23.8119C24.833 6.43555 25.2065 6.94191 25.2065 7.78586V8.56017C25.2065 9.2079 24.9765 9.59189 24.3984 9.72481L25.3668 12.4613H24.2992" fill="white"/>
<path d="M26.9239 10.5519H27.7319L27.3311 8.13187H27.3226L26.9239 10.5519ZM25.6516 12.4634L26.7888 6.43555H27.945L29.0928 12.4634H28.0505L27.8649 11.36H26.7888L26.6116 12.4634" fill="white"/>
<path d="M30.5845 9.75224V11.6363H31.0297C31.3673 11.6363 31.5276 11.4676 31.5276 11.1469V10.2396C31.5276 9.92103 31.3757 9.75224 31.0212 9.75224H30.5845ZM30.5845 8.97792H30.9411C31.2702 8.97792 31.42 8.80914 31.42 8.48844V7.7521C31.42 7.42296 31.2702 7.26261 30.9326 7.26261H30.5845V8.97792ZM29.5718 6.43555H31.0381C32.0509 6.43555 32.3884 6.90605 32.3884 7.76054V8.37451C32.3884 8.88087 32.2028 9.19946 31.785 9.33238C32.2914 9.44842 32.5403 9.786 32.5403 10.3388V11.1384C32.5403 11.9908 32.1585 12.4634 31.1457 12.4634H29.5718" fill="white"/>
<path d="M34.2198 10.5519H35.03L34.6292 8.13187H34.6207L34.2198 10.5519ZM32.9497 12.4634L34.0869 6.43555H35.2431L36.3909 12.4634H35.3486L35.1629 11.36H34.0869L33.9097 12.4634" fill="white"/>
<path d="M36.8699 6.43555H37.8826V11.6363H39.0916V12.4634H36.8699" fill="white"/>
<path d="M41.6086 9.80499H40.6297V12.4613H39.6169V6.43555H40.6297V8.98636H41.6086V6.43555H42.6298V12.4613H41.6086" fill="white"/>
<path d="M45.324 11.0666V7.83012C45.324 7.46722 45.1637 7.20771 44.7987 7.20771C44.4442 7.20771 44.2839 7.46722 44.2839 7.83012V11.0666C44.2839 11.4316 44.4442 11.689 44.7987 11.689C45.1637 11.689 45.324 11.4316 45.324 11.0666ZM43.269 10.9063V7.99047C43.269 7.04947 43.7332 6.36377 44.7987 6.36377C45.8747 6.36377 46.3368 7.04947 46.3368 7.99047V10.9063C46.3368 11.841 45.8747 12.533 44.7987 12.533C43.7332 12.533 43.269 11.841 43.269 10.9063Z" fill="white"/>
<path d="M49.413 11.6363C49.8307 11.6363 49.9911 11.3874 49.9911 11.0224V7.86603C49.9911 7.51157 49.8307 7.26261 49.413 7.26261H48.9868V11.6363H49.413ZM51.0038 8.05381V10.8451C51.0038 11.7693 50.6219 12.4613 49.5374 12.4613H47.9719V6.43555H49.5374C50.6219 6.43555 51.0038 7.11914 51.0038 8.05381Z" fill="white"/>
<path d="M51.6431 6.43555H54.0631V7.26261H52.6579V8.98636H53.6622V9.80499H52.6579V11.6363H54.0631V12.4634H51.6431" fill="white"/>
<path d="M54.677 10.9066V7.9908C54.677 7.0498 55.1201 6.36621 56.1877 6.36621C57.308 6.36621 57.6181 6.98651 57.6181 7.87687V8.58789H56.694V7.79669C56.694 7.42325 56.5695 7.21015 56.2045 7.21015C55.8416 7.21015 55.6897 7.46756 55.6897 7.83256V11.067C55.6897 11.432 55.8416 11.6894 56.2045 11.6894C56.5695 11.6894 56.694 11.4594 56.694 11.1028V9.99095H57.6181V11.0311C57.6181 11.894 57.2637 12.5333 56.1877 12.5333C55.1201 12.5333 54.677 11.8413 54.677 10.9066Z" fill="white"/>
<path d="M58.0381 6.43555H60.4539V7.26261H59.0508V8.98636H60.053V9.80499H59.0508V11.6363H60.4539V12.4634H58.0381" fill="white"/>
<path d="M61.7154 8.67622V12.4634H60.863V6.43555H61.8589L62.9518 9.8936V6.43555H63.7957V12.4634H62.9075" fill="white"/>
<path d="M64.125 6.43555H66.8193V7.26261H65.9838V12.4634H64.9605V7.26261H64.125" fill="white"/>
<path d="M67.1567 6.43555H69.5746V7.26261H68.1695V8.98636H69.1738V9.80499H68.1695V11.6363H69.5746V12.4634H67.1567" fill="white"/>
<path d="M18.7629 14.8286H21.1808V15.6536H19.7757V17.3794H20.78V18.1959H19.7757V20.0273H21.1808V20.8544H18.7629" fill="white"/>
<path d="M22.4509 19.2972V16.3835C22.4509 15.4404 22.8961 14.7568 23.9616 14.7568C25.0819 14.7568 25.3942 15.3792 25.3942 16.2675V16.9785H24.4701V16.1873C24.4701 15.8139 24.3435 15.6008 23.9806 15.6008C23.6156 15.6008 23.4658 15.8582 23.4658 16.2232V19.4576C23.4658 19.8226 23.6156 20.08 23.9806 20.08C24.3435 20.08 24.4701 19.85 24.4701 19.4935V18.3837H25.3942V19.4217C25.3942 20.2847 25.0376 20.9239 23.9616 20.9239C22.8961 20.9239 22.4509 20.2319 22.4509 19.2972Z" fill="white"/>
<path d="M26.8606 15.6536V17.5292H27.1982C27.5442 17.5292 27.6961 17.352 27.6961 17.0313V16.1431C27.6961 15.8139 27.5442 15.6536 27.1982 15.6536H26.8606ZM26.8606 18.0905V20.8544H25.8479V14.8286H27.3227C28.346 14.8286 28.7173 15.335 28.7173 16.1789V16.9511C28.7173 17.601 28.4873 17.9829 27.9092 18.1158L28.8777 20.8544H27.8122" fill="white"/>
<path d="M29.1731 14.8286H31.5889V15.6536H30.1858V17.3794H31.1901V18.1959H30.1858V20.0273H31.5889V20.8544H29.1731" fill="white"/>
<path d="M31.9812 19.5568V18.7466H32.9243V19.5736C32.9243 19.9133 33.0741 20.1074 33.4201 20.1074C33.7408 20.1074 33.8822 19.8943 33.8822 19.5736V19.3416C33.8822 18.9955 33.7408 18.7824 33.4286 18.4892L32.8336 17.8942C32.2555 17.3245 31.9896 16.9785 31.9896 16.2844V16.0818C31.9896 15.3328 32.4243 14.7568 33.4117 14.7568C34.4244 14.7568 34.8253 15.2548 34.8253 16.1261V16.6135H33.9012V16.0903C33.9012 15.7421 33.7408 15.5734 33.4201 15.5734C33.1353 15.5734 32.9412 15.7337 32.9412 16.0713V16.1958C32.9412 16.5333 33.1269 16.7296 33.4201 17.0144L34.07 17.6537C34.6206 18.2128 34.8865 18.5525 34.8865 19.2192V19.5125C34.8865 20.3374 34.4434 20.9261 33.4117 20.9261C32.3821 20.9261 31.9812 20.348 31.9812 19.5568Z" fill="white"/>
<path d="M35.3149 19.2972V16.3835C35.3149 15.4404 35.7601 14.7568 36.8256 14.7568C37.9459 14.7568 38.2561 15.3792 38.2561 16.2675V16.9785H37.332V16.1873C37.332 15.8139 37.2075 15.6008 36.8446 15.6008C36.4796 15.6008 36.3277 15.8582 36.3277 16.2232V19.4576C36.3277 19.8226 36.4796 20.08 36.8446 20.08C37.2075 20.08 37.332 19.85 37.332 19.4935V18.3837H38.2561V19.4217C38.2561 20.2847 37.9016 20.9239 36.8256 20.9239C35.7601 20.9239 35.3149 20.2319 35.3149 19.2972Z" fill="white"/>
<path d="M38.7095 20.8545H39.7243V14.8267H38.7095V20.8545Z" fill="white"/>
<path d="M42.9947 16.9427H42.9673L42.2837 20.8544H41.8132L41.0579 16.9427H41.0389V20.8544H40.2034V14.8286H41.3849L42.0432 18.2234H42.0516L42.6381 14.8286H43.9188V20.8544H42.9947" fill="white"/>
<path d="M44.3999 14.8286H46.8178V15.6536H45.4126V17.3794H46.4169V18.1959H45.4126V20.0273H46.8178V20.8544H44.3999" fill="white"/>
<path d="M48.1069 17.0672V20.8544H47.2524V14.8286H48.2483L49.3412 18.2846V14.8286H50.1873V20.8544H49.2969" fill="white"/>
<path d="M50.55 14.8286H53.2443V15.6536H52.4088V20.8544H51.3856V15.6536H50.55" fill="white"/>
<path d="M55.6708 19.4576V16.2232C55.6708 15.8582 55.5105 15.6008 55.1455 15.6008C54.791 15.6008 54.6307 15.8582 54.6307 16.2232V19.4576C54.6307 19.8226 54.791 20.08 55.1455 20.08C55.5105 20.08 55.6708 19.8226 55.6708 19.4576ZM53.6179 19.2994V16.3835C53.6179 15.4404 54.08 14.7568 55.1455 14.7568C56.2215 14.7568 56.6835 15.4404 56.6835 16.3835V19.2994C56.6835 20.2319 56.2215 20.9261 55.1455 20.9261C54.08 20.9261 53.6179 20.2319 53.6179 19.2994Z" fill="white"/>
<path d="M18.7629 23.0762H21.1808V23.9032H19.7757V25.6291H20.78V26.4456H19.7757V28.277H21.1808V29.104H18.7629" fill="white"/>
<path d="M21.5901 27.5468V24.633C21.5901 23.6899 22.0332 23.0063 23.1007 23.0063C24.2211 23.0063 24.5312 23.6288 24.5312 24.517V25.228H23.6071V24.4368C23.6071 24.0634 23.4826 23.8503 23.1176 23.8503C22.7547 23.8503 22.6028 24.1077 22.6028 24.4727V27.7071C22.6028 28.0721 22.7547 28.3295 23.1176 28.3295C23.4826 28.3295 23.6071 28.0995 23.6071 27.743V26.6332H24.5312V27.6712C24.5312 28.5342 24.1768 29.1735 23.1007 29.1735C22.0332 29.1735 21.5901 28.4814 21.5901 27.5468Z" fill="white"/>
<path d="M27.0021 27.7071V24.4727C27.0021 24.1077 26.8418 23.8503 26.4789 23.8503C26.1223 23.8503 25.962 24.1077 25.962 24.4727V27.7071C25.962 28.0721 26.1223 28.3295 26.4789 28.3295C26.8418 28.3295 27.0021 28.0721 27.0021 27.7071ZM24.9492 27.5468V24.633C24.9492 23.6899 25.4113 23.0063 26.4789 23.0063C27.5549 23.0063 28.017 23.6899 28.017 24.633V27.5468C28.017 28.4814 27.5549 29.1735 26.4789 29.1735C25.4113 29.1735 24.9492 28.4814 24.9492 27.5468Z" fill="white"/>
<path d="M29.3145 25.3168V29.104H28.46V23.0762H29.4558L30.5508 26.5342V23.0762H31.3948V29.104H30.5044" fill="white"/>
<path d="M33.8929 27.7072V24.4728C33.8929 24.1078 33.7325 23.8504 33.3675 23.8504C33.0131 23.8504 32.8506 24.1078 32.8506 24.4728V27.7072C32.8506 28.0722 33.0131 28.3296 33.3675 28.3296C33.7325 28.3296 33.8929 28.0722 33.8929 27.7072ZM32.5046 22.8545V22.365L33.146 21.8945H33.5891L34.2305 22.365V22.8545L33.376 22.5971L32.5046 22.8545ZM31.8379 27.5468V24.6331C31.8379 23.69 32.3021 23.0064 33.3675 23.0064C34.4436 23.0064 34.9056 23.69 34.9056 24.6331V27.5468C34.9056 28.4815 34.4436 29.1735 33.3675 29.1735C32.3021 29.1735 31.8379 28.4815 31.8379 27.5468Z" fill="white"/>
<path d="M38.1398 25.1924H38.1145L37.4309 29.104H36.9583L36.203 25.1924H36.1861V29.104H35.3506V23.0762H36.5321L37.1904 26.473H37.1988L37.7854 23.0762H39.066V29.104H38.1398" fill="white"/>
<path d="M39.5093 29.104H40.5241V23.0762H39.5093V29.104Z" fill="white"/>
<path d="M40.9756 27.5468V24.633C40.9756 23.6899 41.4208 23.0063 42.4884 23.0063C43.6087 23.0063 43.9188 23.6288 43.9188 24.517V25.228H42.9947V24.4368C42.9947 24.0634 42.8702 23.8503 42.5052 23.8503C42.1402 23.8503 41.9904 24.1077 41.9904 24.4727V27.7071C41.9904 28.0721 42.1402 28.3295 42.5052 28.3295C42.8702 28.3295 42.9947 28.0995 42.9947 27.743V26.6332H43.9188V27.6712C43.9188 28.5342 43.5644 29.1735 42.4884 29.1735C41.4208 29.1735 40.9756 28.4814 40.9756 27.5468Z" fill="white"/>
<path d="M46.3896 27.7071V24.4727C46.3896 24.1077 46.2313 23.8503 45.8663 23.8503C45.5119 23.8503 45.3494 24.1077 45.3494 24.4727V27.7071C45.3494 28.0721 45.5119 28.3295 45.8663 28.3295C46.2313 28.3295 46.3896 28.0721 46.3896 27.7071ZM44.3367 27.5468V24.633C44.3367 23.6899 44.7987 23.0063 45.8663 23.0063C46.9402 23.0063 47.4023 23.6899 47.4023 24.633V27.5468C47.4023 28.4814 46.9402 29.1735 45.8663 29.1735C44.7987 29.1735 44.3367 28.4814 44.3367 27.5468Z" fill="white"/>
</svg>
