<svg width="100%" height="100%" viewBox="0 0 75 75" fill="none" xmlns="http://www.w3.org/2000/svg">
<path d="M0.8396 74.0444H74.5791V0.302734H0.8396V74.0444Z" fill="#1A4668A6" stroke-width="4" stroke="#1A4668"/>
<path d="M11.8742 6.48242V21.3485H9.37401V9.96791H9.35081L7.59751 11.7887H7.57642V9.17882L9.87827 6.48242" fill="white"/>
<path d="M13.0137 6.48242H19.2863V8.78428L16.0181 21.3485H13.539L16.8726 8.52054H13.0137" fill="white"/>
<path d="M44.67 45.6645C46.5626 43.9091 47.7483 41.4047 47.7483 38.626C47.7483 38.2104 47.7188 37.8011 47.6681 37.4002C51.5123 37.8116 54.5167 41.0714 54.5167 45.0252C54.5167 47.2701 53.542 49.2872 51.9976 50.6923C50.5523 47.9833 47.8475 46.0464 44.67 45.6645ZM51.1895 55.199C51.1895 59.4271 47.7483 62.8683 43.518 62.8683C42.1424 62.8683 40.8554 62.4991 39.7372 61.8619C41.3681 60.1403 42.3745 57.8152 42.3745 55.2623C42.3745 54.6335 42.3112 54.0196 42.1952 53.4246C43.575 54.1905 45.1595 54.6293 46.8453 54.6293C48.3475 54.6293 49.7695 54.2833 51.0334 53.6651C51.1367 54.1609 51.1895 54.6736 51.1895 55.199ZM25.1011 55.2623C25.1011 54.7179 25.1581 54.1862 25.2678 53.6735C26.5316 54.2854 27.9473 54.6293 29.4432 54.6293C31.1247 54.6293 32.705 54.1926 34.0806 53.4309C33.973 54.0048 33.914 54.5934 33.914 55.199C33.914 57.792 34.952 60.1487 36.6294 61.8788C35.4943 62.5434 34.1777 62.9316 32.7704 62.9316C28.5402 62.9316 25.1011 59.4904 25.1011 55.2623ZM21.7717 45.0252C21.7717 41.0714 24.7762 37.8116 28.6203 37.3981C28.5697 37.8011 28.5402 38.2104 28.5402 38.626C28.5402 41.4343 29.7512 43.964 31.6775 45.7215C28.4916 46.0844 25.7741 48.0086 24.3141 50.7134C22.757 49.3083 21.7717 47.2807 21.7717 45.0252ZM38.1442 30.9567C41.2858 30.9567 43.9906 32.8556 45.1743 35.5689C42.0538 36.1174 39.4502 38.1788 38.1442 40.9638C36.8403 38.1788 34.2347 36.1174 31.1121 35.5689C32.2978 32.8556 35.0027 30.9567 38.1442 30.9567ZM39.9714 48.4031C41.0347 47.8461 42.2374 47.5275 43.518 47.5275C46.5351 47.5275 49.1408 49.2808 50.3962 51.819C49.3328 52.376 48.126 52.6967 46.8453 52.6967C43.8303 52.6967 41.2225 50.9413 39.9714 48.4031ZM36.2918 48.4559C35.0301 50.9645 32.4392 52.6967 29.4432 52.6967C28.173 52.6967 26.9746 52.3802 25.9197 51.8295C27.1814 49.3209 29.7744 47.5908 32.7704 47.5908C34.0406 47.5908 35.2368 47.9073 36.2918 48.4559ZM30.5741 37.4466C34.2684 37.9973 37.1146 41.1811 37.1146 45.0252C37.1146 45.4261 37.0724 45.8185 37.0133 46.2047C33.319 45.654 30.4728 42.4702 30.4728 38.626C30.4728 38.2252 30.515 37.8306 30.5741 37.4466ZM38.1801 60.693C36.7433 59.2984 35.8487 57.351 35.8487 55.199C35.8487 53.0786 36.7138 51.1544 38.1084 49.7661C39.5431 51.1607 40.4398 53.106 40.4398 55.2623C40.4398 57.3806 39.5747 59.3026 38.1801 60.693ZM45.8136 38.626C45.8136 42.4702 42.9695 45.654 39.2751 46.2047C39.216 45.8185 39.176 45.4261 39.176 45.0252C39.176 41.1811 42.02 37.9973 45.7144 37.4466C45.7756 37.8306 45.8136 38.2252 45.8136 38.626ZM56.4515 45.0252C56.4515 39.8477 52.3309 35.6153 47.1997 35.4275C45.879 31.7015 42.3196 29.022 38.1442 29.022C33.9688 29.022 30.4095 31.7015 29.0887 35.4275C23.9554 35.6153 19.8391 39.8477 19.8391 45.0252C19.8391 48.0972 21.2907 50.8379 23.544 52.5954C23.2993 53.4436 23.1664 54.3382 23.1664 55.2623C23.1664 60.5559 27.4726 64.8642 32.7704 64.8642C34.779 64.8642 36.6462 64.2439 38.1906 63.1848C39.7161 64.2038 41.5495 64.8009 43.518 64.8009C48.8159 64.8009 53.1221 60.4926 53.1221 55.199C53.1221 54.2917 52.9955 53.4161 52.7592 52.5849C55.0041 50.8252 56.4515 48.0909 56.4515 45.0252Z" fill="white"/>
<path d="M23.5481 7.29044V9.66403H23.9216C24.2697 9.66403 24.4195 9.49524 24.4195 9.16611V7.77993C24.4195 7.45079 24.2697 7.29044 23.9216 7.29044H23.5481ZM22.5354 6.46338H24.0376C25.0609 6.46338 25.4343 6.97185 25.4343 7.8158V9.08593C25.4343 9.93198 25.0609 10.4468 24.0376 10.4468H23.5481V12.4912H22.5354" fill="white"/>
<path d="M26.8479 10.5797H27.656L27.2551 8.16181H27.2467L26.8479 10.5797ZM25.5757 12.4912L26.7129 6.46338H27.8691L29.0169 12.4912H27.9767L27.7889 11.3878H26.7129L26.5357 12.4912" fill="white"/>
<path d="M30.2258 7.29044V9.16611H30.5634C30.9094 9.16611 31.0613 8.98888 31.0613 8.66818V7.77993C31.0613 7.45079 30.9094 7.29044 30.5634 7.29044H30.2258ZM30.2258 9.72733V12.4912H29.2109V6.46338H30.6857C31.709 6.46338 32.0825 6.97185 32.0825 7.8158V8.58801C32.0825 9.23784 31.8525 9.61973 31.2723 9.75265L32.2428 12.4912H31.1752" fill="white"/>
<path d="M32.4116 10.9366V8.02074C32.4116 7.07764 32.8568 6.39404 33.9223 6.39404C35.0426 6.39404 35.3549 7.01645 35.3549 7.9047V8.61572H34.4286V7.82453C34.4286 7.45108 34.3063 7.23799 33.9413 7.23799C33.5763 7.23799 33.4244 7.49539 33.4244 7.86039V11.0948C33.4244 11.4598 33.5763 11.7172 33.9413 11.7172C34.3063 11.7172 34.4286 11.4872 34.4286 11.1307V10.0209H35.3549V11.061C35.3549 11.9219 34.9983 12.5633 33.9223 12.5633C32.8568 12.5633 32.4116 11.8691 32.4116 10.9366Z" fill="white"/>
<path d="M35.6841 6.46338H38.102V7.29044H36.6968V9.01631H37.7011V9.83282H36.6968V11.6642H38.102V12.4912H35.6841" fill="white"/>
<path d="M39.4353 7.29044V9.16611H39.7728C40.1188 9.16611 40.2708 8.98888 40.2708 8.66818V7.77993C40.2708 7.45079 40.1188 7.29044 39.7728 7.29044H39.4353ZM39.4353 9.72733V12.4912H38.4204V6.46338H39.8952C40.9185 6.46338 41.2919 6.97185 41.2919 7.8158V8.58801C41.2919 9.23784 41.062 9.61973 40.4839 9.75265L41.4523 12.4912H40.3847" fill="white"/>
<path d="M41.6128 12.4916H42.6255V6.46582H41.6128V12.4916Z" fill="white"/>
<path d="M44.1023 10.5797H44.9104L44.5095 8.16181H44.5011L44.1023 10.5797ZM42.8301 12.4912L43.9673 6.46338H45.1235L46.2713 12.4912H45.2311L45.0433 11.3878H43.9673L43.7901 12.4912" fill="white"/>
<path d="M46.4126 11.194V10.3859H47.3557V11.2108C47.3557 11.5484 47.5055 11.7446 47.8536 11.7446C48.1722 11.7446 48.3157 11.5315 48.3157 11.2108V10.9788C48.3157 10.6327 48.1722 10.4197 47.8621 10.1264L47.2671 9.5314C46.689 8.96174 46.421 8.61572 46.421 7.92158V7.71692C46.421 6.97214 46.8578 6.39404 47.8431 6.39404C48.8579 6.39404 49.2567 6.89197 49.2567 7.76123V8.25072H48.3326V7.72747C48.3326 7.37935 48.1722 7.21267 47.8536 7.21267C47.5688 7.21267 47.3726 7.37091 47.3726 7.70848V7.83297C47.3726 8.17054 47.5604 8.36676 47.8536 8.65159L48.5014 9.29088C49.052 9.8521 49.32 10.1897 49.32 10.8564V11.1497C49.32 11.9746 48.8748 12.5633 47.8431 12.5633C46.8135 12.5633 46.4126 11.9852 46.4126 11.194Z" fill="white"/>
<path d="M50.3433 6.46338H52.759V7.29044H51.356V9.01631H52.3603V9.83282H51.356V11.6642H52.759V12.4912H50.3433" fill="white"/>
<path d="M56.5738 8.57957H56.5464L55.8628 12.4912H55.3923L54.6349 8.57957H54.618V12.4912H53.7825V6.46338H54.964L55.6223 9.86025H55.6307L56.2172 6.46338H57.4979V12.4912H56.5738" fill="white"/>
<path d="M57.8545 6.46338H60.2724V7.29044H58.8672V9.01631H59.8715V9.83282H58.8672V11.6642H60.2724V12.4912H57.8545" fill="white"/>
<path d="M60.5908 12.4916H61.6057V6.46582H60.5908V12.4916Z" fill="white"/>
<path d="M64.0131 11.0948V7.86039C64.0131 7.49539 63.8549 7.23799 63.4899 7.23799C63.1333 7.23799 62.9729 7.49539 62.9729 7.86039V11.0948C62.9729 11.4598 63.1333 11.7172 63.4899 11.7172C63.8549 11.7172 64.0131 11.4598 64.0131 11.0948ZM61.9602 10.9366V8.02074C61.9602 7.07764 62.4223 6.39404 63.4899 6.39404C64.5659 6.39404 65.0279 7.07764 65.0279 8.02074V10.9366C65.0279 11.8691 64.5659 12.5633 63.4899 12.5633C62.4223 12.5633 61.9602 11.8691 61.9602 10.9366Z" fill="white"/>
<path d="M65.3296 11.194V10.3859H66.2706V11.2108C66.2706 11.5484 66.4225 11.7446 66.7685 11.7446C67.0892 11.7446 67.2306 11.5315 67.2306 11.2108V10.9788C67.2306 10.6327 67.0892 10.4197 66.7791 10.1264L66.182 9.5314C65.606 8.96174 65.338 8.61572 65.338 7.92158V7.71692C65.338 6.97214 65.7727 6.39404 66.7601 6.39404C67.7728 6.39404 68.1737 6.89197 68.1737 7.76123V8.25072H67.2496V7.72747C67.2496 7.37935 67.0892 7.21267 66.7685 7.21267C66.4858 7.21267 66.2896 7.37091 66.2896 7.70848V7.83297C66.2896 8.17054 66.4752 8.36676 66.7685 8.65159L67.4183 9.29088C67.969 9.8521 68.237 10.1897 68.237 10.8564V11.1497C68.237 11.9746 67.7918 12.5633 66.7601 12.5633C65.7284 12.5633 65.3296 11.9852 65.3296 11.194Z" fill="white"/>
<path d="M24.0039 20.5002C24.428 20.5002 24.5904 20.247 24.5904 19.8778V16.6729C24.5904 16.3121 24.428 16.059 24.0039 16.059H23.5714V20.5002H24.0039ZM25.62 16.8628V19.6964C25.62 20.6352 25.2318 21.3399 24.1305 21.3399H22.5417V15.2192H24.1305C25.2318 15.2192 25.62 15.9155 25.62 16.8628Z" fill="white"/>
<path d="M26.1074 15.2192H28.5633V16.059H27.137V17.8101H28.1561V18.6414H27.137V20.5002H28.5633V21.3399H26.1074" fill="white"/>
<path d="M29.8545 21.3399H30.882V15.2192H29.8545V21.3399Z" fill="white"/>
<path d="M34.2134 17.3692H34.186L33.4918 21.3399H33.0129L32.2449 17.3692H32.228V21.3399H31.3799V15.2192H32.5804L33.2471 18.6689H33.2577L33.8526 15.2192H35.1523V21.3399H34.2134" fill="white"/>
<path d="M36.6693 16.059V18.4705H37.049C37.4014 18.4705 37.5533 18.2975 37.5533 17.9642V16.5548C37.5533 16.2214 37.4014 16.059 37.049 16.059H36.6693ZM35.6396 15.2192H37.1651C38.2031 15.2192 38.5829 15.734 38.5829 16.5928V17.8819C38.5829 18.7406 38.2031 19.2638 37.1651 19.2638H36.6693V21.3399H35.6396" fill="white"/>
<path d="M39.0071 15.2192H40.0367V20.5002H41.2646V21.3399H39.0071" fill="white"/>
<path d="M41.6338 15.2192H44.0897V16.059H42.6613V17.8101H43.6825V18.6414H42.6613V20.5002H44.0897V21.3399H41.6338" fill="white"/>
<path d="M47.3664 17.3692H47.339L46.6448 21.3399H46.1659L45.3979 17.3692H45.3789V21.3399H44.5308V15.2192H45.7334L46.4001 18.6689H46.4106L47.0056 15.2192H48.3053V21.3399H47.3664" fill="white"/>
<path d="M48.7925 15.2192H51.2484V16.059H49.82V17.8101H50.8412V18.6414H49.82V20.5002H51.2484V21.3399H48.7925" fill="white"/>
<path d="M52.5566 17.4958V21.3399H51.6895V15.2192H52.7001L53.812 18.7322V15.2192H54.6686V21.3399H53.7656" fill="white"/>
<path d="M55.0398 15.2192H57.7742V16.059H56.926V21.3399H55.888V16.059H55.0398" fill="white"/>
<path d="M59.2807 19.3989H60.1036L59.6964 16.943H59.6879L59.2807 19.3989ZM57.9895 21.3399L59.1457 15.2192H60.3188L61.4834 21.3399H60.4285L60.2386 20.2217H59.1457L58.9664 21.3399" fill="white"/>
<path d="M62.9013 21.9628C63.1903 21.9543 63.2346 21.8911 63.2346 21.8193C63.2346 21.756 63.1819 21.7202 63.0911 21.7202H63.0447V21.3868C62.1691 21.2771 61.8083 20.6188 61.8083 19.7601V16.8C61.8083 15.8421 62.2599 15.1479 63.3422 15.1479C64.4815 15.1479 64.798 15.7788 64.798 16.6818V17.4055H63.857V16.6016C63.857 16.2219 63.7325 16.0046 63.3612 16.0046C62.992 16.0046 62.838 16.2683 62.838 16.6375V19.9226C62.838 20.2939 62.992 20.5555 63.3612 20.5555C63.7325 20.5555 63.857 20.3213 63.857 19.9605V18.8318H64.798V19.8867C64.798 20.7454 64.4541 21.3762 63.4329 21.4121V21.4944C63.6777 21.5303 63.8127 21.621 63.8127 21.8193C63.8127 22.0999 63.5511 22.2518 62.9013 22.2518" fill="white"/>
<path d="M66.3845 19.3992H67.2073L66.8022 16.9434H66.7917L66.3845 19.3992ZM65.8971 14.977C65.9161 14.5529 66.0786 14.209 66.5301 14.209C66.7917 14.209 67.009 14.363 67.144 14.363C67.2158 14.363 67.2706 14.3166 67.2706 14.228H67.7749C67.758 14.6521 67.5956 14.9939 67.144 14.9939C66.8824 14.9939 66.6651 14.8419 66.5301 14.8419C66.4583 14.8419 66.4035 14.8862 66.4035 14.977H65.8971ZM65.0933 21.3403L66.2495 15.2196H67.4247L68.5872 21.3403H67.5323L67.3424 20.2221H66.2495L66.068 21.3403" fill="white"/>
<path d="M70.9988 19.9226V16.6375C70.9988 16.2683 70.8363 16.0046 70.465 16.0046C70.1042 16.0046 69.9438 16.2683 69.9438 16.6375V19.9226C69.9438 20.2939 70.1042 20.5555 70.465 20.5555C70.8363 20.5555 70.9988 20.2939 70.9988 19.9226ZM68.9121 19.7601V16.8C68.9121 15.8421 69.3826 15.1479 70.465 15.1479C71.5579 15.1479 72.0263 15.8421 72.0263 16.8V19.7601C72.0263 20.7095 71.5579 21.4142 70.465 21.4142C69.3826 21.4142 68.9121 20.7095 68.9121 19.7601Z" fill="white"/>
</svg>
