<svg width="100%" height="100%" viewBox="0 0 75 75" fill="none" xmlns="http://www.w3.org/2000/svg">
<path d="M0.299316 74.3458H74.0388V0.602051H0.299316V74.3458Z" fill="#E0442FA6" stroke-width="4" stroke="#E0442F"/>
<path d="M12.0577 11.4888C11.0724 11.4888 10.3466 11.8412 9.95414 12.5205H9.93093V8.81351H14.2287V6.77539H7.65229V15.1536H9.93093V14.8224C9.93093 13.9447 10.3255 13.4636 11.0281 13.4636C11.7939 13.4636 12.102 13.989 12.102 14.8013V18.3986C12.102 19.1877 11.8171 19.7362 11.0492 19.7362C10.1926 19.7362 9.88663 19.1645 9.88663 18.2889V16.4238H7.60376V18.1117C7.60376 20.3713 8.50467 21.8187 11.0492 21.8187C13.5725 21.8187 14.6022 20.481 14.6022 18.4197V14.7802C14.6022 12.4319 13.3953 11.4888 12.0577 11.4888Z" fill="white"/>
<path d="M37.0424 54.1122C32.1708 54.1122 28.2085 50.1499 28.2085 45.2782C28.2085 40.4066 32.1708 36.4422 37.0424 36.4422C41.9141 36.4422 45.8764 40.4066 45.8764 45.2782C45.8764 50.1499 41.9141 54.1122 37.0424 54.1122ZM54.0099 28.5049H44.8447C44.7814 28.5049 44.7287 28.5576 44.7287 28.6209V31.6676C44.7287 31.733 44.7814 31.7836 44.8447 31.7836H48.4947L44.4417 35.8366C42.4015 34.2331 39.8338 33.2732 37.0424 33.2732C30.4238 33.2732 25.0374 38.6596 25.0374 45.2782C25.0374 51.3715 29.6052 56.4141 35.4938 57.1778V60.6865H31.8775C31.81 60.6865 31.7594 60.7393 31.7594 60.8026V64.0686C31.7594 64.1319 31.81 64.1847 31.8775 64.1847H35.4938V67.6385C35.4938 67.7018 35.5444 67.7546 35.6098 67.7546H38.8717C38.9371 67.7546 38.9898 67.7018 38.9898 67.6385V64.1847H42.604C42.6673 64.1847 42.7201 64.1319 42.7201 64.0686V60.8026C42.7201 60.7393 42.6673 60.6865 42.604 60.6865H38.9898V57.1209C44.6843 56.1862 49.0454 51.2323 49.0454 45.2782C49.0454 42.7084 48.231 40.3285 46.8533 38.3748L50.8472 34.3787V37.7883C50.8472 37.8516 50.9 37.9043 50.9654 37.9043H54.0099C54.0753 37.9043 54.1302 37.8516 54.1302 37.7883V28.6209C54.1302 28.5576 54.0753 28.5049 54.0099 28.5049Z" fill="white"/>
<path d="M42.4396 41.6514H31.7215C31.6582 41.6514 31.6055 41.6999 31.6055 41.7548V44.3499C31.6055 44.4111 31.6582 44.4575 31.7215 44.4575H42.4396C42.505 44.4575 42.5577 44.4111 42.5577 44.3499V41.7548C42.5577 41.6999 42.505 41.6514 42.4396 41.6514Z" fill="white"/>
<path d="M42.4396 46.2827H31.7215C31.6582 46.2827 31.6055 46.3334 31.6055 46.3924V48.9854C31.6055 49.0445 31.6582 49.0909 31.7215 49.0909H42.4396C42.505 49.0909 42.5577 49.0445 42.5577 48.9854V46.3924C42.5577 46.3334 42.505 46.2827 42.4396 46.2827Z" fill="white"/>
<path d="M22.8031 20.8165C23.2208 20.8165 23.3812 20.5676 23.3812 20.2026V17.0462C23.3812 16.6917 23.2208 16.4428 22.8031 16.4428H22.3769V20.8165H22.8031ZM24.3939 17.234V20.0253C24.3939 20.9494 24.012 21.6415 22.9276 21.6415H21.3621V15.6157H22.9276C24.012 15.6157 24.3939 16.3014 24.3939 17.234Z" fill="white"/>
<path d="M25.0437 15.6157H27.4616V16.4428H26.0564V18.1665H27.0607V18.9852H26.0564V20.8165H27.4616V21.6415H25.0437" fill="white"/>
<path d="M30.6095 18.4239H32.0484V21.6414H31.3184V20.9853C31.1855 21.4389 30.9006 21.7132 30.35 21.7132C29.4786 21.7132 29.0798 21.0211 29.0798 20.0865V17.1706C29.0798 16.2296 29.5335 15.5439 30.5989 15.5439C31.7193 15.5439 32.0484 16.1664 32.0484 17.0546V17.5884H31.1222V16.9765C31.1222 16.6031 30.9808 16.39 30.6158 16.39C30.2529 16.39 30.0926 16.6474 30.0926 17.0103V20.2468C30.0926 20.6118 30.2445 20.8692 30.5905 20.8692C30.9196 20.8692 31.0884 20.6836 31.0884 20.2911V19.2256H30.6095" fill="white"/>
<path d="M33.114 15.3941V14.9046L33.7554 14.4341H34.1985L34.8399 14.9046V15.3941L33.9854 15.1346L33.114 15.3941ZM32.6963 15.6156H35.1142V16.4427H33.7111V18.1664H34.7154V18.985H33.7111V20.8164H35.1142V21.6414H32.6963" fill="white"/>
<path d="M36.5825 17.8564V21.6415H35.728V15.6157H36.7239L37.8168 19.0738V15.6157H38.6607V21.6415H37.7725" fill="white"/>
<path d="M39.3105 15.6157H41.7284V16.4428H40.3233V18.1665H41.3276V18.9852H40.3233V20.8165H41.7284V21.6415H39.3105" fill="white"/>
<path d="M43.3553 16.4428V18.3184H43.6928C44.041 18.3184 44.1908 18.1412 44.1908 17.8205V16.9323C44.1908 16.6031 44.041 16.4428 43.6928 16.4428H43.3553ZM43.3553 18.8776V21.6415H42.3425V15.6157H43.8173C44.8406 15.6157 45.214 16.1221 45.214 16.9681V17.7403C45.214 18.3902 44.982 18.7721 44.4039 18.905L45.3744 21.6415H44.3068" fill="white"/>
<path d="M47.8809 20.2468V17.0103C47.8809 16.6474 47.7206 16.3879 47.3556 16.3879C47.0011 16.3879 46.8408 16.6474 46.8408 17.0103V20.2468C46.8408 20.6118 47.0011 20.8692 47.3556 20.8692C47.7206 20.8692 47.8809 20.6118 47.8809 20.2468ZM45.8259 20.0865V17.1706C45.8259 16.2296 46.2901 15.5439 47.3556 15.5439C48.4316 15.5439 48.8937 16.2296 48.8937 17.1706V20.0865C48.8937 21.0211 48.4316 21.7132 47.3556 21.7132C46.2901 21.7132 45.8259 21.0211 45.8259 20.0865Z" fill="white"/>
<path d="M21.3621 12.8055H22.3769V6.77979H21.3621V12.8055Z" fill="white"/>
<path d="M24.5816 9.58796H26.0206V12.8076H25.2906V12.1493C25.1576 12.6029 24.8749 12.8772 24.3221 12.8772C23.4529 12.8772 23.052 12.1852 23.052 11.2505V8.33471C23.052 7.39371 23.5056 6.70801 24.5711 6.70801C25.6914 6.70801 26.0206 7.33042 26.0206 8.22078V8.75457H25.0965V8.1406C25.0965 7.76716 24.953 7.55406 24.5901 7.55406C24.2251 7.55406 24.0647 7.81146 24.0647 8.17647V11.4109C24.0647 11.7759 24.2166 12.0333 24.5627 12.0333C24.8918 12.0333 25.0606 11.8455 25.0606 11.4552V10.3876H24.5816" fill="white"/>
<path d="M29.6305 6.77979V11.3392C29.6305 12.2717 29.2296 12.8773 28.2 12.8773C27.1324 12.8773 26.6873 12.2717 26.6873 11.3392V6.77979H27.7021V11.4384C27.7021 11.7928 27.8435 12.0333 28.2 12.0333C28.5545 12.0333 28.6958 11.7928 28.6958 11.4384V6.77979" fill="white"/>
<path d="M31.4071 10.894H32.2173L31.8164 8.47611H31.808L31.4071 10.894ZM30.137 12.8076L31.2742 6.77979H32.4304L33.5781 12.8076H32.5359L32.3502 11.7042H31.2742L31.0969 12.8076" fill="white"/>
<path d="M34.0845 6.77979H35.0972V11.9785H36.3062V12.8076H34.0845" fill="white"/>
<path d="M38.298 11.9806C38.7157 11.9806 38.8761 11.7316 38.8761 11.3666V8.21027C38.8761 7.85581 38.7157 7.60685 38.298 7.60685H37.8697V11.9806H38.298ZM39.8888 8.39805V11.1894C39.8888 12.1135 39.5069 12.8055 38.4224 12.8055H36.8569V6.77979H38.4224C39.5069 6.77979 39.8888 7.46338 39.8888 8.39805Z" fill="white"/>
<path d="M41.6673 10.894H42.4753L42.0745 8.47611H42.066L41.6673 10.894ZM40.395 12.8076L41.5322 6.77979H42.6884L43.8362 12.8076H42.796L42.6083 11.7042H41.5322L41.355 12.8076" fill="white"/>
<path d="M45.7817 11.9806C46.1994 11.9806 46.3598 11.7316 46.3598 11.3666V8.21027C46.3598 7.85581 46.1994 7.60685 45.7817 7.60685H45.3555V11.9806H45.7817ZM47.3725 8.39805V11.1894C47.3725 12.1135 46.9906 12.8055 45.9062 12.8055H44.3428V6.77979H45.9062C46.9906 6.77979 47.3725 7.46338 47.3725 8.39805Z" fill="white"/>
<path d="M48.0413 6.77979H50.4592V7.60685H49.054V9.3306H50.0583V10.1492H49.054V11.9785H50.4592V12.8076H48.0413" fill="white"/>
</svg>
