<svg width="100%" height="100%" viewBox="0 0 75 75" fill="none" xmlns="http://www.w3.org/2000/svg">
<path d="M0.1604 74.3437H73.8999V0.602051H0.1604V74.3437Z" fill="#D4293BA6" stroke-width="4" stroke="#D4293B"/>
<path d="M10.4564 10.3011H10.4775V21.6816H12.9756V6.81348H10.9818L8.67993 9.51198V12.1219H8.70103" fill="white"/>
<path d="M56.9492 35.784C56.9492 34.6574 57.8649 33.7417 58.9916 33.7417C60.1182 33.7417 61.0297 34.6574 61.0297 35.784C61.0297 36.9107 60.1182 37.8264 58.9916 37.8264C57.8649 37.8264 56.9492 36.9107 56.9492 35.784Z" fill="white"/>
<path d="M61.3756 38.6132C62.7596 38.7377 63.8462 39.9045 63.8462 41.3244V46.983C63.8462 47.4177 63.4917 47.7742 63.055 47.7742C62.6161 47.7742 62.2638 47.4177 62.2638 46.983V42.124C62.2638 41.9405 62.2089 41.6936 61.8756 41.6936C61.6456 41.6936 61.5992 41.9384 61.5886 42.0945V56.661C61.5886 57.2876 61.0823 57.7982 60.4535 57.7982C59.8248 57.7982 59.3142 57.2876 59.3142 56.661V48.2658C59.3121 48.173 59.2805 47.9325 58.9914 47.9325C58.7003 47.9325 58.6644 48.173 58.6623 48.2658V56.661C58.6623 57.2876 58.1559 57.7982 57.5272 57.7982C56.8963 57.7982 56.3878 57.2876 56.3878 56.661V42.0945C56.3815 41.9384 56.3309 41.6936 56.103 41.6936C55.7676 41.6936 55.7169 41.9405 55.7169 42.124V46.983C55.7169 47.4177 55.3625 47.7742 54.9257 47.7742C54.4869 47.7742 54.1345 47.4177 54.1345 46.983V41.3244C54.1345 39.9045 55.2211 38.7377 56.6094 38.6132C56.6537 38.6069 56.7043 38.6006 56.7592 38.6006H61.2194C61.2785 38.6006 61.327 38.6069 61.3756 38.6132Z" fill="white"/>
<path d="M44.8091 36.8556C44.8091 35.7881 43.9462 34.9209 42.8786 34.9209C41.8089 34.9209 40.9438 35.7881 40.9438 36.8556C40.9438 37.9253 41.8089 38.7883 42.8786 38.7883C43.9462 38.7883 44.8091 37.9253 44.8091 36.8556Z" fill="white"/>
<path d="M38.9836 41.2359L37.3759 46.4662C37.3759 46.4662 37.089 47.4262 37.9034 47.6646C38.7136 47.9052 38.9583 46.9684 38.9583 46.9684L40.2538 42.6031C40.2538 42.6031 40.3234 42.2676 40.5766 42.3394C40.8298 42.4111 40.7348 42.7698 40.7348 42.7698L38.4794 50.9539H40.5766V56.813C40.5766 57.3679 41.0281 57.8194 41.5851 57.8194C42.14 57.8194 42.5894 57.3679 42.5894 56.813V50.9539H43.1633V56.813C43.1633 57.3679 43.6127 57.8194 44.1676 57.8194C44.7267 57.8194 45.1782 57.3679 45.1782 56.813V50.9539H47.2754L45.0199 42.7698C45.0199 42.7698 44.925 42.4111 45.1782 42.3394C45.4314 42.2676 45.501 42.6031 45.501 42.6031L46.7964 46.9684C46.7964 46.9684 47.0433 47.9052 47.8514 47.6646C48.6658 47.4262 48.3788 46.4662 48.3788 46.4662L46.7711 41.2359C46.7711 41.2359 46.1972 39.7231 44.925 39.7231H40.8298C39.5575 39.7231 38.9836 41.2359 38.9836 41.2359Z" fill="white"/>
<path d="M33.2322 36.8556C33.2322 35.7881 32.3672 34.9209 31.2996 34.9209C30.2299 34.9209 29.3669 35.7881 29.3669 36.8556C29.3669 37.9253 30.2299 38.7883 31.2996 38.7883C32.3672 38.7883 33.2322 37.9253 33.2322 36.8556Z" fill="white"/>
<path d="M27.4048 41.2359L25.7971 46.4662C25.7971 46.4662 25.5101 47.4262 26.3245 47.6646C27.1347 47.9052 27.3795 46.9684 27.3795 46.9684L28.6749 42.6031C28.6749 42.6031 28.7445 42.2676 28.9977 42.3394C29.2509 42.4111 29.156 42.7698 29.156 42.7698L26.9005 50.9539H28.9977V56.813C28.9977 57.3679 29.4514 57.8194 30.0062 57.8194C30.5632 57.8194 31.0126 57.3679 31.0126 56.813V50.9539H31.5844V56.813C31.5844 57.3679 32.0338 57.8194 32.5908 57.8194C33.1499 57.8194 33.5993 57.3679 33.5993 56.813V50.9539H35.6965L33.4432 42.7698C33.4432 42.7698 33.3483 42.4111 33.5993 42.3394C33.8525 42.2676 33.9221 42.6031 33.9221 42.6031L35.2176 46.9684C35.2176 46.9684 35.4644 47.9052 36.2725 47.6646C37.0869 47.4262 36.8 46.4662 36.8 46.4662L35.1923 41.2359C35.1923 41.2359 34.6205 39.7231 33.3483 39.7231H29.2509C27.9808 39.7231 27.4048 41.2359 27.4048 41.2359Z" fill="white"/>
<path d="M51.3011 47.6751C52.1914 47.6751 52.9109 46.9556 52.9109 46.0652C52.9109 45.1749 52.1914 44.4575 51.3011 44.4575C50.4128 44.4575 49.6934 45.1749 49.6934 46.0652C49.6934 46.9556 50.4128 47.6751 51.3011 47.6751Z" fill="white"/>
<path d="M47.4443 52.6735C47.3641 52.8612 47.3008 53.2621 47.6785 53.4351C48.1215 53.6398 48.3684 53.2115 48.3684 53.2115L49.244 50.4222C49.244 50.4222 49.3938 50.2345 49.3938 50.4286V56.9944H49.4001C49.4001 57.4523 49.7651 57.8194 50.223 57.8194C50.6808 57.8194 51.05 57.4523 51.05 56.9944V54.4035C51.05 54.4035 51.0015 54.0364 51.2969 54.0364C51.5923 54.0364 51.5458 54.4035 51.5458 54.4035V56.9944C51.5458 57.4523 51.9172 57.8194 52.3729 57.8194C52.8286 57.8194 53.2021 57.4523 53.2021 56.9944V50.4286C53.2021 50.2345 53.3033 50.3737 53.3033 50.3737L53.989 52.2831C53.989 52.2831 54.2865 53.1376 54.3773 53.1735C54.6874 53.3043 55.044 53.1566 55.1748 52.8444C55.2613 52.6418 55.2275 52.4224 55.1094 52.2578L55.1157 52.2515C55.0967 52.1903 54.0903 49.7239 53.9722 49.3779C53.6093 48.3208 52.9489 48.3293 52.3138 48.3103C51.6766 48.2955 51.2969 48.3103 51.2969 48.3103C51.2969 48.3103 50.8897 48.2955 50.0499 48.3208C49.2123 48.3461 48.9465 48.7744 48.0224 51.1565C47.8916 51.4983 47.4443 52.6059 47.4379 52.6735" fill="white"/>
<path d="M15.9673 35.784C15.9673 34.6574 15.0517 33.7417 13.925 33.7417C12.7983 33.7417 11.8848 34.6574 11.8848 35.784C11.8848 36.9107 12.7983 37.8264 13.925 37.8264C15.0517 37.8264 15.9673 36.9107 15.9673 35.784Z" fill="white"/>
<path d="M11.5407 38.6132C10.1566 38.7377 9.07007 39.9045 9.07007 41.3244V46.983C9.07007 47.4177 9.42452 47.7742 9.86126 47.7742C10.3001 47.7742 10.6525 47.4177 10.6525 46.983V42.124C10.6525 41.9405 10.7073 41.6936 11.0386 41.6936C11.2685 41.6936 11.3171 41.9384 11.3276 42.0945V56.661C11.3276 57.2876 11.834 57.7982 12.4627 57.7982C13.0915 57.7982 13.5999 57.2876 13.5999 56.661V48.2658C13.6042 48.173 13.6358 47.9325 13.9248 47.9325C14.216 47.9325 14.2498 48.173 14.2519 48.2658V56.661C14.2519 57.2876 14.7604 57.7982 15.3891 57.7982C16.0199 57.7982 16.5263 57.2876 16.5263 56.661V42.0945C16.5326 41.9384 16.5854 41.6936 16.8132 41.6936C17.1487 41.6936 17.1993 41.9405 17.1993 42.124V46.983C17.1993 47.4177 17.5538 47.7742 17.9905 47.7742C18.4273 47.7742 18.7817 47.4177 18.7817 46.983V41.3244C18.7817 39.9045 17.6952 38.7377 16.309 38.6132C16.2626 38.6069 16.2119 38.6006 16.1592 38.6006H11.6968C11.6378 38.6006 11.5892 38.6069 11.5407 38.6132Z" fill="white"/>
<path d="M7.94792 57.4942C7.9437 57.4942 7.93948 57.4942 7.93315 57.4921C7.89095 57.4837 7.86141 57.4436 7.86985 57.3993L9.68222 47.791C9.69066 47.7467 9.73075 47.7171 9.77505 47.7256C9.81936 47.7361 9.8489 47.7762 9.84046 47.8205L8.02809 57.4288C8.01965 57.4668 7.98589 57.4942 7.94792 57.4942Z" fill="white"/>
<path d="M19.7503 46.833C19.6448 46.6664 19.4634 46.5566 19.2545 46.5566C18.9317 46.5566 18.668 46.8204 18.668 47.1411C18.668 47.236 18.7249 47.3985 18.7249 47.3985L20.3474 50.3354C20.3474 50.3354 20.4466 50.5379 20.4466 50.7215V57.0258H20.4487C20.4487 57.4667 20.8053 57.8191 21.242 57.8191C21.6808 57.8191 22.0332 57.4667 22.0332 57.0258V54.5382C22.0332 54.5382 21.9889 54.1859 22.2737 54.1859C22.5564 54.1859 22.5121 54.5382 22.5121 54.5382V57.0258C22.5121 57.4667 22.8687 57.8191 23.3054 57.8191C23.7443 57.8191 24.1009 57.4667 24.1009 57.0258V50.7215C24.1009 50.5379 24.1979 50.3354 24.1979 50.3354L25.698 47.6242C25.698 47.6242 25.8816 47.236 25.8816 47.1411C25.8816 46.8204 25.6199 46.5566 25.295 46.5566C25.084 46.5566 24.9005 46.6664 24.7992 46.833L24.7908 46.8288C24.7444 46.8689 23.9932 48.2065 23.7464 48.4555C23.4827 48.7192 23.2506 48.6897 23.2506 48.6897H21.299C21.299 48.6897 21.0627 48.7192 20.8031 48.4555C20.5521 48.2065 19.8031 46.8689 19.7545 46.8288" fill="white"/>
<path d="M22.2736 47.6751C23.1619 47.6751 23.8814 46.9556 23.8814 46.0652C23.8814 45.1749 23.1619 44.4575 22.2736 44.4575C21.3833 44.4575 20.6638 45.1749 20.6638 46.0652C20.6638 46.9556 21.3833 47.6751 22.2736 47.6751Z" fill="white"/>
<path d="M22.2757 49.9346L24.0944 51.2596L24.9594 54.4433H19.5898L20.457 51.2596" fill="white"/>
<path d="M21.3687 6.70801H23.7865V7.53296H22.3814V9.25883H23.3857V10.0753H22.3814V11.9067H23.7865V12.7338H21.3687" fill="white"/>
<path d="M25.43 7.53296V9.40863H25.7675C26.1136 9.40863 26.2655 9.2314 26.2655 8.91281V8.02245C26.2655 7.69331 26.1136 7.53296 25.7675 7.53296H25.43ZM25.43 9.96985V12.7338H24.4172V6.70801H25.892C26.9153 6.70801 27.2866 7.21437 27.2866 8.05832V8.83263C27.2866 9.48036 27.0567 9.86224 26.4786 9.99517L27.447 12.7338H26.3815" fill="white"/>
<path d="M28.9324 7.53296V9.40863H29.27C29.616 9.40863 29.7679 9.2314 29.7679 8.91281V8.02245C29.7679 7.69331 29.616 7.53296 29.27 7.53296H28.9324ZM28.9324 9.96985V12.7338H27.9197V6.70801H29.3945C30.4177 6.70801 30.7891 7.21437 30.7891 8.05832V8.83263C30.7891 9.48036 30.5591 9.86224 29.981 9.99517L30.9494 12.7338H29.884" fill="white"/>
<path d="M32.5423 10.8224H33.3503L32.9495 8.40449H32.941L32.5423 10.8224ZM31.27 12.7339L32.4072 6.70605H33.5634L34.7112 12.7339H33.671L33.4833 11.6305H32.4072L32.23 12.7339" fill="white"/>
<path d="M36.6565 11.9067C37.0742 11.9067 37.2346 11.6577 37.2346 11.2927V8.13849C37.2346 7.78193 37.0742 7.53296 36.6565 7.53296H36.2303V11.9067H36.6565ZM38.2473 8.32416V11.1155C38.2473 12.0396 37.8654 12.7338 36.7809 12.7338H35.2175V6.70801H36.7809C37.8654 6.70801 38.2473 7.3916 38.2473 8.32416Z" fill="white"/>
<path d="M38.9163 12.7339H39.929V6.70605H38.9163V12.7339Z" fill="white"/>
<path d="M40.5957 11.1788V8.26293C40.5957 7.31982 41.0409 6.63623 42.1064 6.63623C43.2267 6.63623 43.5368 7.25864 43.5368 8.14689V8.85791H42.6127V8.06671C42.6127 7.69327 42.4882 7.48017 42.1253 7.48017C41.7603 7.48017 41.6084 7.73758 41.6084 8.10258V11.337C41.6084 11.702 41.7603 11.9594 42.1253 11.9594C42.4882 11.9594 42.6127 11.7294 42.6127 11.3729V10.2631H43.5368V11.3032C43.5368 12.1641 43.1824 12.8055 42.1064 12.8055C41.0409 12.8055 40.5957 12.1113 40.5957 11.1788Z" fill="white"/>
<path d="M45.2901 10.8224H46.0981L45.6973 8.40449H45.6888L45.2901 10.8224ZM44.0178 12.7339L45.155 6.70605H46.3112L47.459 12.7339H46.4167L46.2311 11.6305H45.155L44.9778 12.7339" fill="white"/>
<path d="M49.0392 13.3477C49.3241 13.3371 49.3684 13.276 49.3684 13.2042C49.3684 13.143 49.3156 13.1072 49.227 13.1072H49.1827V12.778C48.3198 12.6725 47.9653 12.0227 47.9653 11.1788V8.26293C47.9653 7.31982 48.4084 6.63623 49.476 6.63623C50.5963 6.63623 50.9065 7.25864 50.9065 8.14689V8.85791H49.9824V8.06671C49.9824 7.69327 49.8579 7.48017 49.4929 7.48017C49.13 7.48017 48.9781 7.73758 48.9781 8.10258V11.337C48.9781 11.702 49.13 11.9594 49.4929 11.9594C49.8579 11.9594 49.9824 11.7294 49.9824 11.3729V10.2631H50.9065V11.3032C50.9065 12.1472 50.5689 12.7696 49.5646 12.8055V12.8856C49.8051 12.9194 49.938 13.0101 49.938 13.2042C49.938 13.4806 49.6806 13.6304 49.0392 13.6304" fill="white"/>
<path d="M52.6578 10.822H53.468L53.0671 8.40409H53.0587L52.6578 10.822ZM52.1789 6.46724C52.1958 6.04949 52.3561 5.71191 52.8013 5.71191C53.0587 5.71191 53.2718 5.86171 53.4047 5.86171C53.4765 5.86171 53.5292 5.81741 53.5292 5.72879H54.0271C54.0081 6.14654 53.8499 6.48412 53.4047 6.48412C53.1473 6.48412 52.9342 6.33221 52.8013 6.33221C52.7296 6.33221 52.6768 6.37863 52.6768 6.46724H52.1789ZM51.3877 12.7335L52.5249 6.70566H53.6811L54.8268 12.7335H53.7866L53.6009 11.6301H52.5249L52.3477 12.7335" fill="white"/>
<path d="M57.388 11.337V8.10258C57.388 7.73758 57.2277 7.48017 56.8627 7.48017C56.5061 7.48017 56.3478 7.73758 56.3478 8.10258V11.337C56.3478 11.702 56.5061 11.9594 56.8627 11.9594C57.2277 11.9594 57.388 11.702 57.388 11.337ZM55.333 11.1788V8.26293C55.333 7.31982 55.7951 6.63623 56.8627 6.63623C57.9387 6.63623 58.4007 7.31982 58.4007 8.26293V11.1788C58.4007 12.1113 57.9387 12.8055 56.8627 12.8055C55.7951 12.8055 55.333 12.1113 55.333 11.1788Z" fill="white"/>
<path d="M22.8076 20.8227C23.2253 20.8227 23.3857 20.5737 23.3857 20.2087V17.0545C23.3857 16.6979 23.2253 16.449 22.8076 16.449H22.3814V20.8227H22.8076ZM24.3984 17.2402V20.0315C24.3984 20.9556 24.0165 21.6498 22.9321 21.6498H21.3687V15.624H22.9321C24.0165 15.624 24.3984 16.3076 24.3984 17.2402Z" fill="white"/>
<path d="M26.1768 19.7384H26.9849L26.584 17.3205H26.5755L26.1768 19.7384ZM24.9045 21.6499L26.0418 15.6221H27.198L28.3457 21.6499H27.3056L27.1178 20.5486H26.0418L25.8645 21.6499" fill="white"/>
<path d="M30.8882 16.449V18.8226H31.2617C31.6077 18.8226 31.7596 18.6538 31.7596 18.3246V16.9385C31.7596 16.6093 31.6077 16.449 31.2617 16.449H30.8882ZM29.8755 15.624H31.3756C32.3989 15.624 32.7723 16.1304 32.7723 16.9743V18.2445C32.7723 19.0905 32.3989 19.6053 31.3756 19.6053H30.8882V21.6498H29.8755" fill="white"/>
<path d="M35.4391 20.2551V17.0186C35.4391 16.6536 35.2788 16.3962 34.9138 16.3962C34.5593 16.3962 34.399 16.6536 34.399 17.0186V20.2551C34.399 20.618 34.5593 20.8754 34.9138 20.8754C35.2788 20.8754 35.4391 20.618 35.4391 20.2551ZM33.3862 20.0948V17.1789C33.3862 16.2358 33.8483 15.5522 34.9138 15.5522C35.9898 15.5522 36.4519 16.2358 36.4519 17.1789V20.0948C36.4519 21.0273 35.9898 21.7215 34.9138 21.7215C33.8483 21.7215 33.3862 21.0273 33.3862 20.0948Z" fill="white"/>
<path d="M38.1335 18.9388V20.8229H38.5766C38.9141 20.8229 39.0745 20.6541 39.0745 20.3334V19.4283C39.0745 19.1076 38.9247 18.9388 38.5681 18.9388H38.1335ZM38.1335 18.1644H38.4879C38.8171 18.1644 38.969 17.9957 38.969 17.6771V16.9386C38.969 16.6095 38.8171 16.4512 38.4795 16.4512H38.1335V18.1644ZM37.1187 15.6221H38.5871C39.5998 15.6221 39.9374 16.0947 39.9374 16.9471V17.561C39.9374 18.0674 39.7496 18.3881 39.3319 18.521C39.8404 18.6371 40.0872 18.9746 40.0872 19.5253V20.3249C40.0872 21.1794 39.7053 21.6499 38.6926 21.6499H37.1187" fill="white"/>
<path d="M41.6971 16.449V18.3246H42.0346C42.3828 18.3246 42.5326 18.1474 42.5326 17.8267V16.9385C42.5326 16.6093 42.3828 16.449 42.0346 16.449H41.6971ZM41.6971 18.8859V21.6498H40.6843V15.624H42.1591C43.1824 15.624 43.5558 16.1304 43.5558 16.9743V17.7465C43.5558 18.3964 43.3238 18.7783 42.7457 18.9112L43.7162 21.6498H42.6486" fill="white"/>
<path d="M44.1951 15.624H46.613V16.449H45.2078V18.1748H46.2142V18.9914H45.2078V20.8227H46.613V21.6498H44.1951" fill="white"/>
<path d="M48.2314 20.8227H49.7694V21.6498H47.1743V20.8227L48.7651 16.449H47.3347V15.624H49.8306V16.449" fill="white"/>
<path d="M51.5647 19.7384H52.3749L51.974 17.3205H51.9656L51.5647 19.7384ZM50.2925 21.6499L51.4318 15.6221H52.588L53.7337 21.6499H52.6935L52.5078 20.5486H51.4318L51.2546 21.6499" fill="white"/>
</svg>
