<svg width="100%" height="100%" viewBox="0 0 75 75" fill="none" xmlns="http://www.w3.org/2000/svg">
<path d="M0.322754 74.3437H74.0623V0.602051H0.322754V74.3437Z" fill="#D5A13DA6" stroke-width="4" stroke="#D5A13D"/>
<path d="M14.113 19.6095H10.0135V18.909C10.0135 17.7465 10.4292 17.3076 11.0663 16.6283L12.6656 14.9404C13.9589 13.5584 14.2438 12.6807 14.2438 11.1891V9.74169C14.2438 7.61496 13.2142 6.60645 10.9756 6.60645C8.78347 6.60645 7.66735 7.76687 7.66735 9.85141V11.649H9.946V9.786C9.946 8.8872 10.3848 8.62136 10.9123 8.62136C11.3934 8.62136 11.8111 8.81969 11.8111 9.74169V10.9696C11.8111 12.1976 11.7014 12.6807 10.8912 13.5352L9.48605 15.0269C8.1273 16.4742 7.62305 17.4385 7.62305 18.909V21.6497H14.113" fill="white"/>
<path d="M29.7363 63.2607V64.2988C29.7342 64.303 29.7321 64.3135 29.7321 64.3199C29.7321 64.3283 29.7342 64.3389 29.7363 64.3452C29.7448 64.6026 29.9558 64.8072 30.2132 64.8115C30.2174 64.8115 30.2195 64.8136 30.2237 64.8136C30.2258 64.8136 30.23 64.8115 30.2343 64.8115H42.3976C42.4018 64.8115 42.406 64.8136 42.4081 64.8136C42.4124 64.8136 42.4166 64.8115 42.4208 64.8115C42.6845 64.8072 42.8976 64.5899 42.8997 64.3241C42.8997 64.322 42.9018 64.322 42.9018 64.3199C42.9018 64.3199 42.8997 64.3199 42.8997 64.3178V63.1447C49.7462 60.8998 54.8753 55.3488 56.0041 48.5867C56.0083 48.5719 56.0083 48.5592 56.0125 48.5466C56.0146 48.5213 56.0167 48.5002 56.0167 48.4769C56.0167 48.2069 55.7973 47.9854 55.5272 47.9854H16.7586C16.4843 47.9854 16.2649 48.2069 16.2649 48.4769L16.2923 48.6985C17.476 55.526 22.7464 61.1066 29.7363 63.2607Z" fill="white"/>
<path d="M42.8871 31.4397C42.7289 31.6675 38.9839 37.0603 42.9715 41.4193C44.8008 43.4216 44.6425 45.1875 44.1193 46.3796H46.6785C47.1976 44.6178 46.9823 42.4109 44.9062 40.1407C41.9651 36.9274 44.9421 32.5853 44.9885 32.5178C45.3388 32.022 45.151 31.3848 44.5729 31.0852C43.9927 30.7898 43.2416 30.9481 42.8871 31.4397Z" fill="white"/>
<path d="M36.4077 46.3796H38.967C39.4839 44.6178 39.2708 42.4109 37.1926 40.1407C34.2536 36.9274 37.2264 32.5874 37.2749 32.5157C37.623 32.022 37.4373 31.3848 36.8571 31.0852C36.279 30.7898 35.5258 30.9481 35.1756 31.4397C35.0152 31.6654 31.266 37.0603 35.26 41.4193C37.0871 43.4216 36.9289 45.1875 36.4077 46.3796Z" fill="white"/>
<path d="M27.4621 31.4396C27.2996 31.6675 23.5546 37.0603 27.5444 41.4193C29.3757 43.4215 29.2175 45.1875 28.6943 46.3795H31.2535C31.7704 44.6199 31.5573 42.4109 29.4791 40.1407C26.538 36.9274 29.515 32.5853 29.5614 32.5157C29.9095 32.022 29.7239 31.3848 29.1437 31.0852C28.5656 30.7877 27.8144 30.9459 27.4621 31.4396Z" fill="white"/>
<path d="M21.3835 5.4126H23.7571V6.23755H22.3963V7.96342H23.409V8.77993H22.3963V11.4384H21.3835" fill="white"/>
<path d="M26.3353 10.0437V6.80717C26.3353 6.44217 26.1749 6.18476 25.8099 6.18476C25.4555 6.18476 25.2951 6.44217 25.2951 6.80717V10.0437C25.2951 10.4066 25.4555 10.6661 25.8099 10.6661C26.1749 10.6661 26.3353 10.4066 26.3353 10.0437ZM24.2803 9.88334V6.96752C24.2803 6.02652 24.7423 5.34082 25.8099 5.34082C26.8859 5.34082 27.348 6.02652 27.348 6.96752V9.88334C27.348 10.8159 26.8859 11.51 25.8099 11.51C24.7423 11.51 24.2803 10.8159 24.2803 9.88334Z" fill="white"/>
<path d="M30.7956 7.52667H30.7703L30.0867 11.4384H29.6141L28.8587 7.52667H28.8397V11.4384H28.0063V5.4126H29.1879L29.8461 8.80736H29.8546L30.4411 5.4126H31.7218V11.4384H30.7956" fill="white"/>
<path d="M32.3779 5.4126H34.7958V6.23755H33.3928V7.96342H34.3971V8.77993H33.3928V10.6113H34.7958V11.4384H32.3779" fill="white"/>
<path d="M37.4184 10.6113H38.9565V11.4384H36.3613V10.6113L37.9522 6.23755H36.5217V5.4126H39.0197V6.23755" fill="white"/>
<path d="M39.6338 5.4126H42.0496V6.23755H40.6465V7.96342H41.6508V8.77993H40.6465V10.6113H42.0496V11.4384H39.6338" fill="white"/>
<path d="M43.6763 6.23755V8.11532H44.0139C44.362 8.11532 44.5139 7.93599 44.5139 7.61529V6.72704C44.5139 6.3979 44.362 6.23755 44.0139 6.23755H43.6763ZM43.6763 8.67444V11.4384H42.6636V5.4126H44.1405C45.1616 5.4126 45.5351 5.91896 45.5351 6.76291V7.53722C45.5351 8.18495 45.3051 8.56683 44.727 8.70187L45.6954 11.4384H44.6279" fill="white"/>
<path d="M48.2104 10.0437V6.80717C48.2104 6.44217 48.05 6.18476 47.6871 6.18476C47.3306 6.18476 47.1702 6.44217 47.1702 6.80717V10.0437C47.1702 10.4066 47.3306 10.6661 47.6871 10.6661C48.05 10.6661 48.2104 10.4066 48.2104 10.0437ZM46.1575 9.88334V6.96752C46.1575 6.02652 46.6195 5.34082 47.6871 5.34082C48.7631 5.34082 49.2252 6.02652 49.2252 6.96752V9.88334C49.2252 10.8159 48.7631 11.51 47.6871 11.51C46.6195 11.51 46.1575 10.8159 46.1575 9.88334Z" fill="white"/>
<path d="M21.3645 13.7759H23.7824V14.6029H22.3793V16.3288H23.3836V17.1453H22.3793V18.9767H23.7824V19.8037H21.3645" fill="white"/>
<path d="M26.5484 17.8922H27.3564L26.9556 15.4743H26.9471L26.5484 17.8922ZM25.2761 19.8037L26.4133 13.7759H27.5695L28.7173 19.8037H27.6771L27.4894 18.7003H26.4133L26.2361 19.8037" fill="white"/>
<path d="M30.7533 16.5865H32.1922V19.804H31.4643V19.1458C31.3293 19.5994 31.0465 19.8758 30.4938 19.8758C29.6245 19.8758 29.2236 19.1816 29.2236 18.2491V15.3332C29.2236 14.3901 29.6773 13.7065 30.7427 13.7065C31.8631 13.7065 32.1922 14.329 32.1922 15.2172V15.751H31.2681V15.137C31.2681 14.7636 31.1267 14.5505 30.7617 14.5505C30.3967 14.5505 30.2364 14.8079 30.2364 15.1729V18.4094C30.2364 18.7723 30.3883 19.0297 30.7343 19.0297C31.0634 19.0297 31.2322 18.844 31.2322 18.4537V17.3861H30.7533" fill="white"/>
<path d="M33.8716 14.6029V16.4786H34.2092C34.5573 16.4786 34.7071 16.3014 34.7071 15.9807V15.0924C34.7071 14.7633 34.5573 14.6029 34.2092 14.6029H33.8716ZM33.8716 17.0398V19.8037H32.8589V13.7759H34.3337C35.357 13.7759 35.7304 14.2844 35.7304 15.1283V15.9005C35.7304 16.5503 35.4983 16.9322 34.9202 17.0651L35.8908 19.8037H34.8232" fill="white"/>
<path d="M36.3699 19.8037H37.3847V13.7759H36.3699V19.8037Z" fill="white"/>
<path d="M38.0598 18.2491V15.3332C38.0598 14.3901 38.505 13.7065 39.5705 13.7065C40.6908 13.7065 41.001 14.329 41.001 15.2172V15.9282H40.0768V15.137C40.0768 14.7636 39.9524 14.5505 39.5895 14.5505C39.2245 14.5505 39.0725 14.8079 39.0725 15.1729V18.4073C39.0725 18.7723 39.2245 19.0297 39.5895 19.0297C39.9524 19.0297 40.0768 18.7997 40.0768 18.4432V17.3334H41.001V18.3714C41.001 19.2344 40.6465 19.8758 39.5705 19.8758C38.505 19.8758 38.0598 19.1816 38.0598 18.2491Z" fill="white"/>
<path d="M44.5835 13.7759V18.3374C44.5835 19.2699 44.1847 19.8755 43.153 19.8755C42.0875 19.8755 41.6423 19.2699 41.6423 18.3374V13.7759H42.6551V18.4344C42.6551 18.791 42.7964 19.0294 43.153 19.0294C43.5096 19.0294 43.6509 18.791 43.6509 18.4344V13.7759" fill="white"/>
<path d="M45.2417 13.7759H46.2544V18.9767H47.4634V19.8037H45.2417" fill="white"/>
<path d="M47.9001 13.7759H50.5944V14.6029H49.7568V19.8037H48.7356V14.6029H47.9001" fill="white"/>
<path d="M54.0947 13.7759V18.3374C54.0947 19.2699 53.6959 19.8755 52.6642 19.8755C51.5987 19.8755 51.1536 19.2699 51.1536 18.3374V13.7759H52.1663V18.4344C52.1663 18.791 52.3098 19.0294 52.6642 19.0294C53.0208 19.0294 53.1621 18.791 53.1621 18.4344V13.7759" fill="white"/>
<path d="M55.7763 14.6029V16.4786H56.1139C56.4599 16.4786 56.6118 16.3014 56.6118 15.9807V15.0924C56.6118 14.7633 56.4599 14.6029 56.1139 14.6029H55.7763ZM55.7763 17.0398V19.8037H54.7615V13.7759H56.2384C57.2595 13.7759 57.633 14.2844 57.633 15.1283V15.9005C57.633 16.5503 57.403 16.9322 56.8249 17.0651L57.7933 19.8037H56.7258" fill="white"/>
<path d="M59.3841 17.8922H60.1943L59.7935 15.4743H59.785L59.3841 17.8922ZM58.114 19.8037L59.2512 13.7759H60.4074L61.5531 19.8037H60.515L60.3273 18.7003H59.2512L59.074 19.8037" fill="white"/>
<path d="M21.3118 26.756V25.9458H22.2549V26.7729C22.2549 27.1104 22.4047 27.3067 22.7528 27.3067C23.0714 27.3067 23.2149 27.0936 23.2149 26.7729V26.5429C23.2149 26.1948 23.0714 25.9817 22.7612 25.6884L22.1663 25.0934C21.5882 24.5238 21.3202 24.1777 21.3202 23.4857V23.2789C21.3202 22.5342 21.7569 21.9561 22.7423 21.9561C23.7571 21.9561 24.1559 22.454 24.1559 23.3232V23.8127H23.2317V23.2895C23.2317 22.9414 23.0714 22.7726 22.7528 22.7726C22.468 22.7726 22.2718 22.9329 22.2718 23.2705V23.395C22.2718 23.7326 22.4595 23.9288 22.7528 24.2136L23.4005 24.8529C23.9512 25.4141 24.2192 25.7517 24.2192 26.4184V26.7117C24.2192 27.5387 23.774 28.1253 22.7423 28.1253C21.7126 28.1253 21.3118 27.5472 21.3118 26.756Z" fill="white"/>
<path d="M27.7741 22.0254V26.5869C27.7741 27.5195 27.3733 28.125 26.3437 28.125C25.2761 28.125 24.833 27.5195 24.833 26.5869V22.0254H25.8457V26.684C25.8457 27.0384 25.9871 27.2789 26.3437 27.2789C26.6981 27.2789 26.8416 27.0384 26.8416 26.684V22.0254" fill="white"/>
<path d="M28.3882 26.756V25.9458H29.3292V26.7729C29.3292 27.1104 29.4811 27.3067 29.8271 27.3067C30.1478 27.3067 30.2913 27.0936 30.2913 26.7729V26.5429C30.2913 26.1948 30.1478 25.9817 29.8355 25.6884L29.2406 25.0934C28.6625 24.5238 28.3966 24.1777 28.3966 23.4857V23.2789C28.3966 22.5342 28.8334 21.9561 29.8187 21.9561C30.8314 21.9561 31.2323 22.454 31.2323 23.3232V23.8127H30.3082V23.2895C30.3082 22.9414 30.1478 22.7726 29.8271 22.7726C29.5423 22.7726 29.3482 22.9329 29.3482 23.2705V23.395C29.3482 23.7326 29.5338 23.9288 29.8271 24.2136L30.4769 24.8529C31.0276 25.4141 31.2935 25.7517 31.2935 26.4184V26.7117C31.2935 27.5387 30.8504 28.1253 29.8187 28.1253C28.7869 28.1253 28.3882 27.5472 28.3882 26.756Z" fill="white"/>
<path d="M31.802 22.0254H34.4942V22.8525H33.6587V28.0533H32.6375V22.8525H31.802" fill="white"/>
<path d="M35.0554 22.0254H37.4733V22.8525H36.0682V24.5783H37.0724V25.3948H36.0682V27.2262H37.4733V28.0533H35.0554" fill="white"/>
<path d="M38.9481 24.2664V28.0536H38.0957V22.0278H39.0916L40.1845 25.4838V22.0278H41.0284V28.0536H40.1402" fill="white"/>
<path d="M41.5791 22.0254H44.2734V22.8525H43.4379V28.0533H42.4146V22.8525H41.5791" fill="white"/>
<path d="M45.9444 26.1419H46.7524L46.3537 23.724H46.3452L45.9444 26.1419ZM47.2166 21.5994L45.6237 21.8041V21.2365L47.2166 20.8989V21.5994ZM44.6721 28.0535L45.8114 22.0256H46.9676L48.1133 28.0535H47.0731L46.8875 26.9521H45.8114L45.6321 28.0535" fill="white"/>
<path d="M51.8646 22.0254L50.7169 28.0533H49.6155L48.4678 22.0254H49.4995L50.1936 26.2303H50.2021L50.9131 22.0254" fill="white"/>
<path d="M52.3708 22.0254H54.7887V22.8525H53.3836V24.5783H54.3879V25.3948H53.3836V27.2262H54.7887V28.0533H52.3708" fill="white"/>
<path d="M55.4197 22.0254H56.4345V27.2262H57.6435V28.0533H55.4197" fill="white"/>
</svg>
