<svg width="100%" height="100%" viewBox="0 0 75 75" fill="none" xmlns="http://www.w3.org/2000/svg">
<path d="M0.580322 74.0444H74.3177V0.302734H0.580322V74.0444Z" fill="#248BC2A6" stroke-width="4" stroke="#248BC2"/>
<path d="M10.1868 6.50781V21.3696H7.68871V9.99119H7.6655L5.91432 11.812H5.89111V9.2021L8.19086 6.50781" fill="white"/>
<path d="M13.2143 17.0084L15.4507 10.8898H15.4718V17.0084H13.2143ZM17.7969 21.3716V18.96H18.8054V17.0084H17.7969V6.50342H15.341L11.02 17.424V18.96H15.4275V21.3716" fill="white"/>
<path d="M46.5415 55.2498C45.187 55.2498 44.0899 54.1506 44.0899 52.796C44.0899 51.4415 45.187 50.3444 46.5415 50.3444C47.9003 50.3444 48.9974 51.4415 48.9974 52.796C48.9974 54.1506 47.9003 55.2498 46.5415 55.2498ZM57.1963 54.1063C56.268 52.853 50.2739 45.209 41.8682 45.209C34.5702 45.209 26.7637 51.8297 26.7637 51.8297C26.7637 51.8297 23.831 45.8272 17.8306 45.2491C17.7968 45.2491 17.7588 45.2427 17.7188 45.2427H17.6808C17.5563 45.2491 17.4381 45.3714 17.4529 45.479C17.4698 45.5845 17.5457 45.6985 17.5457 45.6985C18.3201 46.9813 20.2928 50.6355 20.2928 54.2835C20.2928 57.9441 18.3074 61.6068 17.5415 62.8854L17.4909 62.9655C17.4677 63.0035 17.4529 63.0436 17.4529 63.0921C17.4529 63.2187 17.55 63.3179 17.6744 63.3284L17.7399 63.3221C17.7588 63.3221 17.7799 63.3221 17.801 63.3179C23.8205 62.7567 26.7637 56.7351 26.7637 56.7351C26.7637 56.7351 34.5702 63.3559 41.8682 63.3559C50.2739 63.3559 56.268 55.7119 57.1963 54.4607C57.2216 54.427 57.2406 54.3974 57.2596 54.3763C57.2701 54.3468 57.2807 54.3193 57.2807 54.2835C57.2807 54.2497 57.2701 54.2181 57.2596 54.1928C57.2406 54.1674 57.2216 54.1379 57.1963 54.1063Z" fill="white"/>
<path d="M17.6429 30.8448C17.6239 30.8406 17.6112 30.8322 17.5965 30.8322C17.4636 30.8322 17.356 30.9419 17.356 31.0769V32.75C17.356 32.8197 17.3813 32.8809 17.4256 32.9231C21.4828 36.4486 25.3249 33.1467 26.2131 32.2732C26.23 32.2458 26.249 32.2205 26.2764 32.2057C26.3165 32.1804 26.3587 32.1614 26.4094 32.1614C26.4727 32.1614 26.5317 32.1846 26.5718 32.2247C26.576 32.231 26.5803 32.2331 26.5845 32.2352C31.1671 36.609 35.9712 33.0665 36.9713 32.2352L37.0705 32.1445C37.0979 32.1319 37.1295 32.1276 37.1612 32.1276C37.1949 32.1276 37.2287 32.1319 37.2561 32.1445L37.3553 32.2352C38.3554 33.0665 43.1616 36.609 47.7421 32.2352C47.7421 32.2331 47.7485 32.231 47.7506 32.2247C47.7949 32.1846 47.8497 32.1614 47.9151 32.1614C47.9637 32.1614 48.0101 32.1804 48.048 32.2057C48.0755 32.2205 48.0945 32.2458 48.1156 32.2732C49.0038 33.1467 52.8416 36.4486 56.901 32.9231C56.9432 32.8809 56.9706 32.8197 56.9706 32.75V31.0769C56.9706 30.9419 56.8651 30.8322 56.7322 30.8322C56.7153 30.8322 56.6985 30.8406 56.6795 30.8448C56.6415 30.8659 56.6035 30.8849 56.5592 30.906C55.3123 31.5327 51.4407 33.018 47.9278 29.695C47.894 29.6654 47.8603 29.6338 47.8265 29.5979C47.7949 29.5853 47.7632 29.5747 47.7231 29.5747C47.6999 29.5747 47.6725 29.5831 47.6514 29.5874C47.5987 29.6085 47.5565 29.6401 47.529 29.6823C46.4825 30.4798 41.6763 33.7332 37.3975 29.7414L37.3342 29.6802C37.2899 29.6401 37.2287 29.6085 37.1612 29.6085C37.0979 29.6085 37.0346 29.6401 36.9945 29.6802L36.927 29.7414C32.6503 33.7332 27.8398 30.4798 26.7933 29.6823C26.768 29.6401 26.7258 29.6085 26.6752 29.5874C26.6499 29.5831 26.6267 29.5747 26.5992 29.5747C26.5655 29.5747 26.5317 29.5853 26.498 29.5979C26.4663 29.6338 26.4305 29.6654 26.3967 29.695C22.8838 33.018 19.0143 31.5327 17.7653 30.906C17.721 30.8849 17.6809 30.8659 17.6429 30.8448Z" fill="white"/>
<path d="M26.2131 38.358C26.2321 38.3306 26.249 38.3116 26.2764 38.2926C26.3165 38.2673 26.3587 38.2462 26.4094 38.2462C26.4705 38.2462 26.5317 38.2736 26.5739 38.3137C26.576 38.3179 26.5803 38.3222 26.5845 38.3243C31.165 42.6917 35.9712 39.1534 36.9713 38.3243L37.0705 38.2314C37.0979 38.2188 37.1295 38.2167 37.1612 38.2167C37.1949 38.2167 37.2287 38.2188 37.2582 38.2314L37.3553 38.3243C38.3554 39.1534 43.1595 42.6917 47.7421 38.3243C47.7442 38.3222 47.7463 38.3179 47.7506 38.3137C47.7949 38.2736 47.8497 38.2462 47.913 38.2462C47.9637 38.2462 48.0101 38.2673 48.0459 38.2926C48.0755 38.3116 48.0945 38.3306 48.1156 38.358C49.0017 39.2315 52.8395 42.5355 56.901 39.0079C56.9432 38.9657 56.9706 38.9087 56.9706 38.8391V37.1617C56.9706 37.0288 56.8651 36.9212 56.7322 36.9212C56.7153 36.9212 56.6985 36.9296 56.6795 36.9318C56.6436 36.9507 56.6035 36.9718 56.5592 36.9929C55.3123 37.6175 51.4407 39.1007 47.9278 35.7819C47.8961 35.7502 47.8603 35.7186 47.8265 35.6848C47.7949 35.668 47.7632 35.6616 47.7231 35.6616C47.6999 35.6616 47.6725 35.668 47.6514 35.6785C47.5987 35.6933 47.5565 35.727 47.529 35.7692C46.4825 36.5668 41.6763 39.8201 37.3975 35.8283L37.3342 35.765C37.2899 35.7228 37.2287 35.6996 37.1612 35.6996C37.0979 35.6996 37.0346 35.7228 36.9924 35.765L36.927 35.8283C32.6503 39.8201 27.8398 36.5668 26.7933 35.7692C26.7659 35.727 26.7258 35.6933 26.6752 35.6785C26.652 35.668 26.6246 35.6616 26.5992 35.6616C26.5655 35.6616 26.5317 35.668 26.5001 35.6848C26.4663 35.7186 26.4305 35.7502 26.3946 35.7819C22.8817 39.1007 19.0143 37.6175 17.7653 36.9929C17.7231 36.9718 17.6809 36.9507 17.6429 36.9318C17.6239 36.9296 17.6112 36.9212 17.5965 36.9212C17.4636 36.9212 17.356 37.0288 17.356 37.1617V38.8391C17.356 38.9087 17.3813 38.9657 17.4235 39.0079C21.4828 42.5355 25.3249 39.2315 26.2131 38.358Z" fill="white"/>
<path d="M27.3525 6.47607L26.2048 12.5018H25.1034L23.9578 6.47607H24.9874L25.6815 10.681H25.69L26.401 6.47607" fill="white"/>
<path d="M27.7786 12.5018H28.7913V6.47607H27.7786V12.5018Z" fill="white"/>
<path d="M30.8274 11.6769C31.2451 11.6769 31.4055 11.4279 31.4055 11.0629V7.90656C31.4055 7.5521 31.2451 7.30314 30.8274 7.30314H30.4012V11.6769H30.8274ZM32.4182 8.09433V10.8857C32.4182 11.8098 32.0363 12.5018 30.9518 12.5018H29.3884V6.47607H30.9518C32.0363 6.47607 32.4182 7.15967 32.4182 8.09433Z" fill="white"/>
<path d="M34.1166 10.5924H34.9268L34.5259 8.17451H34.5174L34.1166 10.5924ZM32.8464 12.5018L33.9836 6.47607H35.1399L36.2855 12.5018H35.2453L35.0597 11.4005H33.9836L33.8064 12.5018" fill="white"/>
<path d="M38.5093 8.71674V12.5039H37.6548V6.47607H38.6506L39.7435 9.93413V6.47607H40.5875V12.5039H39.6992" fill="white"/>
<path d="M42.286 10.5924H43.0962L42.6953 8.17451H42.6869L42.286 10.5924ZM41.0159 12.5018L42.1531 6.47607H43.3093L44.4549 12.5018H43.4148L43.2291 11.4005H42.1531L41.9759 12.5018" fill="white"/>
<path d="M25.211 19.437H26.019L25.6182 17.0191H25.6097L25.211 19.437ZM26.4811 14.8945L24.8903 15.0991V14.5295L26.4811 14.1919V14.8945ZM23.9387 21.3485L25.0759 15.3207H26.2321L27.3799 21.3485H26.3397L26.152 20.2451H25.0759L24.8987 21.3485" fill="white"/>
<path d="M28.9264 18.1309H30.3653V21.3485H29.6374V20.6902C29.5045 21.1438 29.2196 21.4181 28.669 21.4181C27.7976 21.4181 27.3967 20.7261 27.3967 19.7935V16.8777C27.3967 15.9346 27.8503 15.251 28.9158 15.251C30.0362 15.251 30.3653 15.8713 30.3653 16.7616V17.2954H29.4412V16.6815C29.4412 16.308 29.2998 16.0949 28.9348 16.0949C28.5698 16.0949 28.4095 16.3523 28.4095 16.7173V19.9517C28.4095 20.3167 28.5614 20.5741 28.9074 20.5741C29.2365 20.5741 29.4053 20.3885 29.4053 19.996V18.9285H28.9264" fill="white"/>
<path d="M33.4858 15.3208V19.8823C33.4858 20.8149 33.0849 21.4183 32.0553 21.4183C30.9877 21.4183 30.5447 20.8149 30.5447 19.8823V15.3208H31.5574V19.9794C31.5574 20.3338 31.6988 20.5743 32.0553 20.5743C32.4098 20.5743 32.5533 20.3338 32.5533 19.9794V15.3208" fill="white"/>
<path d="M34.775 19.4371H35.5852L35.1843 17.0192H35.1759L34.775 19.4371ZM33.5049 21.3487L34.6421 15.3208H35.7962L36.944 21.3487H35.9038L35.7181 20.2452H34.6421L34.4628 21.3487" fill="white"/>
</svg>
