<svg width="100%" height="100%" viewBox="0 0 75 75" fill="none" xmlns="http://www.w3.org/2000/svg">
<path d="M0.178955 74.4638H73.9164V0.722168H0.178955V74.4638Z" fill="#B78830A6" stroke-width="4" stroke="#B78830"/>
<path d="M7.54017 10.4108H7.56127V21.7913H10.0615V6.92529H8.06342L5.76367 9.62169V12.2316H5.78477" fill="white"/>
<path d="M11.5509 9.99496V11.7926H13.8317V9.92745C13.8317 9.02865 14.2705 8.76702 14.798 8.76702C15.279 8.76702 15.6968 8.96324 15.6968 9.88525V11.1132C15.6968 12.3411 15.5871 12.8222 14.7748 13.6788L13.3717 15.1704C12.013 16.6178 11.5066 17.582 11.5066 19.0526V21.7933H17.9986V19.7531H13.8971V19.0526C13.8971 17.89 14.3148 17.4512 14.9499 16.7697L16.5513 15.0818C17.8446 13.702 18.1315 12.8222 18.1315 11.3326V9.88525C18.1315 7.7564 17.0998 6.75 14.8634 6.75C12.6691 6.75 11.5509 7.91253 11.5509 9.99496Z" fill="white"/>
<path d="M57.2419 40.2228C54.2353 37.8492 50.6296 37.5918 49.2181 37.5918C48.4754 37.5918 47.7855 37.6593 47.2812 37.7775L47.085 37.8239C45.1798 38.2733 41.9918 39.0265 38.2806 43.6323L38.1709 43.7673C38.1097 43.856 38.0801 43.9488 38.0801 44.0459C38.0801 44.1302 38.0991 44.2125 38.1434 44.2906L38.2278 44.4298C38.8397 45.4531 39.3503 46.3435 39.7554 47.0988C39.8988 47.3794 40.2871 47.4701 40.5487 47.2106C40.574 47.1769 40.6014 47.141 40.6183 47.1115C43.8232 42.6787 46.336 42.0879 47.9965 41.6976L48.2032 41.6491C48.4332 41.5942 48.8024 41.5625 49.2223 41.5625C49.9945 41.5625 52.6804 41.6912 54.7754 43.3454C56.6406 44.8159 57.5858 47.1663 57.5858 50.3332C57.5858 55.6353 55.0202 57.703 52.8681 58.5047C52.0453 58.8127 51.1613 58.9689 50.2371 58.9689C48.0197 58.9689 46.3128 58.0806 46.2896 58.068L46.1377 57.9941C44.2852 57.1903 41.5192 55.515 38.9072 50.2657C33.5482 39.5033 29.0478 38.4843 26.0666 37.8091L25.9105 37.7754C25.6826 37.7226 25.0391 37.6002 23.9905 37.6002C22.2646 37.6002 18.9437 37.942 16.0996 40.2122C14.1565 41.7609 11.8398 44.7716 11.8398 50.31C11.8398 53.6858 12.5361 55.9159 14.3168 58.26C14.6523 58.7157 17.758 62.7265 23.7183 62.7265C24.6024 62.7265 25.518 62.6358 26.4422 62.4586C27.5309 62.2497 29.2103 61.7138 31.086 60.3361L32.6536 61.7497C32.8287 61.91 33.1304 61.8952 33.2887 61.7222C33.3646 61.6399 33.4068 61.5323 33.4026 61.4226L34.6158 53.9559V53.8672C34.6136 53.7406 34.5588 53.6204 34.4702 53.5423C34.39 53.4664 34.2866 53.4263 34.1558 53.4263H34.1516L26.881 55.437L26.7439 55.4602C26.651 55.4792 26.5709 55.5277 26.5118 55.5931C26.4295 55.6838 26.3873 55.802 26.3936 55.9222C26.4 56.0425 26.4548 56.1543 26.5434 56.2324L28.0499 57.5954C27.2566 58.0806 26.4654 58.4034 25.6953 58.5511C25.0391 58.6777 24.3914 58.741 23.7669 58.741C19.6484 58.741 17.6209 56.0362 17.5365 55.9222L17.4964 55.8674C16.241 54.2196 15.819 52.8186 15.819 50.31C15.819 47.1368 16.7474 44.7843 18.5808 43.3201C20.619 41.6934 23.2436 41.5668 23.999 41.5668C24.4125 41.5668 24.788 41.5984 25.0286 41.6533L25.191 41.6891C27.5688 42.2272 30.8264 42.9656 35.3437 52.038C37.7299 56.8274 40.7217 59.9605 44.4814 61.6125C44.9182 61.8362 47.2496 62.9481 50.2414 62.9481C51.636 62.9481 52.9884 62.7075 54.2585 62.2349C56.4549 61.4142 61.565 58.6144 61.565 50.3332C61.565 44.797 59.2146 41.7799 57.2419 40.2228Z" fill="white"/>
<path d="M23.7185 11.3599V8.44408C23.7185 7.50098 24.1616 6.81738 25.2292 6.81738C26.3495 6.81738 26.6596 7.43979 26.6596 8.32804V9.03906H25.7355V8.24787C25.7355 7.87442 25.6132 7.66133 25.2482 7.66133C24.8831 7.66133 24.7312 7.91873 24.7312 8.28373V11.5203C24.7312 11.8853 24.8831 12.1427 25.2482 12.1427C25.6132 12.1427 25.7355 11.9106 25.7355 11.5561V10.4442H26.6596V11.4844C26.6596 12.3473 26.3052 12.9866 25.2292 12.9866C24.1616 12.9866 23.7185 12.2946 23.7185 11.3599Z" fill="white"/>
<path d="M29.2569 11.5203V8.28373C29.2569 7.91873 29.0966 7.66133 28.7316 7.66133C28.3771 7.66133 28.2167 7.91873 28.2167 8.28373V11.5203C28.2167 11.8853 28.3771 12.1427 28.7316 12.1427C29.0966 12.1427 29.2569 11.8853 29.2569 11.5203ZM27.2019 11.3599V8.44408C27.2019 7.50098 27.6661 6.81738 28.7316 6.81738C29.8076 6.81738 30.2717 7.50098 30.2717 8.44408V11.3599C30.2717 12.2946 29.8076 12.9866 28.7316 12.9866C27.6661 12.9866 27.2019 12.2946 27.2019 11.3599Z" fill="white"/>
<path d="M31.6915 9.12772V12.9149H30.8391V6.88916H31.835L32.9279 10.3472V6.88916H33.7718V12.9149H32.8836" fill="white"/>
<path d="M34.2888 11.6173V10.8092H35.2298V11.6363C35.2298 11.9739 35.3817 12.168 35.7277 12.168C36.0484 12.168 36.1898 11.9549 36.1898 11.6363V11.4042C36.1898 11.0582 36.0484 10.8451 35.7362 10.5518L35.1412 9.95474C34.5631 9.38719 34.2973 9.03906 34.2973 8.34492V8.14237C34.2973 7.39548 34.7319 6.81738 35.7193 6.81738C36.732 6.81738 37.1329 7.31531 37.1329 8.18668V8.67617H36.2088V8.15081C36.2088 7.80269 36.0484 7.63601 35.7277 7.63601C35.4429 7.63601 35.2488 7.79425 35.2488 8.13182V8.25631C35.2488 8.59388 35.4345 8.7901 35.7277 9.07493L36.3776 9.71422C36.9282 10.2754 37.1941 10.613 37.1941 11.2797V11.573C37.1941 12.4001 36.751 12.9866 35.7193 12.9866C34.6876 12.9866 34.2888 12.4085 34.2888 11.6173Z" fill="white"/>
<path d="M40.6627 6.88916V11.4486C40.6627 12.3832 40.2619 12.9866 39.2301 12.9866C38.1647 12.9866 37.7195 12.3832 37.7195 11.4486V6.88916H38.7322V11.5477C38.7322 11.9022 38.8757 12.1427 39.2301 12.1427C39.5867 12.1427 39.7281 11.9022 39.7281 11.5477V6.88916" fill="white"/>
<path d="M44.0133 9.00535H43.9858L43.3022 12.9149H42.8317L42.0743 9.00535H42.0574V12.9149H41.2219V6.88916H42.4056L43.0617 10.2839H43.0702L43.6567 6.88916H44.9374V12.9149H44.0133" fill="white"/>
<path d="M47.5597 11.5203V8.28373C47.5597 7.91873 47.3994 7.66133 47.0365 7.66133C46.6799 7.66133 46.5196 7.91873 46.5196 8.28373V11.5203C46.5196 11.8853 46.6799 12.1427 47.0365 12.1427C47.3994 12.1427 47.5597 11.8853 47.5597 11.5203ZM45.5068 11.3599V8.44408C45.5068 7.50098 45.9689 6.81738 47.0365 6.81738C48.1104 6.81738 48.5746 7.50098 48.5746 8.44408V11.3599C48.5746 12.2946 48.1104 12.9866 47.0365 12.9866C45.9689 12.9866 45.5068 12.2946 45.5068 11.3599Z" fill="white"/>
<path d="M50.0579 6.88916H52.4758V7.71411H51.0706V9.43998H52.0749V10.2586H51.0706V12.09H52.4758V12.9149H50.0579" fill="white"/>
<path d="M24.7312 16.5693V18.9428H25.1047C25.4507 18.9428 25.6026 18.7741 25.6026 18.4449V17.0587C25.6026 16.7296 25.4507 16.5693 25.1047 16.5693H24.7312ZM23.7185 15.7422H25.2207C26.244 15.7422 26.6153 16.2486 26.6153 17.0946V18.3647C26.6153 19.2087 26.244 19.7256 25.2207 19.7256H24.7312V21.77H23.7185" fill="white"/>
<path d="M28.242 16.5693V18.4449H28.5796C28.9277 18.4449 29.0796 18.2677 29.0796 17.947V17.0587C29.0796 16.7296 28.9277 16.5693 28.5796 16.5693H28.242ZM28.242 19.0061V21.77H27.2292V15.7422H28.704C29.7273 15.7422 30.1008 16.2486 30.1008 17.0946V17.8668C30.1008 18.5145 29.8708 18.8985 29.2927 19.0315L30.2611 21.77H29.1935" fill="white"/>
<path d="M32.7867 20.3733V17.1389C32.7867 16.7739 32.6263 16.5144 32.2613 16.5144C31.9048 16.5144 31.7444 16.7739 31.7444 17.1389V20.3733C31.7444 20.7383 31.9048 20.9957 32.2613 20.9957C32.6263 20.9957 32.7867 20.7383 32.7867 20.3733ZM30.7317 20.215V17.2971C30.7317 16.3561 31.1937 15.6704 32.2613 15.6704C33.3374 15.6704 33.7994 16.3561 33.7994 17.2971V20.215C33.7994 21.1476 33.3374 21.8417 32.2613 21.8417C31.1937 21.8417 30.7317 21.1476 30.7317 20.215Z" fill="white"/>
<path d="M35.905 20.943C36.3227 20.943 36.4831 20.694 36.4831 20.329V17.1748C36.4831 16.8182 36.3227 16.5693 35.905 16.5693H35.4788V20.943H35.905ZM37.4979 17.3604V20.1518C37.4979 21.0759 37.116 21.77 36.0295 21.77H34.4661V15.7422H36.0295C37.116 15.7422 37.4979 16.4258 37.4979 17.3604Z" fill="white"/>
<path d="M41.1057 15.7422V20.3037C41.1057 21.2363 40.7069 21.8418 39.6752 21.8418C38.6076 21.8418 38.1646 21.2363 38.1646 20.3037V15.7422H39.1773V20.4008C39.1773 20.7573 39.3186 20.9957 39.6752 20.9957C40.0297 20.9957 40.1731 20.7573 40.1731 20.4008V15.7422" fill="white"/>
<path d="M42.8402 22.384C43.125 22.3755 43.1693 22.3122 43.1693 22.2405C43.1693 22.1793 43.1166 22.1435 43.0259 22.1435H42.9815V21.8143C42.1207 21.7067 41.7642 21.059 41.7642 20.215V17.2971C41.7642 16.3561 42.2093 15.6704 43.2748 15.6704C44.3952 15.6704 44.7074 16.2928 44.7074 17.1832V17.8942H43.7833V17.103C43.7833 16.7296 43.6588 16.5165 43.2938 16.5165C42.9288 16.5165 42.7769 16.7739 42.7769 17.1389V20.3733C42.7769 20.7383 42.9288 20.9957 43.2938 20.9957C43.6588 20.9957 43.7833 20.7657 43.7833 20.4091V19.2994H44.7074V20.3395C44.7074 21.1835 44.3698 21.8059 43.3655 21.8417V21.9219C43.604 21.9578 43.739 22.0464 43.739 22.2405C43.739 22.5169 43.4816 22.6688 42.8402 22.6688" fill="white"/>
<path d="M46.4585 19.8588H47.2666L46.8678 17.4409H46.8573L46.4585 19.8588ZM45.9775 15.5019C45.9965 15.0842 46.1547 14.7466 46.5999 14.7466C46.8573 14.7466 47.0704 14.8985 47.2054 14.8985C47.275 14.8985 47.3299 14.8521 47.3299 14.7656H47.8278C47.8088 15.1833 47.6485 15.5209 47.2054 15.5209C46.948 15.5209 46.7328 15.369 46.5999 15.369C46.5281 15.369 46.4754 15.4133 46.4754 15.5019H45.9775ZM45.1863 21.7703L46.3256 15.7424H47.4797L48.6275 21.7703H47.5873L47.3995 20.669H46.3256L46.1463 21.7703" fill="white"/>
<path d="M51.1867 20.3733V17.1389C51.1867 16.7739 51.0263 16.5144 50.6634 16.5144C50.3069 16.5144 50.1465 16.7739 50.1465 17.1389V20.3733C50.1465 20.7383 50.3069 20.9957 50.6634 20.9957C51.0263 20.9957 51.1867 20.7383 51.1867 20.3733ZM49.1338 20.215V17.2971C49.1338 16.3561 49.5958 15.6704 50.6634 15.6704C51.7395 15.6704 52.2015 16.3561 52.2015 17.2971V20.215C52.2015 21.1476 51.7395 21.8417 50.6634 21.8417C49.5958 21.8417 49.1338 21.1476 49.1338 20.215Z" fill="white"/>
<path d="M24.7312 25.4221V27.2999H25.0688C25.4169 27.2999 25.5689 27.1227 25.5689 26.802V25.9116C25.5689 25.5825 25.4169 25.4221 25.0688 25.4221H24.7312ZM24.7312 27.859V30.625H23.7185V24.5972H25.1933C26.2166 24.5972 26.59 25.1035 26.59 25.9475V26.7218C26.59 27.3695 26.3579 27.7535 25.7798 27.8864L26.7504 30.625H25.6828" fill="white"/>
<path d="M27.168 24.5972H29.5859V25.4221H28.1807V27.148H29.185V27.9666H28.1807V29.798H29.5859V30.625H27.168" fill="white"/>
<path d="M30.0923 29.3274V28.5172H31.0354V29.3443C31.0354 29.6819 31.1852 29.8781 31.5312 29.8781C31.8519 29.8781 31.9933 29.665 31.9933 29.3443V29.1122C31.9933 28.7662 31.8519 28.5531 31.5418 28.2598L30.9447 27.6627C30.3666 27.0952 30.1007 26.7492 30.1007 26.055V25.8504C30.1007 25.1035 30.5354 24.5254 31.5228 24.5254C32.5355 24.5254 32.9364 25.0233 32.9364 25.8947V26.3842H32.0123V25.8588C32.0123 25.5107 31.8519 25.344 31.5312 25.344C31.2485 25.344 31.0523 25.5023 31.0523 25.8419V25.9664C31.0523 26.304 31.2379 26.5002 31.5312 26.7829L32.181 27.4243C32.7317 27.9834 32.9997 28.321 32.9997 28.9898V29.2831C32.9997 30.1081 32.5545 30.6946 31.5228 30.6946C30.491 30.6946 30.0923 30.1165 30.0923 29.3274Z" fill="white"/>
<path d="M34.563 25.4221V27.7978H34.9365C35.2846 27.7978 35.4344 27.629 35.4344 27.2999V25.9116C35.4344 25.5825 35.2846 25.4221 34.9365 25.4221H34.563ZM33.5503 24.5972H35.0525C36.0737 24.5972 36.4471 25.1035 36.4471 25.9475V27.2197C36.4471 28.0637 36.0737 28.5785 35.0525 28.5785H34.563V30.625H33.5503" fill="white"/>
<path d="M39.0529 29.2283V25.9917C39.0529 25.6267 38.8925 25.3693 38.5275 25.3693C38.1731 25.3693 38.0127 25.6267 38.0127 25.9917V29.2283C38.0127 29.5933 38.1731 29.8507 38.5275 29.8507C38.8925 29.8507 39.0529 29.5933 39.0529 29.2283ZM37 29.0679V26.1521C37 25.2111 37.4621 24.5254 38.5275 24.5254C39.6036 24.5254 40.0656 25.2111 40.0656 26.1521V29.0679C40.0656 30.0026 39.6036 30.6946 38.5275 30.6946C37.4621 30.6946 37 30.0026 37 29.0679Z" fill="white"/>
<path d="M41.5235 26.8378V30.625H40.6711V24.5972H41.667L42.7599 28.0552V24.5972H43.6038V30.625H42.7156" fill="white"/>
<path d="M44.1545 29.3274V28.5172H45.0976V29.3443C45.0976 29.6819 45.2496 29.8781 45.5956 29.8781C45.9163 29.8781 46.0576 29.665 46.0576 29.3443V29.1122C46.0576 28.7662 45.9163 28.5531 45.604 28.2598L45.009 27.6627C44.4309 27.0952 44.1651 26.7492 44.1651 26.055V25.8504C44.1651 25.1035 44.5997 24.5254 45.5871 24.5254C46.5999 24.5254 47.0007 25.0233 47.0007 25.8947V26.3842H46.0766V25.8588C46.0766 25.5107 45.9163 25.344 45.5956 25.344C45.3107 25.344 45.1145 25.5023 45.1145 25.8419V25.9664C45.1145 26.304 45.3023 26.5002 45.5956 26.7829L46.2433 27.4243C46.7961 27.9834 47.0619 28.321 47.0619 28.9898V29.2831C47.0619 30.1081 46.6189 30.6946 45.5871 30.6946C44.5554 30.6946 44.1545 30.1165 44.1545 29.3274Z" fill="white"/>
<path d="M48.7244 28.7135H49.5346L49.1337 26.2935H49.1253L48.7244 28.7135ZM49.9966 24.1689L48.4037 24.3735V23.806L49.9966 23.4663V24.1689ZM47.4521 30.6251L48.5915 24.5972H49.7477L50.8954 30.6251H49.8532L49.6675 29.5216H48.5915L48.4142 30.6251" fill="white"/>
<path d="M54.5836 24.5972L53.4359 30.625H52.3345L51.1868 24.5972H52.2185L52.9126 28.8021H52.9211L53.6321 24.5972" fill="white"/>
<path d="M55.0266 24.5972H57.4445V25.4221H56.0415V27.148H57.0457V27.9666H56.0415V29.798H57.4445V30.625H55.0266" fill="white"/>
<path d="M58.0059 30.625H59.0186V24.5972H58.0059V30.625Z" fill="white"/>
<path d="M59.5691 29.3274V28.5172H60.5122V29.3443C60.5122 29.6819 60.662 29.8781 61.0101 29.8781C61.3308 29.8781 61.4722 29.665 61.4722 29.3443V29.1122C61.4722 28.7662 61.3308 28.5531 61.0207 28.2598L60.4236 27.6627C59.8455 27.0952 59.5796 26.7492 59.5796 26.055V25.8504C59.5796 25.1035 60.0143 24.5254 61.0017 24.5254C62.0144 24.5254 62.4153 25.0233 62.4153 25.8947V26.3842H61.4912V25.8588C61.4912 25.5107 61.3308 25.344 61.0101 25.344C60.7253 25.344 60.5291 25.5023 60.5291 25.8419V25.9664C60.5291 26.304 60.7169 26.5002 61.0101 26.7829L61.66 27.4243C62.2106 27.9834 62.4765 28.321 62.4765 28.9898V29.2831C62.4765 30.1081 62.0334 30.6946 61.0017 30.6946C59.97 30.6946 59.5691 30.1165 59.5691 29.3274Z" fill="white"/>
</svg>
