<svg width="100%" height="100%" viewBox="0 0 75 75" fill="none" xmlns="http://www.w3.org/2000/svg">
<path d="M0.485107 74.4617H74.2246V0.722168H0.485107V74.4617Z" fill="#E46830A6" stroke-width="4" stroke="#E46830"/>
<path d="M11.5133 12.9214C11.469 13.7548 11.1187 14.2802 10.3296 14.2802C9.47725 14.2802 9.14601 13.7548 9.14601 12.7906V10.204C9.14601 9.26295 9.49624 8.71439 10.3528 8.71439C11.1841 8.71439 11.5133 9.28405 11.5133 10.204V12.9214ZM13.9902 10.6428C13.9902 8.34095 12.9817 6.67627 10.3528 6.67627C7.69864 6.67627 6.67114 8.12152 6.67114 10.4234V12.6155C6.67114 15.0482 7.63324 16.274 9.43295 16.274C10.4837 16.274 11.1187 15.793 11.4922 15.0714H11.5133V18.2699C11.5133 19.1687 11.163 19.8038 10.2642 19.8038C9.36543 19.8038 9.03629 19.2784 9.03629 18.3564V17.3732H6.75765V18.1602C6.75765 20.3524 7.54673 21.8862 10.3085 21.8862C12.9374 21.8862 13.9902 20.1983 13.9902 17.8754" fill="white"/>
<path d="M55.2948 59.8276L47.4251 64.3701V55.2872L55.2948 50.7425V59.8276ZM29.2993 64.3701V55.9771L36.5699 60.1736L29.2993 64.3701ZM28.103 64.3701L20.2354 59.8276V50.7425L28.103 55.2872V64.3701ZM36.5699 39.2417L29.2993 43.4403V35.0452L36.5699 39.2417ZM46.2288 43.4403L38.9624 39.2417L46.2288 35.0452V43.4403ZM38.9624 49.7087L46.828 45.1662L54.6957 49.7066L46.828 54.2512L38.9624 49.7087ZM37.167 48.6728L29.8985 44.4742L37.167 40.2776V48.6728ZM45.6317 44.4763L38.3632 48.6728V40.2776L45.6317 44.4763ZM37.167 59.1377L29.8964 54.9412L37.167 50.7425V59.1377ZM56.1915 49.1897L47.4251 44.1302V34.0093C47.4251 33.7962 47.3111 33.5978 47.1255 33.4923L38.0636 28.2599C37.878 28.1523 37.6522 28.1523 37.4666 28.2599L28.4026 33.4923C28.2169 33.5978 28.103 33.7962 28.103 34.0093V44.1302L19.3387 49.1897C19.153 49.2952 19.0391 49.4935 19.0391 49.7066V60.1736C19.0391 60.3888 19.153 60.585 19.3387 60.6926L28.4026 65.923C28.4954 65.9778 28.5988 66.0052 28.7022 66.0052C28.8056 66.0052 28.909 65.9778 28.9997 65.923L37.764 60.8656L46.5305 65.923C46.6212 65.9778 46.7246 66.0052 46.828 66.0052C46.9314 66.0052 47.0348 65.9778 47.1255 65.923L56.1915 60.6926C56.3751 60.585 56.489 60.3888 56.489 60.1736V49.7066C56.489 49.4935 56.3751 49.2952 56.1915 49.1897Z" fill="white"/>
<path d="M17.887 12.7653H18.8533V7.01807H17.887V12.7653Z" fill="white"/>
<path d="M20.0982 9.15324V12.7653H19.2859V7.01807H20.2353L21.2776 10.3158V7.01807H22.0814V12.7653H21.2354" fill="white"/>
<path d="M23.8791 11.9762C24.2779 11.9762 24.4298 11.7399 24.4298 11.3918V8.38314C24.4298 8.04346 24.2779 7.80504 23.8791 7.80504H23.4719V11.9762H23.8791ZM25.3961 8.56037V11.223C25.3961 12.1049 25.0311 12.7653 23.9973 12.7653H22.5056V7.01807H23.9973C25.0311 7.01807 25.3961 7.67001 25.3961 8.56037Z" fill="white"/>
<path d="M28.0333 6.61072L26.5163 6.80483V6.26259L28.0333 5.94189V6.61072ZM28.6262 7.01792V11.3663C28.6262 12.2567 28.2443 12.8327 27.2611 12.8327C26.2441 12.8327 25.8201 12.2567 25.8201 11.3663V7.01792H26.7864V11.4592C26.7864 11.7989 26.9214 12.0267 27.2611 12.0267C27.6008 12.0267 27.7358 11.7989 27.7358 11.4592V7.01792" fill="white"/>
<path d="M28.9998 11.527V10.7569H29.8986V11.546C29.8986 11.8667 30.042 12.0544 30.3733 12.0544C30.6771 12.0544 30.8142 11.8498 30.8142 11.546V11.3244C30.8142 10.9932 30.6771 10.7906 30.3817 10.51L29.8142 9.94246C29.2614 9.40023 29.0082 9.06898 29.0082 8.40859V8.21449C29.0082 7.50136 29.4238 6.95068 30.3648 6.95068C31.3311 6.95068 31.713 7.4254 31.713 8.25458V8.72296H30.8311V8.22082C30.8311 7.89168 30.6771 7.72922 30.3733 7.72922C30.1032 7.72922 29.9154 7.88113 29.9154 8.20605V8.3242C29.9154 8.6449 30.0927 8.83268 30.3733 9.10274L30.9915 9.7146C31.5168 10.2463 31.7721 10.5691 31.7721 11.2063V11.4848C31.7721 12.2739 31.348 12.833 30.3648 12.833C29.3816 12.833 28.9998 12.2823 28.9998 11.527Z" fill="white"/>
<path d="M31.8311 7.01807H34.3988V7.80715H33.6033V12.7653H32.6286V7.80715H31.8311" fill="white"/>
<path d="M35.688 7.80715V9.5942H36.0108C36.3399 9.5942 36.4855 9.42541 36.4855 9.11948V8.27343C36.4855 7.95906 36.3399 7.80715 36.0108 7.80715H35.688ZM35.688 10.1301V12.7653H34.7217V7.01807H36.129C37.1037 7.01807 37.4603 7.50122 37.4603 8.30719V9.04353C37.4603 9.66383 37.2387 10.0267 36.6881 10.1554L37.6122 12.7653H36.5952" fill="white"/>
<path d="M37.6458 12.7653H38.6121V7.01807H37.6458V12.7653Z" fill="white"/>
<path d="M40.1039 10.9424H40.8761L40.4942 8.63633H40.4858L40.1039 10.9424ZM38.8928 12.7653L39.9773 7.01807H41.0786L42.1715 12.7653H41.182L41.0027 11.7146H39.9773L39.8085 12.7653" fill="white"/>
<path d="M43.4352 11.9194L42.9436 13.2148H42.4014L42.5195 11.8413H43.4352" fill="white"/>
<path d="M44.623 12.7653H45.5894V7.01807H44.623V12.7653Z" fill="white"/>
<path d="M46.8343 9.15324V12.7653H46.022V7.01807H46.9714L48.0137 10.3158V7.01807H48.8175V12.7653H47.9715" fill="white"/>
<path d="M51.1996 11.4341V8.34952C51.1996 8.00139 51.0477 7.75665 50.6996 7.75665C50.362 7.75665 50.208 8.00139 50.208 8.34952V11.4341C50.208 11.7823 50.362 12.027 50.6996 12.027C51.0477 12.027 51.1996 11.7823 51.1996 11.4341ZM49.2417 11.2822V8.50143C49.2417 7.60263 49.6827 6.95068 50.6996 6.95068C51.7271 6.95068 52.166 7.60263 52.166 8.50143V11.2822C52.166 12.1726 51.7271 12.833 50.6996 12.833C49.6827 12.833 49.2417 12.1726 49.2417 11.2822Z" fill="white"/>
<path d="M55.6852 7.01807L54.5923 12.7653H53.5394L52.4465 7.01807H53.4297L54.0922 11.0268H54.1007L54.7779 7.01807" fill="white"/>
<path d="M57.0164 10.9424H57.7865L57.4067 8.63633H57.3983L57.0164 10.9424ZM55.8032 12.7653L56.8877 7.01807H57.9911L59.0841 12.7653H58.0924L57.9131 11.7146H56.8877L56.7189 12.7653" fill="white"/>
<path d="M60.3816 13.3499C60.6517 13.3414 60.6939 13.2824 60.6939 13.2148C60.6939 13.1558 60.6432 13.122 60.5588 13.122H60.5166V12.8076C59.6938 12.7064 59.3562 12.0882 59.3562 11.2822V8.50143C59.3562 7.60263 59.7782 6.95068 60.7972 6.95068C61.8648 6.95068 62.1602 7.54355 62.1602 8.39172V9.06898H61.2804V8.31365C61.2804 7.9592 61.1601 7.75665 60.812 7.75665C60.466 7.75665 60.3204 8.00139 60.3204 8.34952V11.4341C60.3204 11.7823 60.466 12.027 60.812 12.027C61.1601 12.027 61.2804 11.8076 61.2804 11.47V10.4087H62.1602V11.4025C62.1602 12.2063 61.8395 12.7992 60.8816 12.833V12.911C61.1095 12.9427 61.2361 13.0292 61.2361 13.2148C61.2361 13.4786 60.9913 13.6221 60.3816 13.6221" fill="white"/>
<path d="M63.6204 10.9421H64.3905L64.0086 8.63606H64.0023L63.6204 10.9421ZM63.1626 6.78782C63.1794 6.39117 63.3313 6.06836 63.7554 6.06836C64.0023 6.06836 64.2048 6.21183 64.3314 6.21183C64.3989 6.21183 64.4496 6.16963 64.4496 6.08524H64.9243C64.9074 6.484 64.7555 6.8047 64.3314 6.8047C64.0846 6.8047 63.882 6.66123 63.7554 6.66123C63.6879 6.66123 63.6352 6.70343 63.6352 6.78782H63.1626ZM62.4072 12.765L63.4917 7.0178H64.5951L65.6881 12.765H64.6964L64.5192 11.7143H63.4917L63.3229 12.765" fill="white"/>
<path d="M67.916 11.4341V8.34952C67.916 8.00139 67.764 7.75665 67.4159 7.75665C67.0783 7.75665 66.9243 8.00139 66.9243 8.34952V11.4341C66.9243 11.7823 67.0783 12.027 67.4159 12.027C67.764 12.027 67.916 11.7823 67.916 11.4341ZM65.958 11.2822V8.50143C65.958 7.60263 66.399 6.95068 67.4159 6.95068C68.4413 6.95068 68.8823 7.60263 68.8823 8.50143V11.2822C68.8823 12.1726 68.4413 12.833 67.4159 12.833C66.399 12.833 65.958 12.1726 65.958 11.2822Z" fill="white"/>
<path d="M17.887 15.875H20.1909V16.6641H18.8533V18.3098H19.8112V19.0883H18.8533V20.8353H20.1909V21.6244H17.887" fill="white"/>
<path d="M21.5054 21.6247H22.4717V15.8774H21.5054V21.6247Z" fill="white"/>
<path d="M23.8032 18.0123V21.6244H22.9888V15.875H23.9382L24.9805 19.1727V15.875H25.7864V21.6244H24.9383" fill="white"/>
<path d="M26.2949 15.875H28.5588V16.6641H27.2612V18.3098H28.2276V19.0883H27.2612V21.6244H26.2949" fill="white"/>
<path d="M29.907 16.6644V18.4536H30.2298C30.5589 18.4536 30.7045 18.2848 30.7045 17.9789V17.1307C30.7045 16.8184 30.5589 16.6644 30.2298 16.6644H29.907ZM29.907 18.9874V21.6247H28.9407V15.8774H30.3479C31.3227 15.8774 31.6772 16.3606 31.6772 17.1645V17.9029C31.6772 18.5211 31.4577 18.8861 30.9071 19.0127L31.8312 21.6247H30.8121" fill="white"/>
<path d="M33.2132 19.8014H33.9833L33.6035 17.4954H33.5951L33.2132 19.8014ZM32 21.6244L33.0845 15.875H34.1879L35.2808 21.6244H34.2892L34.112 20.5737H33.0845L32.9157 21.6244" fill="white"/>
<path d="M35.6372 15.875H37.9433V16.6641H36.6035V18.3098H37.5614V19.0883H36.6035V20.8353H37.9433V21.6244H35.6372" fill="white"/>
<path d="M38.3589 20.386V19.6159H39.2556V20.4029C39.2556 20.7257 39.4012 20.9114 39.7303 20.9114C40.0362 20.9114 40.1713 20.7088 40.1713 20.4029V20.1835C40.1713 19.8522 40.0362 19.6476 39.7387 19.3691L39.1712 18.8015C38.6205 18.2593 38.3652 17.928 38.3652 17.2655V17.0714C38.3652 16.3583 38.7809 15.8076 39.7219 15.8076C40.6882 15.8076 41.0701 16.2823 41.0701 17.1136V17.5799H40.1881V17.0799C40.1881 16.7486 40.0362 16.5883 39.7303 16.5883C39.4602 16.5883 39.2725 16.7402 39.2725 17.063V17.1811C39.2725 17.5039 39.4518 17.6896 39.7303 17.9618L40.3506 18.5715C40.8759 19.1053 41.1291 19.4281 41.1291 20.0653V20.3438C41.1291 21.1329 40.705 21.692 39.7219 21.692C38.7387 21.692 38.3589 21.1413 38.3589 20.386Z" fill="white"/>
<path d="M41.4773 15.875H44.045V16.6641H43.2496V21.6244H42.2748V16.6641H41.4773" fill="white"/>
<path d="M45.4185 16.6644V18.4536H45.7413C46.0704 18.4536 46.216 18.2848 46.216 17.9789V17.1307C46.216 16.8184 46.0704 16.6644 45.7413 16.6644H45.4185ZM45.4185 18.9874V21.6247H44.4521V15.8774H45.8594C46.8342 15.8774 47.1907 16.3606 47.1907 17.1645V17.9029C47.1907 18.5211 46.9692 18.8861 46.4185 19.0127L47.3427 21.6247H46.3257" fill="white"/>
<path d="M50.4716 15.875V20.2255C50.4716 21.1159 50.0898 21.6919 49.1066 21.6919C48.0896 21.6919 47.6655 21.1159 47.6655 20.2255V15.875H48.6318V20.3184C48.6318 20.658 48.7669 20.8859 49.1066 20.8859C49.4462 20.8859 49.5813 20.658 49.5813 20.3184V15.875" fill="white"/>
<path d="M50.8621 15.875H53.4298V16.6641H52.6322V21.6244H51.6575V16.6641H50.8621" fill="white"/>
<path d="M56.643 15.875V20.2255C56.643 21.1159 56.2611 21.6919 55.2779 21.6919C54.261 21.6919 53.8369 21.1159 53.8369 20.2255V15.875H54.8032V20.3184C54.8032 20.658 54.9383 20.8859 55.2779 20.8859C55.6176 20.8859 55.7527 20.658 55.7527 20.3184V15.875" fill="white"/>
<path d="M58.1094 16.6644V18.4536H58.4301C58.7613 18.4536 58.9069 18.2848 58.9069 17.9789V17.1307C58.9069 16.8184 58.7613 16.6644 58.4301 16.6644H58.1094ZM58.1094 18.9874V21.6247H57.1431V15.8774H58.5503C59.5251 15.8774 59.8796 16.3606 59.8796 17.1645V17.9029C59.8796 18.5211 59.6601 18.8861 59.1095 19.0127L60.0336 21.6247H59.0166" fill="white"/>
<path d="M61.4239 19.8014H62.194L61.8142 17.4954H61.8057L61.4239 19.8014ZM60.2107 21.6244L61.2973 15.875H62.3986L63.4915 21.6244H62.4999L62.3227 20.5737H61.2973L61.1264 21.6244" fill="white"/>
</svg>
