<svg width="100%" height="100%" viewBox="0 0 75 75" fill="none" xmlns="http://www.w3.org/2000/svg">
<path d="M0 74.3397H73.7377V0.602051H0V74.3397Z" fill="#4C9F38A6" stroke-width="4" stroke="#4C9F38"/>
<path d="M10.5217 21.8494C13.043 21.8494 14.1401 20.5118 14.1401 18.4527V16.2586C14.1401 14.8999 13.5472 14.0223 12.2982 13.7375C13.3278 13.4083 14.0072 12.575 14.0072 11.326V10.0306C14.0072 7.92722 12.9986 6.63184 10.6968 6.63184C8.10798 6.63184 7.20918 8.16562 7.20918 10.3598V11.6741H9.48994V10.1635C9.48994 9.24159 9.77689 8.71626 10.566 8.71626C11.3551 8.71626 11.6378 9.24159 11.6378 10.0517V11.653C11.6378 12.4442 11.1124 12.8598 10.3022 12.8598H9.35913V14.7691H10.412C11.2875 14.7691 11.6378 15.1847 11.6378 15.9738V18.4295C11.6378 19.2186 11.2875 19.7671 10.5217 19.7671C9.66506 19.7671 9.35913 19.1975 9.35913 18.3198V16.1932H7.07837V18.1447C7.07837 20.4021 7.97717 21.8494 10.5217 21.8494Z" fill="white"/>
<path d="M61.6352 46.6852C61.6352 44.6113 60.3038 42.9277 58.2889 42.9277C57.2804 42.9277 56.063 44.0332 55.4026 44.7126C54.7422 44.0311 53.6071 42.9277 52.5986 42.9277C50.5816 42.9277 49.168 44.6092 49.168 46.6852C49.168 47.7211 49.5752 48.662 50.2377 49.3414L55.4068 54.5208L60.5697 49.3477L60.5655 49.3435C61.2258 48.6641 61.6352 47.7232 61.6352 46.6852Z" fill="white"/>
<path d="M39.6282 62.9744C39.6113 62.9744 39.5944 62.9744 39.5754 62.9744C39.183 62.949 38.8581 62.6579 38.7927 62.2697L36.1659 46.9783L32.1888 54.3518C32.0137 54.6746 31.6508 54.8497 31.2921 54.7843C30.9313 54.721 30.6549 54.432 30.6022 54.0691L28.9143 42.2672L25.8233 49.2062C25.6883 49.5121 25.3824 49.7104 25.049 49.7104H13.0418C12.5734 49.7104 12.1936 49.3306 12.1936 48.8623C12.1936 48.3918 12.5734 48.0121 13.0418 48.0121H24.4962L28.5619 38.8874C28.7138 38.5414 29.0788 38.3389 29.4544 38.3916C29.8279 38.4444 30.1232 38.7376 30.176 39.111L31.9166 51.28L35.8389 44.0078C36.0119 43.6892 36.3663 43.5141 36.725 43.5732C37.0816 43.6301 37.3622 43.9107 37.4234 44.2673L39.8539 58.4279L48.7175 28.9927C48.8187 28.6573 49.1141 28.4189 49.4622 28.3914C49.8125 28.3661 50.1437 28.5539 50.2956 28.8682L54.9584 38.5351C55.161 38.957 54.9838 39.4655 54.5618 39.668C54.1398 39.8727 53.6313 39.6954 53.4288 39.2735L49.7133 31.5729L40.4426 62.371C40.3329 62.7317 40.0016 62.9744 39.6282 62.9744Z" fill="white"/>
<path d="M21.0095 11.5098V10.6996H21.9505V11.5267C21.9505 11.8642 22.1024 12.0604 22.4484 12.0604C22.7691 12.0604 22.9105 11.8473 22.9105 11.5267V11.2946C22.9105 10.9486 22.7691 10.7355 22.459 10.4423L21.8619 9.84731C21.2838 9.27768 21.018 8.92957 21.018 8.23757V8.03293C21.018 7.28608 21.4526 6.70801 22.44 6.70801C23.4549 6.70801 23.8536 7.20591 23.8536 8.07723V8.56669H22.9295V8.04137C22.9295 7.69537 22.7691 7.52659 22.4484 7.52659C22.1636 7.52659 21.9695 7.68693 21.9695 8.02449V8.14896C21.9695 8.48652 22.1552 8.68062 22.4484 8.96543L23.0983 9.6068C23.649 10.1659 23.9148 10.5034 23.9148 11.1722V11.4634C23.9148 12.2904 23.4717 12.879 22.44 12.879C21.4083 12.879 21.0095 12.2988 21.0095 11.5098Z" fill="white"/>
<path d="M25.6498 10.8954H26.46L26.0591 8.47553H26.0507L25.6498 10.8954ZM24.3796 12.8068L25.5169 6.7793H26.6731L27.8187 12.8068H26.7786L26.5929 11.7034H25.5169L25.3396 12.8068" fill="white"/>
<path d="M30.6451 6.35131L29.0542 6.55596V5.98844L30.6451 5.65088V6.35131ZM31.2675 6.77959V11.3387C31.2675 12.2734 30.8687 12.8768 29.837 12.8768C28.7694 12.8768 28.3242 12.2734 28.3242 11.3387V6.77959H29.3391V11.4379C29.3391 11.7945 29.4804 12.0329 29.837 12.0329C30.1914 12.0329 30.3349 11.7945 30.3349 11.4379V6.77959" fill="white"/>
<path d="M33.3763 11.9798C33.7941 11.9798 33.9544 11.7309 33.9544 11.3659V8.2097C33.9544 7.85527 33.7941 7.60632 33.3763 7.60632H32.9501V11.9798H33.3763ZM34.9672 8.39747V11.1887C34.9672 12.1127 34.5853 12.8068 33.5008 12.8068H31.9353V6.7793H33.5008C34.5853 6.7793 34.9672 7.46285 34.9672 8.39747Z" fill="white"/>
<path d="M35.6345 6.7793H38.0524V7.60632H36.6473V9.32998H37.6537V10.1486H36.6473V11.9798H38.0524V12.8068H35.6345" fill="white"/>
<path d="M39.6946 6.7793H42.1146V7.60632H40.7073V9.32998H41.7137V10.1486H40.7073V11.9798H42.1146V12.8068H39.6946" fill="white"/>
<path d="M22.0755 18.7985V20.6825H22.5207C22.8582 20.6825 23.0186 20.5137 23.0186 20.193V19.2858C23.0186 18.9651 22.8667 18.7985 22.5122 18.7985H22.0755ZM22.0755 18.0242H22.432C22.7612 18.0242 22.911 17.8554 22.911 17.5347V16.7963C22.911 16.4672 22.7612 16.309 22.4236 16.309H22.0755V18.0242ZM21.0627 15.4819H22.5291C23.5439 15.4819 23.8815 15.9524 23.8815 16.8069V17.4187C23.8815 17.9271 23.6937 18.2457 23.276 18.3807C23.7845 18.4946 24.0313 18.8322 24.0313 19.385V20.1846C24.0313 21.0369 23.6494 21.5095 22.6367 21.5095H21.0627" fill="white"/>
<path d="M24.6287 15.4819H27.0466V16.309H25.6414V18.0326H26.6457V18.8512H25.6414V20.6825H27.0466V21.5095H24.6287" fill="white"/>
<path d="M30.4693 17.598H30.4419L29.7583 21.5095H29.2878L28.5304 17.598H28.5135V21.5095H27.678V15.4819H28.8595L29.5178 18.8765H29.5262L30.1128 15.4819H31.3934V21.5095H30.4693" fill="white"/>
<path d="M31.9966 19.1173H33.4207V18.3008H31.9966V19.1173Z" fill="white"/>
<path d="M34.0156 15.4819H36.4335V16.309H35.0284V18.0326H36.0348V18.8512H35.0284V20.6825H36.4335V21.5095H34.0156" fill="white"/>
<path d="M37.012 20.2124V19.4023H37.9551V20.2293C37.9551 20.5669 38.1049 20.7631 38.453 20.7631C38.7716 20.7631 38.9151 20.55 38.9151 20.2293V19.9972C38.9151 19.6512 38.7716 19.4381 38.4614 19.1449L37.8665 18.5499C37.2884 17.9803 37.0204 17.6343 37.0204 16.9402V16.7356C37.0204 15.9887 37.4571 15.4106 38.4425 15.4106C39.4573 15.4106 39.8582 15.9085 39.8582 16.7799V17.2693H38.9319V16.744C38.9319 16.398 38.7716 16.2292 38.453 16.2292C38.1682 16.2292 37.972 16.3896 37.972 16.7271V16.8516C37.972 17.1892 38.1597 17.3854 38.453 17.6681L39.1007 18.3094C39.6514 18.8685 39.9194 19.2061 39.9194 19.8749V20.166C39.9194 20.993 39.4742 21.5816 38.4425 21.5816C37.4128 21.5816 37.012 21.0036 37.012 20.2124Z" fill="white"/>
<path d="M40.4255 15.4819H43.1198V16.309H42.2822V21.5095H41.261V16.309H40.4255" fill="white"/>
<path d="M44.7896 19.598H45.5977L45.1989 17.1803H45.1905L44.7896 19.598ZM43.5173 21.5095L44.6567 15.4819H45.8108L46.9585 21.5095H45.9184L45.7306 20.4061H44.6567L44.4773 21.5095" fill="white"/>
<path d="M48.4776 16.309V18.1845H48.8152C49.1633 18.1845 49.3131 18.0073 49.3131 17.6866V16.7963C49.3131 16.4672 49.1633 16.309 48.8152 16.309H48.4776ZM48.4776 18.7436V21.5095H47.4648V15.4819H48.9396C49.9629 15.4819 50.3364 15.9883 50.3364 16.8322V17.6064C50.3364 18.2562 50.1043 18.6381 49.5262 18.771L50.4967 21.5095H49.4291" fill="white"/>
</svg>
