<svg width="100%" height="100%" viewBox="0 0 75 75" fill="none" xmlns="http://www.w3.org/2000/svg">
<path d="M0.879639 74.3437H74.6191V0.602051H0.879639V74.3437Z" fill="#B91E2EA6" stroke-width="4" stroke="#B91E2E"/>
<path d="M10.2156 17.2888L12.4541 11.1702H12.4752V17.2888H10.2156ZM12.433 21.652H14.8003V19.2383H15.8088V17.2888H14.8003V6.78174H12.3444L8.02344 17.7045V19.2383H12.433" fill="white"/>
<path d="M33.5779 40.1431L20.3533 32.5054V57.2097L33.5779 61.1994V40.1431Z" fill="white"/>
<path d="M35.0317 40.1935V61.2077L48.3428 57.2074V32.5073L35.0317 40.1935Z" fill="white"/>
<path d="M58.7254 31.8805C58.7254 31.0154 58.0249 30.3149 57.1619 30.3149C56.2969 30.3149 55.5964 31.0154 55.5964 31.8805V33.5662H58.7254" fill="white"/>
<path d="M55.9846 56.7709H55.5964L57.1619 62.2396L58.7232 56.7709H58.335H58.7232V34.7925H55.5964V56.7709" fill="white"/>
<path d="M51.1825 33.5666L49.7668 32.4463V57.8806L35.0716 62.6278H33.5778L18.9481 58.541V32.4463L17.5303 33.5666V59.5347L33.5103 63.9591H35.1391L49.8807 59.2773L51.1825 58.8955" fill="white"/>
<path d="M24.0013 20.2996V17.0103C24.0013 16.6474 23.8388 16.39 23.4759 16.39C23.1194 16.39 22.959 16.6474 22.959 17.0103V20.2996C22.959 20.6561 23.1194 20.922 23.4759 20.922C23.8388 20.922 24.0013 20.6561 24.0013 20.2996ZM23.1025 22.0507V21.6414C22.2944 21.5001 21.9463 20.9051 21.9463 20.0865V17.1728C21.9463 16.2296 22.4083 15.5439 23.4759 15.5439C24.552 15.5439 25.014 16.2296 25.014 17.1728V20.0865C25.014 20.7447 24.7819 21.2595 24.2671 21.5085L25.014 21.652V22.4073" fill="white"/>
<path d="M28.6051 15.6157V20.1751C28.6051 21.1098 28.2042 21.7132 27.1746 21.7132C26.107 21.7132 25.6619 21.1098 25.6619 20.1751V15.6157H26.6767V20.2743C26.6767 20.6287 26.8181 20.8693 27.1746 20.8693C27.5291 20.8693 27.6704 20.6287 27.6704 20.2743V15.6157" fill="white"/>
<path d="M30.3562 19.7321H31.1643L30.7655 17.3142H30.755L30.3562 19.7321ZM29.084 21.6415L30.2233 15.6157H31.3774L32.5252 21.6415H31.485L31.2972 20.5401H30.2233L30.044 21.6415" fill="white"/>
<path d="M33.0146 15.6157H34.0274V20.8165H35.2363V21.6415H33.0146" fill="white"/>
<path d="M35.77 21.6415H36.7828V15.6157H35.77V21.6415Z" fill="white"/>
<path d="M38.8801 20.8165C39.2978 20.8165 39.4582 20.5676 39.4582 20.2026V17.0462C39.4582 16.6917 39.2978 16.4428 38.8801 16.4428H38.4539V20.8165H38.8801ZM40.4709 17.234V20.0253C40.4709 20.9494 40.089 21.6415 39.0046 21.6415H37.4412V15.6157H39.0046C40.089 15.6157 40.4709 16.2993 40.4709 17.234Z" fill="white"/>
<path d="M42.2327 19.7321H43.0408L42.642 17.3142H42.6315L42.2327 19.7321ZM40.9604 21.6415L42.0998 15.6157H43.2539L44.4016 21.6415H43.3615L43.1737 20.5401H42.0998L41.9204 21.6415" fill="white"/>
<path d="M46.33 20.8165C46.7478 20.8165 46.9081 20.5676 46.9081 20.2026V17.0462C46.9081 16.6917 46.7478 16.4428 46.33 16.4428H45.9038V20.8165H46.33ZM47.9209 17.234V20.0253C47.9209 20.9494 47.539 21.6415 46.4545 21.6415H44.8911V15.6157H46.4545C47.539 15.6157 47.9209 16.2993 47.9209 17.234Z" fill="white"/>
<path d="M48.5706 15.6157H50.9885V16.4428H49.5833V18.1665H50.5876V18.9852H49.5833V20.8165H50.9885V21.6415H48.5706" fill="white"/>
<path d="M21.9463 6.77979H24.3642V7.60685H22.959V9.3306H23.9633V10.1492H22.959V11.9806H24.3642V12.8076H21.9463" fill="white"/>
<path d="M26.4172 11.9806C26.8349 11.9806 26.9953 11.7316 26.9953 11.3666V8.21027C26.9953 7.85581 26.8349 7.60685 26.4172 7.60685H25.991V11.9806H26.4172ZM28.0101 8.39805V11.1894C28.0101 12.1135 27.6261 12.8076 26.5417 12.8076H24.9783V6.77979H26.5417C27.6261 6.77979 28.0101 7.46338 28.0101 8.39805Z" fill="white"/>
<path d="M31.6095 6.77979V11.3392C31.6095 12.2739 31.2086 12.8773 30.179 12.8773C29.1114 12.8773 28.6663 12.2739 28.6663 11.3392V6.77979H29.6811V11.4384C29.6811 11.7928 29.8225 12.0333 30.179 12.0333C30.5335 12.0333 30.6748 11.7928 30.6748 11.4384V6.77979" fill="white"/>
<path d="M32.2761 11.2505V8.33471C32.2761 7.39371 32.7213 6.70801 33.7889 6.70801C34.9071 6.70801 35.2173 7.33042 35.2173 8.22078V8.9318H34.2931V8.1406C34.2931 7.76716 34.1687 7.55406 33.8058 7.55406C33.4408 7.55406 33.2889 7.81146 33.2889 8.17647V11.4109C33.2889 11.7759 33.4408 12.0333 33.8058 12.0333C34.1687 12.0333 34.2931 11.8033 34.2931 11.4467V10.3349H35.2173V11.375C35.2173 12.2379 34.8628 12.8772 33.7889 12.8772C32.7213 12.8772 32.2761 12.1852 32.2761 11.2505Z" fill="white"/>
<path d="M36.7469 10.8961H37.5571L37.1563 8.47822H37.1478L36.7469 10.8961ZM35.4768 12.8076L36.614 6.77979H37.7702L38.9159 12.8076H37.8757L37.69 11.7042H36.614L36.4368 12.8076" fill="white"/>
<path d="M40.2767 13.4195C40.5615 13.411 40.6058 13.3477 40.6058 13.2781C40.6058 13.2148 40.5531 13.1789 40.4624 13.1789H40.4181V12.8519C39.5572 12.7443 39.2007 12.0945 39.2007 11.2505V8.33471C39.2007 7.39371 39.6459 6.70801 40.7113 6.70801C41.8317 6.70801 42.1439 7.33042 42.1439 8.22078V8.92969H41.2198V8.13849C41.2198 7.76716 41.0953 7.55195 40.7303 7.55195C40.3653 7.55195 40.2134 7.81146 40.2134 8.17647V11.4109C40.2134 11.7759 40.3653 12.0333 40.7303 12.0333C41.0953 12.0333 41.2198 11.8012 41.2198 11.4467V10.3349H42.1439V11.375C42.1439 12.219 41.8064 12.8414 40.8021 12.8772V12.9574C41.0405 12.9933 41.1734 13.0819 41.1734 13.2781C41.1734 13.5524 40.916 13.7043 40.2767 13.7043" fill="white"/>
<path d="M43.6715 10.8959H44.4817L44.0808 8.47798H44.0724L43.6715 10.8959ZM43.1926 6.53902C43.2094 6.12338 43.3698 5.78369 43.815 5.78369C44.0724 5.78369 44.2855 5.9356 44.4184 5.9356C44.4901 5.9356 44.5429 5.89129 44.5429 5.80057H45.0408C45.0239 6.22043 44.8636 6.55801 44.4184 6.55801C44.161 6.55801 43.9479 6.4061 43.815 6.4061C43.7432 6.4061 43.6905 6.45041 43.6905 6.53902H43.1926ZM42.4014 12.8074L43.5386 6.77954H44.6948L45.8404 12.8074H44.8003L44.6146 11.704H43.5386L43.3614 12.8074" fill="white"/>
<path d="M48.1781 11.4109V8.17647C48.1781 7.81146 48.0199 7.55195 47.6549 7.55195C47.2983 7.55195 47.1401 7.81146 47.1401 8.17647V11.4109C47.1401 11.7759 47.2983 12.0333 47.6549 12.0333C48.0199 12.0333 48.1781 11.7759 48.1781 11.4109ZM46.1252 11.2505V8.33471C46.1252 7.39371 46.5873 6.70801 47.6549 6.70801C48.7309 6.70801 49.193 7.39371 49.193 8.33471V11.2505C49.193 12.1852 48.7309 12.8772 47.6549 12.8772C46.5873 12.8772 46.1252 12.1852 46.1252 11.2505Z" fill="white"/>
<path d="M51.8767 11.9806C52.2944 11.9806 52.4548 11.7316 52.4548 11.3666V8.21027C52.4548 7.85581 52.2944 7.60685 51.8767 7.60685H51.4505V11.9806H51.8767ZM53.4675 8.39805V11.1894C53.4675 12.1135 53.0856 12.8076 52.0011 12.8076H50.4377V6.77979H52.0011C53.0856 6.77979 53.4675 7.46338 53.4675 8.39805Z" fill="white"/>
<path d="M53.9128 6.77979H56.3307V7.60685H54.9256V9.3306H55.9299V10.1492H54.9256V11.9806H56.3307V12.8076H53.9128" fill="white"/>
</svg>
