<svg width="100%" height="100%" viewBox="0 0 75 75" fill="none" xmlns="http://www.w3.org/2000/svg">
<path d="M0.1604 74.4638H73.8999V0.722168H0.1604V74.4638Z" fill="#EEBC26A6" stroke-width="4" stroke="#EEBC26"/>
<path d="M7.72412 8.94193H11.5852L8.24948 21.7699H10.7307L13.9967 9.20566V6.90381H7.72412" fill="white"/>
<path d="M37.0595 52.7957C33.9559 52.7957 31.4389 50.2808 31.4389 47.1751C31.4389 44.6517 33.0993 42.5186 35.3885 41.8055V43.8985C34.1965 44.5082 33.3799 45.7446 33.3799 47.1751C33.3799 49.2069 35.0277 50.8547 37.0595 50.8547C39.0934 50.8547 40.7391 49.2069 40.7391 47.1751C40.7391 45.7404 39.9184 44.5019 38.72 43.8943V41.8034C41.0134 42.5123 42.6802 44.6475 42.6802 47.1751C42.6802 50.2808 40.1652 52.7957 37.0595 52.7957ZM36.2578 40.7189C36.2578 40.3602 36.6186 39.9636 37.0616 39.9636C37.5047 39.9636 37.8634 40.3602 37.8634 40.7189V44.4302C37.8634 44.7888 37.5047 45.1813 37.0616 45.1813C36.6186 45.1813 36.2578 44.7888 36.2578 44.4302V40.7189ZM37.0574 36.4507C31.0886 36.4507 26.2507 41.2886 26.2507 47.2574C26.2507 53.2283 31.0886 58.0662 37.0574 58.0662C43.0262 58.0662 47.8641 53.2283 47.8641 47.2574C47.8641 41.2886 43.0262 36.4507 37.0574 36.4507Z" fill="white"/>
<path d="M24.6514 47.162C24.6514 46.6725 24.2189 46.2759 23.8222 46.2759H19.0877C18.6889 46.2759 18.2522 46.6725 18.2522 47.162C18.2522 47.6536 18.6889 48.0524 19.0877 48.0524H23.8222C24.2189 48.0524 24.6514 47.6536 24.6514 47.162Z" fill="white"/>
<path d="M55.8689 47.162C55.8689 46.6725 55.4343 46.2759 55.0376 46.2759H50.3052C49.9065 46.2759 49.4697 46.6725 49.4697 47.162C49.4697 47.6536 49.9065 48.0524 50.3052 48.0524H55.0376C55.4343 48.0524 55.8689 47.6536 55.8689 47.162Z" fill="white"/>
<path d="M37.0617 34.7561C37.5512 34.7561 37.9479 34.3215 37.9479 33.927V29.1924C37.9479 28.7937 37.5512 28.3569 37.0617 28.3569C36.5723 28.3569 36.1714 28.7937 36.1714 29.1924V33.927C36.1714 34.3215 36.5723 34.7561 37.0617 34.7561Z" fill="white"/>
<path d="M37.0617 65.9715C37.5512 65.9715 37.9479 65.5389 37.9479 65.1423V60.4099C37.9479 60.0111 37.5512 59.5723 37.0617 59.5723C36.5723 59.5723 36.1714 60.0111 36.1714 60.4099V65.1423C36.1714 65.5389 36.5723 65.9715 37.0617 65.9715Z" fill="white"/>
<path d="M26.2907 40.9995C26.5355 40.5733 26.3562 40.0142 26.0101 39.8179L21.9044 37.4676C21.5583 37.2692 20.9802 37.3958 20.7376 37.8199C20.4929 38.2461 20.6743 38.8115 21.0203 39.0099L25.1282 41.3603C25.4721 41.5565 26.0481 41.4257 26.2907 40.9995Z" fill="white"/>
<path d="M53.3854 56.5069C53.628 56.0807 53.4487 55.5216 53.1048 55.3233L48.9969 52.9729C48.6509 52.7745 48.0728 52.9011 47.8302 53.3273C47.5875 53.7535 47.769 54.3169 48.115 54.5152L52.2229 56.8656C52.5668 57.0618 53.1407 56.9331 53.3854 56.5069Z" fill="white"/>
<path d="M43.2267 36.3954C43.6507 36.6381 44.2099 36.4587 44.4082 36.1169L46.7586 32.009C46.9569 31.6609 46.8303 31.0849 46.4041 30.8402C45.9779 30.5975 45.4125 30.779 45.2163 31.125L42.8638 35.2329C42.6676 35.5768 42.7984 36.1528 43.2267 36.3954Z" fill="white"/>
<path d="M27.7192 63.4906C28.1454 63.7332 28.7045 63.5539 28.9008 63.2079L31.2533 59.1021C31.4495 58.7561 31.3229 58.178 30.8967 57.9354C30.4726 57.6906 29.9072 57.8721 29.7109 58.2181L27.3585 62.326C27.1622 62.6699 27.2931 63.2459 27.7192 63.4906Z" fill="white"/>
<path d="M30.8756 36.4081C31.3018 36.1634 31.4284 35.5895 31.2322 35.2456L28.8712 31.1419C28.6729 30.7959 28.1117 30.6144 27.6855 30.8592C27.2593 31.1039 27.1327 31.6841 27.331 32.028L29.6898 36.1296C29.8882 36.4735 30.4494 36.6507 30.8756 36.4081Z" fill="white"/>
<path d="M46.4378 63.4691C46.8619 63.2244 46.9885 62.6505 46.7923 62.3066L44.4334 58.2029C44.233 57.8569 43.6718 57.6755 43.2477 57.9202C42.8215 58.165 42.6928 58.7431 42.8932 59.0912L45.2521 63.1928C45.4483 63.5367 46.0116 63.7139 46.4378 63.4691Z" fill="white"/>
<path d="M47.8178 40.9803C48.0625 41.4044 48.6364 41.5331 48.9803 41.3368L53.0819 38.9759C53.4279 38.7776 53.6115 38.2143 53.3667 37.7902C53.122 37.364 52.5439 37.2353 52.1957 37.4357L48.0942 39.7945C47.7503 39.9929 47.573 40.5541 47.8178 40.9803Z" fill="white"/>
<path d="M20.7568 56.5428C21.0015 56.9669 21.5754 57.0956 21.9193 56.8972L26.0209 54.5384C26.3669 54.338 26.5504 53.7768 26.3036 53.3527C26.0609 52.9265 25.4807 52.7978 25.1347 52.9982L21.0331 55.357C20.6892 55.5533 20.512 56.1166 20.7568 56.5428Z" fill="white"/>
<path d="M21.2166 6.87646H23.6344V7.70353H22.2293V9.42939H23.2357V10.2459H22.2293V12.0773H23.6344V12.9043H21.2166" fill="white"/>
<path d="M24.9764 9.11746V12.9047H24.124V6.87891H25.1199L26.2128 10.3349V6.87891H27.0567V12.9047H26.1685" fill="white"/>
<path d="M27.5906 6.87646H30.0085V7.70353H28.6033V9.42939H29.6097V10.2459H28.6033V12.0773H30.0085V12.9043H27.5906" fill="white"/>
<path d="M31.5295 7.70353V9.57919H31.8671C32.2131 9.57919 32.365 9.40196 32.365 9.08127V8.19302C32.365 7.86388 32.2131 7.70353 31.8671 7.70353H31.5295ZM31.5295 10.1404V12.9043H30.5146V6.87646H31.9894C33.0127 6.87646 33.3862 7.38494 33.3862 8.22888V9.0032C33.3862 9.65093 33.1562 10.0328 32.5781 10.1678L33.5465 12.9043H32.4789" fill="white"/>
<path d="M35.3336 9.68708H36.7725V12.9046H36.0446V12.2463C35.9117 12.7 35.6269 12.9764 35.0762 12.9764C34.2048 12.9764 33.804 12.2822 33.804 11.3497V8.43383C33.804 7.49072 34.2576 6.80713 35.3252 6.80713C36.4434 6.80713 36.7725 7.42954 36.7725 8.31779V8.85158H35.8484V8.23761C35.8484 7.86417 35.707 7.65107 35.342 7.65107C34.977 7.65107 34.8167 7.90847 34.8167 8.27348V11.51C34.8167 11.8729 34.9686 12.1324 35.3146 12.1324C35.6438 12.1324 35.8125 11.9446 35.8125 11.5543V10.4867H35.3336" fill="white"/>
<path d="M37.2178 12.9047H38.2305V6.87891H37.2178V12.9047Z" fill="white"/>
<path d="M39.7959 10.9928H40.604L40.2052 8.5749H40.1947L39.7959 10.9928ZM38.5237 12.9043L39.663 6.87646H40.8192L41.9649 12.9043H40.9247L40.7369 11.803H39.663L39.4837 12.9043" fill="white"/>
<path d="M43.0493 6.87646H44.062V12.0773H45.271V12.9043H43.0493" fill="white"/>
<path d="M45.6003 12.9047H46.6131V6.87891H45.6003V12.9047Z" fill="white"/>
<path d="M49.858 8.99265H49.8327L49.147 12.9043H48.6765L47.9211 8.99265H47.9022V12.9043H47.0667V6.87646H48.2482L48.9064 10.2733H48.917L49.5035 6.87646H50.7821V12.9043H49.858" fill="white"/>
<path d="M52.24 7.70353V10.0771H52.6135C52.9616 10.0771 53.1114 9.90833 53.1114 9.57919V8.19302C53.1114 7.86388 52.9616 7.70353 52.6135 7.70353H52.24ZM51.2273 6.87646H52.7295C53.7507 6.87646 54.1262 7.38494 54.1262 8.22888V9.49902C54.1262 10.3451 53.7507 10.8599 52.7295 10.8599H52.24V12.9043H51.2273" fill="white"/>
<path d="M55.6284 10.9928H56.4365L56.0356 8.5749H56.0272L55.6284 10.9928ZM54.3562 12.9043L55.4934 6.87646H56.6496L57.7974 12.9043H56.7551L56.5694 11.803H55.4934L55.3162 12.9043" fill="white"/>
<path d="M21.2102 15.7549H23.6154V16.5777H22.2187V18.293H23.2167V19.1074H22.2187V20.9283H23.6154V21.7511H21.2102" fill="white"/>
<path d="M25.9237 19.8501H26.7276L26.3309 17.4449H26.3225L25.9237 19.8501ZM24.6599 21.7511L25.7908 15.7549H26.9407L28.0821 21.7511H27.0483L26.8605 20.654H25.7908L25.6136 21.7511" fill="white"/>
<path d="M28.3647 20.2044V17.3033C28.3647 16.3665 28.8078 15.6851 29.8691 15.6851C30.9831 15.6851 31.2911 16.3032 31.2911 17.1873V17.8962H30.3712V17.1092C30.3712 16.7379 30.2488 16.5248 29.886 16.5248C29.5231 16.5248 29.3733 16.7801 29.3733 17.143V20.3626C29.3733 20.7255 29.5231 20.9808 29.886 20.9808C30.2488 20.9808 30.3712 20.7529 30.3712 20.3985V19.2929H31.2911V20.3267C31.2911 21.1855 30.9388 21.8205 29.8691 21.8205C28.8078 21.8205 28.3647 21.1327 28.3647 20.2044Z" fill="white"/>
<path d="M31.7068 15.7549H34.1141V16.5777H32.7153V18.293H33.7154V19.1074H32.7153V20.9283H34.1141V21.7511H31.7068" fill="white"/>
<path d="M34.4666 20.4597V19.6537H35.4033V20.4765C35.4033 20.8141 35.5552 21.0082 35.8991 21.0082C36.2177 21.0082 36.3591 20.7951 36.3591 20.4765V20.2466C36.3591 19.9027 36.2177 19.6896 35.9076 19.3984L35.3168 18.8055C34.7408 18.2401 34.4771 17.8941 34.4771 17.2042V17.0016C34.4771 16.2589 34.9096 15.6851 35.8907 15.6851C36.8992 15.6851 37.2959 16.1788 37.2959 17.0459V17.5333H36.3781V17.01C36.3781 16.6661 36.2177 16.4974 35.8991 16.4974C35.6164 16.4974 35.4223 16.6577 35.4223 16.9932V17.1177C35.4223 17.4531 35.608 17.6472 35.8991 17.9299L36.5448 18.5671C37.0933 19.1241 37.3592 19.4596 37.3592 20.1242V20.4154C37.3592 21.2382 36.9161 21.8205 35.8907 21.8205C34.8653 21.8205 34.4666 21.2466 34.4666 20.4597Z" fill="white"/>
<path d="M37.7031 20.4597V19.6537H38.642V20.4765C38.642 20.8141 38.7918 21.0082 39.1357 21.0082C39.4543 21.0082 39.5957 20.7951 39.5957 20.4765V20.2466C39.5957 19.9027 39.4543 19.6896 39.1442 19.3984L38.5534 18.8055C37.9774 18.2401 37.7116 17.8941 37.7116 17.2042V17.0016C37.7116 16.2589 38.1462 15.6851 39.1273 15.6851C40.1358 15.6851 40.5346 16.1788 40.5346 17.0459V17.5333H39.6147V17.01C39.6147 16.6661 39.4543 16.4974 39.1357 16.4974C38.853 16.4974 38.6589 16.6577 38.6589 16.9932V17.1177C38.6589 17.4531 38.8446 17.6472 39.1357 17.9299L39.7813 18.5671C40.3299 19.1241 40.5957 19.4596 40.5957 20.1242V20.4154C40.5957 21.2382 40.1527 21.8205 39.1273 21.8205C38.1019 21.8205 37.7031 21.2466 37.7031 20.4597Z" fill="white"/>
<path d="M40.9924 15.7548H42.0009V21.751H40.9924V15.7548ZM42.3195 15.3307L40.7371 15.5332V14.9678L42.3195 14.6323V15.3307Z" fill="white"/>
<path d="M45.6804 15.7549L44.5389 21.7511H43.4418L42.3025 15.7549H43.3279L44.0178 19.9387H44.0262L44.7352 15.7549" fill="white"/>
<path d="M45.9631 15.7549H48.3684V16.5777H46.9716V18.293H47.9717V19.1074H46.9716V20.9283H48.3684V21.7511H45.9631" fill="white"/>
<path d="M48.7756 15.7549H49.7841V20.9283H50.9868V21.7511H48.7756" fill="white"/>
</svg>
