<svg width="100%" height="100%" viewBox="0 0 75 75" fill="none" xmlns="http://www.w3.org/2000/svg">
<path d="M0.1604 74.0465H73.8978V0.302734H0.1604V74.0465Z" fill="#407B43A6" stroke-width="4" stroke="#407B43"/>z
<path d="M9.46672 6.48877V21.3527H6.96865V9.97425H6.94545L5.19215 11.7951H5.16895V9.18517L7.4708 6.48877" fill="white"/>
<path d="M17.7079 9.71294V11.0063C17.7079 12.2553 17.0285 13.0887 15.9989 13.4157C17.248 13.7027 17.8387 14.5783 17.8387 15.937V18.1292C17.8387 20.1884 16.7437 21.5281 14.2245 21.5281C11.68 21.5281 10.7812 20.0808 10.7812 17.8232V15.8716H13.062V17.9984C13.062 18.8761 13.3679 19.4436 14.2245 19.4436C14.9883 19.4436 15.3385 18.8972 15.3385 18.1081V15.6522C15.3385 14.8631 14.9883 14.4475 14.1127 14.4475H13.062V12.5402H14.0051C14.8153 12.5402 15.3385 12.1224 15.3385 11.3354V9.73404C15.3385 8.92386 15.0558 8.39639 14.2667 8.39639C13.4798 8.39639 13.1928 8.92386 13.1928 9.84376V11.3565H10.9121V10.04C10.9121 7.84783 11.813 6.31396 14.3975 6.31396C16.6994 6.31396 17.7079 7.60731 17.7079 9.71294Z" fill="white"/>
<path d="M48.7418 49.1587C48.438 49.0764 47.1594 47.3105 48.17 46.1458C48.3367 45.9559 47.8303 45.3947 47.9696 45.382C48.5203 45.3398 48.8157 45.6838 48.9612 46.1775C48.9718 46.3948 48.9802 46.6142 48.9802 46.8357C48.9802 47.6333 48.8958 48.4097 48.7418 49.1587ZM45.6255 54.9059C45.5116 54.8722 45.3935 54.8363 45.2669 54.773C44.6466 54.4565 44.7204 54.9629 44.4145 54.8511C44.1064 54.7371 44.7605 54.0282 43.8427 54.6274C42.9291 55.2245 43.176 54.5346 42.7772 53.5219C42.3743 52.5091 43.2351 51.3529 43.9545 51.0892C44.942 50.7326 45.558 50.6588 46.0201 50.5449C47.3873 50.2031 47.6763 49.3929 47.9253 49.8866C47.9717 49.9794 48.016 50.0659 48.0582 50.1503C48.1363 50.298 48.2291 50.5955 48.2354 50.8909C47.6531 52.4121 46.7585 53.7772 45.6255 54.9059ZM37.5996 58.2184C36.4856 58.2184 35.4138 58.056 34.399 57.7606C34.2534 57.6403 34.1711 57.442 34.2619 57.2036C34.6142 56.2858 35.6628 55.925 36.4899 55.8469C38.336 55.6655 40.7623 57.0453 41.1463 56.8217C41.5345 56.6002 42.3152 55.5853 43.4587 55.6275C44.2394 55.657 44.2351 55.7879 44.4968 55.887C42.5831 57.347 40.1927 58.2184 37.5996 58.2184ZM36.051 50.8002C35.8949 51.0554 35.4666 52.9712 35.1796 52.7476C34.8906 52.5239 35.2957 50.528 35.3801 50.3761C35.8274 49.5511 36.8 49.5933 36.051 50.8002ZM40.699 48.5405C40.4733 48.7409 39.8994 48.6671 39.6103 48.4434C39.3255 48.2198 39.7918 47.8506 39.9648 47.8379C40.3467 47.8042 40.9227 48.338 40.699 48.5405ZM45.7205 48.5616C45.6002 48.5152 45.4905 48.397 45.3977 48.1185C45.3048 47.84 45.539 47.6797 45.769 47.7915C46.0032 47.9118 46.307 48.2599 46.307 48.4456C46.307 48.6312 45.8471 48.6101 45.7205 48.5616ZM46.2058 48.9097C46.5876 48.8781 47.1615 49.4098 46.9379 49.6123C46.7142 49.8149 46.1404 49.741 45.8534 49.5153C45.5665 49.2916 46.0327 48.9245 46.2058 48.9097ZM33.996 53.448C33.7766 54.3173 33.5171 54.6317 33.2976 54.9059C33.0782 55.1844 32.2638 55.5389 31.7469 55.4988C31.2279 55.4608 31.1561 54.0789 31.1561 53.37C31.1561 53.1231 30.808 53.851 30.6266 52.372C30.5126 51.4268 29.905 52.4712 29.8607 51.8403C29.8185 51.2095 29.5147 51.3361 29.1961 50.9415C28.8775 50.5491 28.483 50.9795 28.0378 51.1799C27.5968 51.3761 27.7783 51.4795 27.1516 51.2812C27.1348 51.277 27.1263 51.2707 27.1115 51.2664C26.5356 49.9056 26.217 48.4076 26.217 46.8357C26.217 46.4517 26.2381 46.0741 26.2739 45.7006C26.295 45.6627 26.3161 45.6268 26.3436 45.5951C26.9449 44.882 26.9322 44.7153 26.9322 44.7153L27.5968 44.4854C27.5968 44.4854 28.6602 44.6499 29.4619 44.9516C30.1223 45.1985 31.1604 45.7576 31.7659 45.5107C32.2005 45.3314 32.5444 45.093 32.5022 44.728C32.4537 44.2723 32.0929 44.1647 31.6604 44.4706C31.4979 44.5845 31.1561 43.7828 30.8882 43.825C30.6202 43.8651 31.2194 44.766 30.9937 44.8039C30.7637 44.844 30.3059 43.8651 30.2278 43.7047C30.1497 43.5486 29.7953 43.1561 29.4788 43.4557C28.8079 44.0929 27.7171 44.0549 27.4998 44.2195C26.833 44.7174 26.6558 44.0549 26.6727 43.652C26.698 43.5591 26.7254 43.4663 26.755 43.3735C26.9723 43.135 27.7529 43.0549 28.0209 43.2342C28.3163 43.4304 28.5273 43.1836 28.6412 43.0633C28.7593 42.9473 28.7171 42.7574 28.6454 42.6012C28.5695 42.443 28.791 42.327 28.9429 42.2869C29.0969 42.2468 29.6033 41.8902 29.8058 41.7721C30.0105 41.6539 31.0633 41.5273 31.5359 41.7636C32.0064 41.9999 32.4389 41.8079 32.671 41.5337C32.9622 41.1876 33.3314 40.926 33.496 40.8458C33.6605 40.7678 33.0909 40.2361 32.6204 40.8163C32.1499 41.3944 31.9094 41.4493 31.6899 41.4493C31.4684 41.4493 30.154 41.1201 29.9915 40.7066C29.8312 40.291 30.4029 39.9808 30.8882 39.7445C31.3735 39.5145 32.6985 39.5166 33.0381 39.4407C33.7281 39.2888 34.61 38.9428 35.0531 39.2466C35.4961 39.542 33.2006 40.0652 33.9559 40.4724C34.2239 40.6201 35.437 39.774 35.8527 39.5588C36.8317 39.0525 34.9054 38.8858 35.1543 37.8604C35.437 36.7 32.7892 37.1494 31.4705 37.2485C33.2386 36.1134 35.3421 35.4531 37.5996 35.4531C42.9671 35.4531 47.4653 39.1748 48.6637 44.1752C48.6722 44.4221 48.6342 44.6014 48.6089 44.7006C48.5055 45.112 47.727 45.4643 47.2755 44.8039C47.1615 44.6373 46.672 44.1773 46.6889 44.9643C46.7058 45.7534 47.4548 45.8357 46.729 46.3083C46.0011 46.7809 45.8682 46.6669 45.5327 46.7872C45.1972 46.9054 44.8723 47.7177 44.9525 48.1523C45.0327 48.5869 46.0707 49.7727 45.3006 49.7241C45.1213 49.7115 43.7604 48.7831 43.5368 48.1839C43.2984 47.5552 43.041 46.9412 42.8574 46.4665C42.6717 45.9939 42.1928 45.8736 41.7856 46.1521C41.3805 46.4285 41.8974 46.7049 41.6063 47.2978C41.3172 47.8886 41.1083 48.4181 40.68 47.9307C39.5703 46.6564 37.9562 47.2851 37.703 45.8673C37.5659 45.0993 36.9055 45.1732 36.3527 44.7385C35.7957 44.306 35.4877 44.0718 35.3948 44.3841C35.3105 44.6584 37.1334 46.1036 37.2642 46.4728C37.4562 47.0235 36.7177 47.5067 36.1755 47.6396C35.6375 47.7662 35.3991 47.3337 34.8695 46.783C34.3399 46.2323 34.1078 45.8378 34.0699 46.2703C34.0171 46.8969 34.5741 47.8168 35.1142 48.1586C35.5763 48.4519 36.0911 48.5827 35.9413 49.0574C35.7915 49.53 35.9392 49.2621 35.4244 49.7727C34.9075 50.2853 34.8083 50.452 34.8463 51.1588C34.8822 51.8699 34.6986 51.912 34.5868 52.5007C34.4771 53.0936 34.2197 52.5809 33.996 53.448ZM27.8838 40.9049C27.9091 40.8754 27.9323 40.8501 27.9428 40.8374C28.1475 40.6032 28.5568 40.5526 28.8395 40.5083C29.1222 40.4597 29.4999 40.6032 29.5463 40.791C29.5949 40.9788 28.8374 41.3206 28.6982 41.4514C28.3036 41.8122 27.6896 42.5506 27.3289 42.6287C27.2128 42.6561 27.1158 42.6371 27.0356 42.5991C27.2719 42.0084 27.5546 41.4408 27.8838 40.9049ZM28.4661 39.7445C28.6138 39.5293 29.1033 38.9111 29.1623 38.833C29.2889 38.6727 29.5379 38.6389 29.7151 38.6073C29.886 38.5735 30.1181 38.6727 30.1455 38.8014C30.1751 38.9322 30.078 39.4386 29.9936 39.5251C29.7531 39.774 29.1307 40.1264 28.7868 40.0694C28.5209 40.0293 28.4154 39.8226 28.4661 39.7445ZM64.6459 46.4707C62.7027 43.7448 53.9152 32.8643 37.5807 32.8643C21.2419 32.8643 12.4565 43.7448 10.5091 46.4707C10.4289 46.5868 10.3572 46.688 10.2981 46.7724C10.3572 46.8611 10.4289 46.9623 10.5091 47.0784C12.4565 49.8022 21.2419 60.6827 37.5807 60.6827C53.9152 60.6827 62.7027 49.8022 64.6459 47.0784C64.7303 46.9623 64.7999 46.8611 64.8569 46.7724C64.7999 46.688 64.7303 46.5868 64.6459 46.4707Z" fill="white"/>
<path d="M24.8117 10.6602H25.6367L25.2295 8.19167H25.221L24.8117 10.6602ZM23.5142 12.6097L24.6767 6.45947H25.8561L27.0271 12.6097H25.9637L25.7738 11.4852H24.6767L24.4952 12.6097" fill="white"/>
<path d="M28.6496 13.236C28.9408 13.2254 28.9851 13.1621 28.9851 13.0904C28.9851 13.0271 28.9323 12.9912 28.8416 12.9912H28.7952V12.6557C27.9154 12.546 27.5525 11.8835 27.5525 11.0227V8.04571C27.5525 7.08362 28.0061 6.38525 29.0948 6.38525C30.2383 6.38525 30.5548 7.02032 30.5548 7.92756V8.65335H29.6117V7.84739C29.6117 7.4655 29.4851 7.24819 29.1117 7.24819C28.7403 7.24819 28.5863 7.50981 28.5863 7.88325V11.1852C28.5863 11.5565 28.7403 11.8202 29.1117 11.8202C29.4851 11.8202 29.6117 11.5839 29.6117 11.221V10.0881H30.5548V11.1493C30.5548 12.0101 30.2109 12.6452 29.1855 12.6832V12.7634C29.4303 12.7992 29.5653 12.8899 29.5653 13.0904C29.5653 13.371 29.3037 13.525 28.6496 13.525" fill="white"/>
<path d="M32.3525 10.6601H33.1774L32.7681 8.19153H32.7597L32.3525 10.6601ZM31.863 6.21248C31.8799 5.78629 32.0445 5.44238 32.4981 5.44238C32.7597 5.44238 32.977 5.5964 33.1142 5.5964C33.1859 5.5964 33.2407 5.5521 33.2407 5.46137H33.7492C33.7302 5.88756 33.5678 6.23147 33.1142 6.23147C32.8504 6.23147 32.6331 6.07745 32.4981 6.07745C32.4242 6.07745 32.3694 6.12176 32.3694 6.21248H31.863ZM31.0549 12.6096L32.2154 6.45933H33.3948L34.5657 12.6096H33.5045L33.3125 11.485H32.2154L32.0339 12.6096" fill="white"/>
<path d="M37.1883 11.1852V7.88325C37.1883 7.50981 37.0237 7.24819 36.6524 7.24819C36.2895 7.24819 36.127 7.50981 36.127 7.88325V11.1852C36.127 11.5565 36.2895 11.8202 36.6524 11.8202C37.0237 11.8202 37.1883 11.5565 37.1883 11.1852ZM35.0911 11.0227V8.04571C35.0911 7.08362 35.5637 6.38525 36.6524 6.38525C37.7495 6.38525 38.2221 7.08362 38.2221 8.04571V11.0227C38.2221 11.9743 37.7495 12.6811 36.6524 12.6811C35.5637 12.6811 35.0911 11.9743 35.0911 11.0227Z" fill="white"/>
<path d="M39.9543 11.0227V8.04571C39.9543 7.08362 40.408 6.38525 41.4967 6.38525C42.6402 6.38525 42.9588 7.02032 42.9588 7.92756V8.65335H42.0136V7.84739C42.0136 7.4655 41.887 7.24819 41.5156 7.24819C41.1443 7.24819 40.9903 7.50981 40.9903 7.88325V11.1852C40.9903 11.5565 41.1443 11.8202 41.5156 11.8202C41.887 11.8202 42.0136 11.5839 42.0136 11.221V10.0881H42.9588V11.1472C42.9588 12.0291 42.5959 12.6811 41.4967 12.6811C40.408 12.6811 39.9543 11.9743 39.9543 11.0227Z" fill="white"/>
<path d="M45.7162 11.1852V7.88325C45.7162 7.50981 45.5516 7.24819 45.1803 7.24819C44.8174 7.24819 44.6549 7.50981 44.6549 7.88325V11.1852C44.6549 11.5565 44.8174 11.8202 45.1803 11.8202C45.5516 11.8202 45.7162 11.5565 45.7162 11.1852ZM43.6211 11.0227V8.04571C43.6211 7.08362 44.0916 6.38525 45.1803 6.38525C46.2795 6.38525 46.75 7.08362 46.75 8.04571V11.0227C46.75 11.9743 46.2795 12.6811 45.1803 12.6811C44.0916 12.6811 43.6211 11.9743 43.6211 11.0227Z" fill="white"/>
<path d="M48.3113 8.74445V12.6097H47.4399V6.45947H48.4548L49.5709 9.98715V6.45947H50.4338V12.6097H49.5266" fill="white"/>
<path d="M51.0056 6.45947H53.7548V7.30342H52.9003V12.6097H51.858V7.30342H51.0056" fill="white"/>
<path d="M55.3688 7.30342V9.21706H55.7148C56.0672 9.21706 56.2233 9.03561 56.2233 8.70858V7.80134C56.2233 7.46587 56.0672 7.30342 55.7148 7.30342H55.3688ZM55.3688 9.78883V12.6097H54.335V6.45947H55.8414C56.8837 6.45947 57.2656 6.97639 57.2656 7.83721V8.6263C57.2656 9.28879 57.0292 9.67912 56.4406 9.81626L57.428 12.6097H56.3393" fill="white"/>
<path d="M59.0632 10.6602H59.886L59.4788 8.19167H59.4704L59.0632 10.6602ZM57.7656 12.6097L58.926 6.45947H60.1055L61.2764 12.6097H60.2152L60.0253 11.4852H58.926L58.7446 12.6097" fill="white"/>
<path d="M63.9897 10.6602H64.8147L64.4053 8.19167H64.3969L63.9897 10.6602ZM62.6921 12.6097L63.8526 6.45947H65.032L66.2029 12.6097H65.1417L64.9497 11.4852H63.8526L63.6711 12.6097" fill="white"/>
<path d="M26.5082 17.346H26.4808L25.7824 21.3379H25.3014L24.5313 17.346H24.5123V21.3379H23.6599V15.1855H24.8668L25.5377 18.652H25.5482L26.1453 15.1855H27.4534V21.3379H26.5082" fill="white"/>
<path d="M30.9093 15.1855V19.8399C30.9093 20.7935 30.5 21.4096 29.4493 21.4096C28.3606 21.4096 27.907 20.7935 27.907 19.8399V15.1855H28.9408V19.9412C28.9408 20.3041 29.0864 20.5488 29.4493 20.5488C29.8122 20.5488 29.9557 20.3041 29.9557 19.9412V15.1855" fill="white"/>
<path d="M32.8336 20.4939C33.2598 20.4939 33.4223 20.2408 33.4223 19.8673V16.6477C33.4223 16.2848 33.2598 16.0295 32.8336 16.0295H32.3969V20.4939H32.8336ZM34.4561 16.8376V19.6859C34.4561 20.6311 34.0679 21.3379 32.9602 21.3379H31.363V15.1855H32.9602C34.0679 15.1855 34.4561 15.886 34.4561 16.8376Z" fill="white"/>
<path d="M36.0446 19.3887H36.8696L36.4624 16.9202H36.4518L36.0446 19.3887ZM34.7471 21.3382L35.9075 15.188H37.0869L38.2579 21.3382H37.1966L37.0067 20.2137H35.9075L35.726 21.3382" fill="white"/>
<path d="M39.4204 17.473V21.3382H38.5491V15.188H39.566L40.68 18.7157V15.188H41.543V21.3382H40.6357" fill="white"/>
<path d="M43.0937 21.9645C43.3849 21.9539 43.4292 21.8906 43.4292 21.8189C43.4292 21.7556 43.3764 21.7197 43.2857 21.7197H43.2393V21.3822C42.3595 21.2746 41.9966 20.6121 41.9966 19.7491V16.7742C41.9966 15.8121 42.4502 15.1138 43.5389 15.1138C44.6824 15.1138 44.9989 15.7488 44.9989 16.6561V17.3819H44.0558V16.5738C44.0558 16.194 43.9292 15.9767 43.5558 15.9767C43.1844 15.9767 43.0304 16.2383 43.0304 16.6118V19.9137C43.0304 20.285 43.1844 20.5488 43.5558 20.5488C43.9292 20.5488 44.0558 20.3125 44.0558 19.9496V18.8166H44.9989V19.8778C44.9989 20.7386 44.655 21.3737 43.6296 21.4096V21.4919C43.8744 21.5277 44.0094 21.6185 44.0094 21.8189C44.0094 22.0995 43.7478 22.2535 43.0937 22.2535" fill="white"/>
<path d="M46.5603 19.3887H47.3852L46.978 16.9202H46.9675L46.5603 19.3887ZM45.2627 21.3382L46.4231 15.188H47.6046L48.7735 21.3382H47.7122L47.5224 20.2137H46.4231L46.2417 21.3382" fill="white"/>
<path d="M51.4403 18.0528H52.9109V21.3378H52.1661V20.6669C52.031 21.129 51.7399 21.4096 51.1787 21.4096C50.2883 21.4096 49.8811 20.7028 49.8811 19.7512V16.7742C49.8811 15.8121 50.3432 15.1138 51.4318 15.1138C52.5754 15.1138 52.9109 15.7488 52.9109 16.6561V17.2004H51.9678V16.5759C51.9678 16.194 51.8222 15.9767 51.4508 15.9767C51.0774 15.9767 50.9149 16.2383 50.9149 16.6118V19.9137C50.9149 20.285 51.069 20.5488 51.4234 20.5488C51.7589 20.5488 51.9319 20.3589 51.9319 19.958V18.8714H51.4403" fill="white"/>
<path d="M53.3645 15.1855H54.3983V20.4939H55.6326V21.3379H53.3645" fill="white"/>
<path d="M58.0631 19.9137V16.6118C58.0631 16.2383 57.9006 15.9767 57.5293 15.9767C57.1664 15.9767 57.0018 16.2383 57.0018 16.6118V19.9137C57.0018 20.285 57.1664 20.5488 57.5293 20.5488C57.9006 20.5488 58.0631 20.285 58.0631 19.9137ZM55.968 19.7491V16.7742C55.968 15.8121 56.4406 15.1138 57.5293 15.1138C58.6264 15.1138 59.099 15.8121 59.099 16.7742V19.7491C59.099 20.7028 58.6264 21.4096 57.5293 21.4096C56.4406 21.4096 55.968 20.7028 55.968 19.7491Z" fill="white"/>
<path d="M60.5866 18.5698V20.4939H61.0402C61.3862 20.4939 61.5465 20.3209 61.5465 19.996V19.0698C61.5465 18.7428 61.3946 18.5698 61.0296 18.5698H60.5866ZM60.5866 17.7807H60.9495C61.2849 17.7807 61.4389 17.6098 61.4389 17.2827V16.5295C61.4389 16.1941 61.2849 16.0295 60.9389 16.0295H60.5866V17.7807ZM59.5527 15.1855H61.0486C62.0825 15.1855 62.4285 15.6666 62.4285 16.538V17.1646C62.4285 17.6815 62.2386 18.0085 61.8124 18.1436C62.3272 18.2617 62.5825 18.6077 62.5825 19.169V19.9855C62.5825 20.8568 62.1922 21.3379 61.1583 21.3379H59.5527" fill="white"/>
<path d="M64.0974 19.3887H64.9223L64.5151 16.9202H64.5067L64.0974 19.3887ZM62.7998 21.3382L63.9602 15.188H65.1417L66.3106 21.3382H65.2493L65.0595 20.2137H63.9602L63.7809 21.3382" fill="white"/>
<path d="M66.6018 15.1855H67.6356V20.4939H68.8699V21.3379H66.6018" fill="white"/>
<path d="M25.1305 28.7413C25.5567 28.7413 25.7191 28.4882 25.7191 28.1147V24.8951C25.7191 24.5322 25.5567 24.2769 25.1305 24.2769H24.6937V28.7413H25.1305ZM26.753 25.085V27.9333C26.753 28.8785 26.3647 29.5853 25.2571 29.5853H23.6599V23.4351H25.2571C26.3647 23.4351 26.753 24.1334 26.753 25.085Z" fill="white"/>
<path d="M29.3038 28.1613V24.8593C29.3038 24.4859 29.1393 24.2243 28.7679 24.2243C28.405 24.2243 28.2426 24.4859 28.2426 24.8593V28.1613C28.2426 28.5326 28.405 28.7963 28.7679 28.7963C29.1393 28.7963 29.3038 28.5326 29.3038 28.1613ZM27.2087 27.9967V25.0218C27.2087 24.0597 27.6792 23.3613 28.7679 23.3613C29.8672 23.3613 30.3377 24.0597 30.3377 25.0218V27.9967C30.3377 28.9503 29.8672 29.6571 28.7679 29.6571C27.6792 29.6571 27.2087 28.9503 27.2087 27.9967Z" fill="white"/>
<path d="M31.6077 27.9967V25.0218C31.6077 24.0597 32.0613 23.3613 33.15 23.3613C34.2935 23.3613 34.61 23.9964 34.61 24.9036V25.6294H33.6669V24.8213C33.6669 24.4416 33.5403 24.2243 33.169 24.2243C32.7955 24.2243 32.6415 24.4859 32.6415 24.8593V28.1613C32.6415 28.5326 32.7955 28.7963 33.169 28.7963C33.5403 28.7963 33.6669 28.56 33.6669 28.1971V27.0641H34.61V28.1254C34.61 29.0052 34.2471 29.6571 33.15 29.6571C32.0613 29.6571 31.6077 28.9503 31.6077 27.9967Z" fill="white"/>
<path d="M35.0383 23.4351H36.0722V28.7413H37.3064V29.5853H35.0383" fill="white"/>
<path d="M37.6418 29.5853H38.6757V23.4351H37.6418V29.5853Z" fill="white"/>
<path d="M41.9881 25.5934H41.9607L41.2602 29.5853H40.7813L40.0091 25.5934H39.9901V29.5853H39.1377V23.4351H40.3445L41.0155 26.8994H41.026L41.6231 23.4351H42.9312V29.5853H41.9881" fill="white"/>
<path d="M44.5178 27.6337H45.3448L44.9355 25.1673H44.9271L44.5178 27.6337ZM43.2202 29.5853L44.3827 23.4351H45.5622L46.7331 29.5853H45.6698L45.4799 28.4607H44.3827L44.2013 29.5853" fill="white"/>
</svg>
