<svg width="1440" height="900" viewBox="0 0 1440 900" fill="none" xmlns="http://www.w3.org/2000/svg">
<g clip-path="url(#clip0_103_170)">
<path d="M1.21483 548.305C1 506.312 1 464.625 1 422.469C2.47607 419.471 4.76837 417.825 7.23849 416.441C35.8066 400.438 64.0882 383.934 92.4886 367.638C120.313 351.673 148.12 335.673 175.934 319.689C202.02 304.696 228.058 289.616 254.233 274.777C259.564 271.755 264.93 268.811 270.776 265.896C272.026 265.559 272.866 265.672 274.065 266.261C274.639 266.755 274.829 266.998 275.19 267.675C276.797 272.936 277.177 277.871 277.373 282.899C278.043 300.014 278.846 317.124 280.089 334.211C280.608 341.343 280.839 348.507 281.113 355.642C281.983 378.251 283.546 400.822 284.509 423.426C285.322 442.53 286.502 461.625 287.483 480.726C288.465 499.827 289.404 518.93 290.451 538.026C291.855 563.602 293.189 589.179 294.491 614.76C295.447 633.528 296.391 652.302 297.546 671.056C298.047 679.183 297.689 687.376 298.996 695.455C299.35 697.646 298.519 699.745 298.471 702.347C298.421 703.069 298.392 703.351 298.261 704.034C296.173 707.452 293.54 706.639 291.125 705.354C266.168 692.071 241.252 678.71 216.328 665.364C200.933 657.12 185.553 648.844 170.122 640.667C142.201 625.872 114.448 610.766 86.5246 595.979C69.3272 586.872 52.2555 577.529 34.9876 568.556C25.0998 563.417 15.4648 557.803 5.4917 552.825C3.6134 551.888 2.29049 550.49 1.21483 548.305Z" fill="#3E58CE"/>
<path d="M829.74 1.24532C843.354 1 856.708 1 870.531 1C873.701 3.29264 873.697 6.62138 874.146 9.6854C880.127 50.4913 886.021 91.3104 891.892 132.132C897.076 168.178 902.234 204.23 907.374 240.283C912.468 276.008 917.604 311.728 922.816 347.437C923.457 351.833 924.733 356.273 922.792 361.118C921.854 362.183 921.014 362.539 919.602 362.684C905.426 365.529 891.428 365.77 877.565 367.204C860.858 368.932 844.119 370.383 827.385 371.849C810.318 373.344 793.271 375.064 776.185 376.356C760.428 377.548 744.703 379.143 728.969 380.611C715.555 381.862 702.134 383.024 688.723 384.3C668.357 386.238 647.982 388.081 627.609 389.935C610.713 391.472 593.829 393.168 576.902 394.388C563.633 395.345 550.42 397.018 536.671 397.589C535.923 397.525 535.624 397.501 534.882 397.421C533.878 397.162 533.383 396.854 532.736 396.066C532.211 394.537 532.544 393.496 533.353 392.193C536.896 390.077 537.743 386.402 539.828 383.669C553.442 365.828 566.896 347.866 580.39 329.936C596.882 308.023 613.347 286.087 629.866 264.194C651.292 235.795 672.672 207.361 694.128 178.985C712.377 154.849 730.452 130.578 748.696 106.437C772.05 75.5333 795.124 44.4185 818.681 13.6689C821.987 9.35344 824.395 4.23139 829.74 1.24532Z" fill="#E48198"/>
<path d="M274.415 266.673C273.264 266.957 272.509 266.967 271.376 266.984C263.067 268.602 255.47 266.102 247.828 264.861C197.626 256.706 147.437 248.474 97.2536 240.212C70.1936 235.757 43.0933 231.54 16.0852 226.769C12.8122 226.191 9.50607 225.833 6.22952 225.256C4.29484 224.915 2.80029 224.114 1.30707 222.308C1 160.646 1 99.2915 1 37.4687C2.31202 34.9845 4.08804 33.6943 6.40231 32.8763C33.3493 23.3527 60.2474 13.6913 87.2258 4.25573C91.815 2.65067 96.5815 2.0531 101.679 1.22361C166.021 1 230.042 1 294.531 1C298.174 3.74479 297.334 7.43315 297.051 10.8166C295.358 31.0421 293.846 51.2828 292.134 71.505C290.225 94.0481 288.451 116.603 286.572 139.148C285.024 157.714 283.642 176.3 282.177 194.875C280.556 215.44 278.889 236.003 277.233 256.565C277.057 258.756 275.656 260.625 275.922 263.339C275.859 264.803 275.475 265.663 274.415 266.673Z" fill="#3E58CE"/>
<path d="M274.011 266.971C274.018 266.215 274.017 265.483 274.019 264.385C275.902 260.074 278.624 256.809 281.644 253.645C300.926 233.442 319.972 213.016 339.323 192.876C350.258 181.494 360.984 169.902 371.841 158.438C389.898 139.369 407.866 120.217 426.011 101.229C437.377 89.3351 448.64 77.3358 459.919 65.357C477.581 46.5987 495.16 27.7641 513.049 9.2195C515.92 6.2438 518.041 2.51262 522.718 1.21393C545.688 1 568.375 1 591.531 1C594.638 3.13944 594.248 5.97917 593.768 8.81156C591.131 24.3894 588.861 40.0332 586.655 55.6665C584.379 71.8058 581.818 87.9008 579.509 104.034C576.165 127.404 572.587 150.74 569.141 174.095C565.477 198.936 562.182 223.836 558.213 248.628C553.403 278.679 549.225 308.823 544.767 338.922C542.6 353.551 539.761 368.103 538.449 382.855C538.145 386.273 536.514 389.164 535.182 392.64C534.434 393.564 533.942 394.127 533.233 394.868C530.835 396.565 528.851 395.448 526.921 394.504C509.731 386.098 492.769 377.231 475.477 369.028C445.554 354.833 416.287 339.312 386.429 324.983C357.777 311.232 329.471 296.779 301.053 282.557C294.056 279.055 286.785 276.156 279.852 272.525C277.593 271.341 275.472 270.128 274.208 267.347C273.986 267.046 274.002 266.996 274.011 266.971Z" fill="#A371C3"/>
<path d="M0.99995 548.469C36.0975 566.707 71.1911 585.421 106.294 604.117C127.592 615.46 148.931 626.727 170.204 638.116C201.157 654.687 231.987 671.488 263.038 687.872C274.048 693.681 284.718 700.185 296.632 704.991C297.386 705.344 297.66 705.744 297.829 706.596C296.757 709.629 294.94 711.764 292.915 713.761C247.117 758.913 202.606 805.343 157.091 850.779C142.367 865.478 127.957 880.518 113.327 895.327C111.059 897.623 108.666 899.583 105.282 900.786C71.8651 901 38.7299 900.941 5.59565 901.086C2.03278 901.102 0.886266 900.574 0.890883 896.604C1.02564 780.715 0.99995 664.826 0.99995 548.469Z" fill="#E48198"/>
<path d="M1440.74 349.708C1441 358.021 1441 366.042 1441 374.531C1439.33 377.897 1436.59 379.386 1433.66 380.686C1413.72 389.508 1393.94 398.658 1374.03 407.542C1345.01 420.494 1316.09 433.669 1287.11 446.688C1265.55 456.369 1244.02 466.101 1222.49 475.841C1189.29 490.862 1156.11 505.924 1122.84 520.796C1112.21 525.551 1101.72 530.669 1090.91 534.997C1086.96 536.581 1082.93 539.24 1077.98 537.209C1076.45 528.874 1077.54 520.883 1078.1 512.987C1078.67 504.86 1079.1 496.698 1079.46 488.585C1080.44 466.647 1081.87 444.734 1082.89 422.798C1084.03 398.212 1085.56 373.641 1086.86 349.06C1088.17 324.313 1089.38 299.556 1090.94 274.828C1091.93 259.074 1091.7 243.218 1094.14 227.108C1094.11 226.047 1094.26 225.478 1094.82 224.623C1097.43 222.872 1099.74 223.126 1102.25 224.029C1137.19 236.579 1171.98 249.544 1206.87 262.237C1236.13 272.881 1265.38 283.545 1294.62 294.251C1331.04 307.59 1367.5 320.837 1403.91 334.238C1414.37 338.091 1424.91 341.754 1435.32 345.777C1437.37 346.569 1439.38 347.313 1440.74 349.708Z" fill="#A371C3"/>
<path d="M1255.72 1.21401C1316.28 0.999944 1376.57 1.05108 1436.85 0.880694C1440.72 0.869761 1441.08 1.99839 1441.08 5.34046C1440.98 115.248 1441 225.155 1441 335.531C1438.7 337.153 1437.25 335.616 1435.74 334.311C1414.76 316.15 1393.87 297.871 1372.89 279.712C1354.05 263.404 1335.21 247.08 1316.4 230.737C1299.59 216.134 1282.82 201.479 1266.02 186.87C1247.22 170.519 1228.41 154.162 1209.54 137.881C1195.45 125.724 1181.39 113.529 1167.47 101.167C1164 98.0828 1160.08 95.4838 1157.16 91.2984C1156.95 90.7113 1156.9 90.4655 1156.84 89.8422C1156.89 89.221 1156.94 88.9774 1157.16 88.4018C1167.61 75.7346 1180.63 66.3337 1192.32 55.5088C1202.81 45.7964 1213.7 36.5144 1224.37 26.9834C1233.04 19.2266 1241.81 11.569 1250.56 3.89803C1251.98 2.64898 1253.82 2.25848 1255.72 1.21401Z" fill="#3E58CE"/>
<path d="M535.224 392.833C536.183 379.61 538.401 366.355 540.408 353.064C543.803 330.588 546.771 308.048 550.064 285.556C552.347 269.962 554.977 254.419 557.266 238.826C560.616 216.002 563.724 193.143 567.081 170.32C569.374 154.727 572.175 139.205 574.284 123.588C577.373 100.721 581.476 78.0087 584.189 55.0795C586.041 39.4283 588.982 23.9066 591.397 8.32091C591.727 6.1928 591.829 4.02934 592.018 1.44112C671.021 1 750.042 1 829.531 1C825.23 10.0158 818.434 17.6084 812.419 25.7312C798.555 44.4527 784.36 62.9289 770.314 81.5163C749.051 109.656 727.776 137.787 706.552 165.956C689.13 189.079 671.801 212.273 654.382 235.398C632.157 264.902 609.862 294.352 587.637 323.856C571.116 345.787 554.663 367.769 538.161 389.714C537.371 390.765 536.405 391.684 535.224 392.833Z" fill="#EBA0B2"/>
<path d="M1096.25 224.536C1095.81 225.089 1095.56 225.332 1095.16 225.787C1094.78 229.733 1091.61 231.265 1089.23 233.099C1059.73 255.78 1030.58 278.894 1001.17 301.687C976.63 320.712 952.317 340.036 927.728 359.005C926.53 359.928 925.309 360.754 923.572 361.424C922.975 361.443 922.736 361.395 922.248 361.078C920.195 347.321 918.478 333.821 916.568 320.349C913.096 295.859 909.522 271.384 905.967 246.906C902.817 225.219 899.602 203.541 896.474 181.85C893.275 159.67 890.169 137.476 886.984 115.294C883.868 93.6014 880.564 71.935 877.606 50.2214C875.411 34.1079 872.367 18.1094 871 1.44175C881.354 1 891.708 1 902.531 1C908.91 2.70297 911.868 7.90576 915.443 12.0951C934.965 34.9737 954.664 57.7005 974.29 80.488C991.966 101.011 1009.74 121.457 1027.42 141.974C1049.45 167.529 1071.61 192.97 1093.42 218.708C1094.51 219.995 1095.29 221.456 1096.35 223.16C1096.46 223.744 1096.45 223.986 1096.25 224.536Z" fill="#EBA0B2"/>
<path d="M522.531 1C519.619 4.88 516.378 8.892 512.834 12.6171C497.591 28.6417 482.114 44.4457 467.009 60.598C455.768 72.619 444.436 84.5501 433.125 96.5036C415.071 115.582 397.083 134.721 378.943 153.719C367.926 165.258 357.053 176.941 346.089 188.537C328.043 207.622 310.073 226.779 291.945 245.788C286.21 251.801 280.596 257.923 274.302 263.842C275.694 243.004 277.297 221.984 279.056 200.977C280.939 178.482 283.072 156.009 284.901 133.51C286.422 114.811 287.543 96.08 289.057 77.3805C290.531 59.1836 292.348 41.0148 293.871 22.8216C294.452 15.8716 294.635 8.88813 295 1.45995C370.688 0.999997 446.375 0.999997 522.531 1Z" fill="#BA94D2"/>
<path d="M1096.45 224.88C1096.07 224.846 1096.04 224.434 1096.03 224.228C1094.41 221.793 1095.18 219.662 1096.18 217.461C1104.64 198.706 1113.24 180.007 1121.88 161.333C1132.12 139.193 1142.03 116.895 1152.51 94.8662C1153.54 92.7176 1154.14 89.9689 1157.65 89.8521C1175.27 105.093 1192.48 120.237 1209.81 135.256C1228.64 151.578 1247.62 167.719 1266.43 184.06C1283.24 198.661 1299.85 213.497 1316.65 228.101C1335.46 244.445 1354.44 260.594 1373.27 276.921C1387.32 289.115 1401.24 301.469 1415.24 313.727C1423.62 321.06 1432.03 328.347 1440.72 335.827C1441 340.357 1441 344.714 1441 349.535C1418.29 341.793 1395.57 333.635 1372.88 325.367C1339.71 313.277 1306.56 301.107 1273.4 288.974C1226.64 271.862 1179.9 254.686 1133.09 237.688C1121.05 233.316 1109.19 228.41 1096.45 224.88Z" fill="#BA94D2"/>
<path d="M1 222.469C34.7574 227.596 68.5098 233.222 102.274 238.778C134.892 244.146 167.518 249.474 200.15 254.758C221.958 258.289 243.786 261.701 265.597 265.21C267.225 265.472 268.795 266.091 270.695 266.767C264.399 272.699 256.38 276.11 248.943 280.431C218.315 298.224 187.57 315.816 156.839 333.43C125.963 351.127 95.0397 368.743 64.1597 386.434C45.1129 397.346 26.114 408.342 7.07535 419.269C5.35383 420.257 3.4991 421.012 1.35312 421.938C1 355.646 1 289.292 1 222.469Z" fill="#6E82DA"/>
<path d="M1078.83 538.236C1098.73 529.129 1118.46 520.282 1138.19 511.402C1164.58 499.516 1190.97 487.611 1217.36 475.704C1238.89 465.986 1260.41 456.237 1281.95 446.529C1307.74 434.908 1333.54 423.332 1359.32 411.703C1377.98 403.289 1396.6 394.81 1415.25 386.378C1423.59 382.609 1431.94 378.883 1440.64 375.069C1441 419.021 1441 463.042 1441 507.531C1426.95 509.254 1412.91 510.542 1398.85 511.753C1385.79 512.878 1372.71 513.892 1359.65 515.007C1345.43 516.22 1331.22 517.51 1317 518.733C1304.1 519.844 1291.19 520.884 1278.29 522.004C1264.07 523.239 1249.86 524.558 1235.65 525.787C1226.55 526.573 1217.44 527.222 1208.34 528.007C1194.13 529.234 1179.92 530.571 1165.7 531.774C1152.3 532.908 1138.89 533.873 1125.49 535.017C1111.6 536.202 1097.73 537.518 1083.84 538.765C1082.52 538.884 1081.19 538.919 1079.42 538.991C1078.88 538.819 1078.77 538.651 1078.83 538.236Z" fill="#BA94D2"/>
<path d="M1158.01 89.7598C1154.81 93.3331 1153.61 97.763 1151.76 101.775C1137.02 133.607 1122.44 165.51 1107.83 197.404C1103.89 206.017 1100.04 214.672 1096.08 223.665C1088.64 218.185 1083.56 210.252 1077.36 203.347C1065.61 190.257 1054.34 176.729 1042.88 163.377C1029.47 147.758 1016.09 132.112 1002.66 116.514C993.236 105.569 983.718 94.7032 974.279 83.7698C962.78 70.4504 951.328 57.0905 939.84 43.7611C930.519 32.9455 921.179 22.147 911.841 11.3454C909.018 8.07916 906.177 4.82797 903.172 1.28494C922.688 1 942.375 1 962.531 1C981.758 5.43671 998.279 15.3172 1015.71 22.9236C1044.18 35.3438 1072.32 48.5219 1100.6 61.354C1118.45 69.4517 1136.32 77.5295 1154.11 85.7483C1155.52 86.3978 1156.61 87.3455 1157.87 88.6796C1158.02 89.0283 1158.01 89.516 1158.01 89.7598Z" fill="#F3B36A"/>
<path d="M105.469 901C111.033 894.795 117.092 888.614 123.096 882.382C155.689 848.549 189.415 815.831 222.111 782.11C246.581 756.874 271.582 732.186 296.661 707.107C299.685 708.096 299.994 710.604 300.386 713.102C303.912 735.604 307.054 758.162 310.283 780.708C315.137 814.609 319.958 848.515 324.808 882.416C325.395 886.522 326.335 890.602 326.203 894.791C326.141 896.769 326.328 898.839 324.311 900.679C251.312 901 178.625 901 105.469 901Z" fill="#EBA0B2"/>
<path d="M1158.01 89.0146C1151.52 88.3909 1146.2 84.6442 1140.49 82.0781C1105.31 66.258 1070.29 50.0954 1035.18 34.1352C1012.48 23.8171 989.707 13.6543 966.977 3.40223C965.771 2.85841 964.648 2.13094 963.243 1.24448C1032.02 1 1101.04 1 1170.53 1C1172.97 2.66093 1172.58 4.86212 1172.32 7.00064C1170.9 18.8565 1168.66 30.5901 1166.99 42.4119C1165.28 54.5589 1163.27 66.6648 1161.44 78.7971C1160.94 82.1443 1159.85 85.2156 1158.22 88.6071C1157.98 88.978 1158 89.0009 1158.01 89.0146Z" fill="#F6C68F"/>
<path d="M496.06 871.366C496.026 870.993 496.007 870.498 496 870.25C496.206 869.757 496.419 869.511 497.06 869.035C500.914 867.906 504.351 867.527 507.865 868.346C509.326 868.686 510.85 868.677 512.348 868.64C535.175 868.067 557.972 869.51 580.784 869.891C608.243 870.349 635.707 871.122 663.164 871.862C689.291 872.566 715.42 873.152 741.546 873.826C768.84 874.531 796.137 875.155 823.425 875.971C833.037 876.258 842.74 875.921 852.767 877.367C853.491 877.557 853.777 877.626 854.456 877.869C856.792 879.957 856.885 882.329 855.573 884.366C851.949 889.995 849.097 896.234 843.282 900.722C732.646 901 622.292 901 511.469 901C508.371 899.691 506.712 897.699 505.626 894.874C503.552 889.475 500.632 884.447 498.04 879.278C496.838 876.879 495.934 874.461 496.06 871.366Z" fill="#6E82DA"/>
<path d="M1158.27 88.8114C1158.66 76.8458 1161.31 64.9868 1163.04 53.0034C1165.52 35.9203 1168.29 18.8803 1170.97 1.41097C1199.02 1 1227.04 1 1255.53 1C1249.04 9.35253 1240.17 15.6554 1232.25 22.9876C1221.9 32.5841 1211.06 41.6537 1200.51 51.0436C1186.48 63.5301 1172.54 76.1068 1158.27 88.8114Z" fill="#6E82DA"/>
<path d="M1401.18 870.364C1401.71 860.808 1404.47 852.044 1406.54 843.164C1416.95 798.475 1427.59 753.839 1438.21 709.199C1438.9 706.309 1438.93 703.22 1440.77 700.287C1441 758.021 1441 816.042 1441 874.531C1438.93 877.088 1436.3 876.437 1433.95 876.116C1424.14 874.779 1414.3 873.602 1404.51 872.118C1403.35 871.941 1402.24 871.67 1401.18 870.364Z" fill="#F3B36A"/>
<path d="M1400.67 870.151C1414.18 870.451 1427.16 872.877 1440.6 874.92C1441 882.304 1440.81 889.615 1441.09 896.909C1441.21 900.115 1440.75 901.142 1437.12 901.113C1410.73 900.903 1384.33 901 1357.47 901C1364.13 894.503 1372.61 889.855 1380.33 884.175C1386.88 879.367 1393.69 874.931 1400.67 870.151Z" fill="#F6C68F"/>
<path d="M101.531 0.999938C93.0005 5.31594 83.3813 7.97657 74.0332 11.3447C49.9912 20.007 25.844 28.3773 1.36941 36.9321C0.999976 26.5336 1.158 16.0635 0.912028 5.60293C0.828858 2.06603 1.37107 0.857589 5.37098 0.883714C37.2671 1.09203 69.1652 0.999938 101.531 0.999938Z" fill="#6E82DA"/>
<path d="M1440.67 507.68C1441 571.687 1441 635.375 1441 699.531C1432.11 754.377 1416.28 807.201 1404.91 861.024C1404.37 863.625 1403.74 866.222 1402.63 869.078C1400.93 874.451 1396.07 876.034 1392.41 878.63C1383.2 885.168 1373.82 891.475 1364.55 897.94C1362.44 899.414 1359.89 899.623 1357.3 900.784C1211.65 901 1066.32 901 920.5 901C895.399 901.245 869.292 901 843.469 901C844.035 895.745 848.358 892.431 850.72 887.95C852.167 885.204 854.659 883.005 855.035 879.307C855.481 878.64 855.935 878.516 856.716 878.793C856.111 874.496 858.108 872.953 860.028 869.941C871.303 852.259 882.91 834.791 894.382 817.236C923.602 772.523 952.842 727.824 982.106 683.14C998.517 658.081 1014.95 633.037 1031.27 607.919C1044.06 588.247 1057.16 568.781 1069.62 548.9C1072.01 545.086 1075.08 541.812 1078.03 537.979C1078.66 537.734 1078.94 537.672 1079.64 537.569C1101.05 533.772 1122.37 533.095 1143.53 531.09C1161.07 529.429 1178.65 528.096 1196.21 526.605C1213.44 525.144 1230.67 523.712 1247.89 522.12C1260.96 520.911 1274.06 519.85 1287.15 518.76C1305.53 517.229 1323.91 515.573 1342.3 514.034C1359.53 512.592 1376.76 511.072 1393.99 509.671C1407.25 508.593 1420.49 507.295 1433.75 506.269C1436.07 506.09 1438.4 505.414 1440.67 507.68Z" fill="#A371C3"/>
<path d="M324.469 901C324.009 885.467 320.457 870.356 318.452 855.067C315.538 832.853 312.191 810.695 308.997 788.517C305.851 766.667 302.675 744.822 299.491 722.977C298.749 717.89 297.919 712.815 297.035 707.331C296.96 706.502 296.98 706.078 297.002 705.334C297.004 705.015 297.068 704.536 297.088 704.296C297.299 703.911 297.489 703.767 298.034 703.657C298.6 703.805 298.809 703.919 299.27 704.284C318.683 719.716 337.097 735.799 355.983 751.31C379.504 770.629 402.703 790.329 426.104 809.789C447.074 827.226 468.071 844.634 488.911 862.229C491.449 864.372 494.306 866.156 496.557 869.155C496.823 869.708 496.9 869.944 497.011 870.549C502.02 877.559 503.915 886.313 507.799 894.003C508.848 896.081 509.74 898.238 510.852 900.68C497.979 901 484.779 900.785 471.289 900.785C422.312 901 373.625 901 324.469 901Z" fill="#F6C68F"/>
<path d="M1079 537.548C1079 537.99 1078.99 538.489 1078.99 538.738C1078.98 538.988 1078.52 538.978 1077.94 538.905C1074.63 537.454 1072.54 535.325 1070.63 532.997C1060.72 520.931 1050.11 509.473 1040 497.586C1027.64 483.048 1014.89 468.839 1002.42 454.385C992.557 442.946 982.548 431.623 972.605 420.247C959.931 405.745 947.191 391.302 934.671 376.667C931.649 373.135 928.445 369.757 925.478 366.172C924.319 364.773 922.824 363.591 922.876 361.172C932.624 351.497 943.732 343.868 954.268 335.543C982.903 312.916 1011.72 290.515 1040.51 268.082C1058.44 254.111 1076.44 240.243 1094.71 226.163C1096.26 227.584 1096.08 229.471 1095.97 231.277C1094.69 251.983 1093.31 272.683 1092.12 293.394C1091.74 300.025 1091.58 306.661 1091.14 313.299C1090.06 329.371 1089.93 345.505 1088.91 361.581C1087.74 379.977 1086.83 398.381 1085.84 416.783C1084.86 435.019 1083.89 453.256 1082.89 471.49C1081.85 490.224 1080.44 508.935 1079.94 527.698C1079.86 530.84 1079.33 533.97 1079 537.548Z" fill="#E48198"/>
<path d="M857.146 878.715C856.57 879.006 856.141 878.985 855.393 878.949C855.073 878.933 855.058 878.968 855.059 878.957C854.621 878.474 854.3 877.933 854.067 876.847C854.459 853.786 855.247 831.214 856.522 808.658C857.056 799.198 857.09 789.708 857.373 780.247C857.78 766.622 858.31 752.985 858.848 739.372C859.701 717.788 860.145 696.184 861.453 674.613C862.127 663.503 861.474 652.32 863.097 640.821C863.581 637.059 865.616 635.249 868.581 633.856C892.684 622.531 916.781 611.191 940.951 600.013C977.505 583.106 1013.91 565.889 1050.5 549.047C1057.3 545.917 1064.08 542.728 1070.85 539.522C1072.91 538.544 1074.95 537.075 1077.71 538.753C1078 538.995 1078.03 538.98 1078.04 538.975C1075.97 545.049 1071.83 549.945 1068.41 555.208C1047.19 587.875 1025.73 620.391 1004.39 652.981C981.682 687.659 959.015 722.363 936.33 757.056C913.645 791.748 890.95 826.434 868.285 861.139C864.555 866.85 860.955 872.647 857.146 878.715Z" fill="#F3B36A"/>
<path d="M298.257 704.031C297.899 704.04 297.503 704.046 297.306 704.051C296.055 682.995 295.214 661.922 293.883 640.88C292.709 622.323 291.897 603.751 290.889 585.189C289.493 559.496 288.114 533.804 286.851 508.103C285.915 489.039 284.886 469.975 283.884 450.912C282.874 431.683 281.82 412.456 280.849 393.224C279.894 374.326 278.854 355.431 277.866 336.533C276.852 317.137 275.425 297.764 274.93 278.34C274.841 274.865 274.318 271.401 273.991 267.489C305.939 282.823 337.898 298.59 369.844 314.382C402.832 330.689 435.802 347.03 468.789 363.337C489.982 373.814 511.192 384.255 532.705 394.879C533.194 395.302 533.403 395.531 533.829 395.869C535.124 398.587 533.676 400.421 532.239 402.306C514.111 426.094 495.895 449.816 477.661 473.522C450.613 508.687 423.589 543.87 396.585 579.069C372.914 609.925 349.088 640.663 325.586 671.649C318.96 680.384 312.148 688.979 305.525 697.72C303.647 700.199 301.722 702.808 298.257 704.031Z" fill="#E48198"/>
<path d="M1077.94 538.659C1066.82 544.088 1055.6 549.109 1044.46 554.286C1006.17 572.067 967.899 589.888 929.636 607.724C908.847 617.415 888.083 627.16 867.322 636.912C866.597 637.252 866.024 637.917 865.185 638.716C863.28 641.06 860.976 641.982 858.41 642.105C844.622 642.765 830.901 644.273 817.147 645.353C803.395 646.432 789.665 647.811 775.916 648.908C761.667 650.046 747.406 651.061 733.165 652.307C714.621 653.928 696.058 655.326 677.514 656.95C669.086 657.688 660.657 658.698 651.722 658.644C650.389 658.554 649.503 658.554 648.206 658.384C647.548 658.117 647.302 657.976 646.772 657.522C646.239 656.716 646.109 656.193 646.178 655.259C650.358 649.423 655.236 644.617 659.914 639.699C675.164 623.664 689.959 607.21 705.104 591.081C717.397 577.989 729.553 564.76 741.715 551.543C758.497 533.305 775.347 515.131 792.221 496.978C804.678 483.578 817.073 470.118 829.503 456.692C846.454 438.383 863.43 420.095 880.343 401.753C890.6 390.63 901.104 379.727 911.056 368.32C913.247 365.808 915.726 363.569 918.76 361.446C919.775 361.127 920.518 361.034 921.63 360.875C921.999 360.809 922.443 360.852 922.665 360.834C930.77 367.551 936.782 376.001 943.669 383.642C954.122 395.241 964.217 407.161 974.453 418.956C986.758 433.133 999.028 447.341 1011.35 461.5C1021.5 473.155 1031.8 484.677 1041.86 496.403C1053.86 510.381 1066.52 523.786 1077.94 538.659Z" fill="#EBA0B2"/>
<path d="M918.607 361.181C919.034 363.014 918.113 364.323 916.931 365.585C902.5 380.983 888.02 396.335 873.703 411.838C855.561 431.484 837.603 451.3 819.476 470.959C809.225 482.077 798.723 492.962 788.462 504.071C769.865 524.202 751.459 544.511 732.781 564.567C724.288 573.686 715.793 582.797 707.378 591.99C689.205 611.844 670.741 631.433 652.366 651.102C651.021 652.543 649.782 654.186 647.457 654.943C644.204 654.896 643.476 652.607 642.529 650.448C632.309 627.138 622.355 603.714 612.247 580.356C599.761 551.503 587.276 522.649 574.881 493.757C561.764 463.179 548.406 432.705 535.446 402.059C534.718 400.336 534.05 398.657 535.01 396.442C549.41 394.731 563.637 393.333 577.871 392.003C594.758 390.425 611.649 388.895 628.54 387.365C644.77 385.895 661.004 384.47 677.234 382.992C697.271 381.167 717.304 379.3 737.34 377.467C750.091 376.301 762.844 375.165 775.597 374.016C792.985 372.449 810.372 370.874 827.761 369.319C843.993 367.867 860.229 366.454 876.459 364.988C890.369 363.733 904.274 362.427 918.607 361.181Z" fill="#A371C3"/>
<path d="M534.889 396.071C548.726 427.383 562.283 458.663 575.815 489.953C591.458 526.126 607.088 562.306 622.708 598.489C630.749 617.114 638.756 635.754 646.954 654.705C647.103 655.462 647.076 655.9 647.026 656.667C645.549 659.769 642.832 659.994 640.191 660.371C616.327 663.778 592.419 666.876 568.555 670.282C540.412 674.3 512.221 677.966 484.059 681.845C451.122 686.382 418.183 690.92 385.227 695.323C359.685 698.736 334.16 702.268 308.64 705.843C305.307 706.31 302.017 706.445 298.37 705.232C297.984 705.01 297.944 704.525 297.922 704.282C318.018 677.787 338.139 651.534 358.256 625.28C385.351 589.92 412.431 554.548 439.541 519.2C464.83 486.227 490.15 453.277 515.456 420.316C521.528 412.406 527.597 404.493 533.842 396.294C534.211 396.018 534.405 396.03 534.889 396.071Z" fill="#BA94D2"/>
<path d="M298.157 705.297C312.113 703.009 326.238 700.987 340.37 699.012C358.779 696.438 377.187 693.853 395.607 691.362C419.126 688.182 442.661 685.127 466.179 681.949C484.107 679.527 502.017 676.972 519.942 674.521C540.989 671.643 562.047 668.844 583.092 665.955C598.385 663.855 613.665 661.658 628.953 659.517C634.699 658.712 640.452 657.944 646.602 657.078C647.004 656.996 647.05 656.948 647.082 656.937C648.885 659.376 647.44 661.415 646.1 663.28C624.286 693.63 602.836 724.24 581.093 754.642C564.092 778.414 547.521 802.494 530.551 826.292C521.198 839.409 511.776 852.48 502.632 865.746C501.341 867.619 499.664 868.841 497.272 869.782C496.98 869.994 496.487 869.998 496.24 870C488.206 865.727 482.116 859.272 475.333 853.73C457.96 839.534 440.791 825.088 423.571 810.706C408.39 798.028 393.268 785.279 378.088 772.601C360.995 758.326 343.786 744.188 326.781 729.808C317.271 721.766 307.269 714.296 298.157 705.297Z" fill="#F3B36A"/>
<path d="M497.435 869.996C517.549 840.92 538.121 811.848 558.688 782.773C578.759 754.4 598.812 726.013 618.899 697.652C627.262 685.845 635.707 674.096 644.079 662.296C645.132 660.812 645.974 659.18 647.014 657.271C647.821 656.959 648.528 656.992 649.591 657.03C656.113 660.578 660.697 665.821 665.191 671.174C670.216 677.16 675.843 682.609 681.201 688.274C693.192 700.954 705.041 713.771 716.976 726.5C735.955 746.743 754.853 767.062 773.798 787.338C787.749 802.269 801.726 817.179 815.601 832.18C827.781 845.35 840.164 858.333 852.227 871.612C853.495 873.007 854.486 874.471 854.967 876.652C855.028 877.435 855.041 877.867 855.057 878.622C833.579 879.499 812.126 878.054 790.662 877.673C778.204 877.452 765.709 877.546 753.249 876.968C725.823 875.695 698.366 875.651 670.941 874.732C657.962 874.297 644.983 874.576 632.026 873.96C604.767 872.663 577.477 872.613 550.217 871.736C537.073 871.314 523.936 871.36 510.801 871.003C506.478 870.885 502.258 869.503 497.435 869.996Z" fill="#3E58CE"/>
<path d="M855.237 876.659C845.965 869.581 838.784 860.324 830.844 851.845C825.178 845.796 819.379 839.828 813.85 833.618C801.912 820.211 789.214 807.483 776.923 794.387C757.81 774.021 738.649 753.698 719.755 733.129C706.484 718.681 693.178 704.272 679.634 690.079C670.223 680.217 661.01 670.167 651.738 660.174C651.076 659.46 650.652 658.526 650.032 657.365C721.34 651.025 792.734 645.015 864.559 639.004C864.383 659.918 863.408 680.819 862.809 701.737C862.32 718.821 861.482 735.905 860.857 752.993C860.178 771.576 859.518 790.16 858.841 808.743C858.218 825.828 857.112 842.894 856.925 860.003C856.866 865.445 855.972 870.879 855.237 876.659Z" fill="#F6C68F"/>
</g>
<defs>
<clipPath id="clip0_103_170">
<rect width="1440" height="900" fill="white"/>
</clipPath>
</defs>
</svg>
