<svg width="100%" height="100%" viewBox="0 0 320 256" fill="none" xmlns="http://www.w3.org/2000/svg">
<g clip-path="url(#clip0_45_113)">
<ellipse cx="140.894" cy="149.736" rx="105.075" ry="106.264" fill="#3E58CE" fill-opacity="0.75"/>
<ellipse cx="112.238" cy="128" rx="83.5821" ry="84.5283" fill="#A371C3" fill-opacity="0.75"/>
<ellipse cx="195.82" cy="108.679" rx="69.2537" ry="70.0377" fill="#F3B36A" fill-opacity="0.75"/>
<ellipse cx="180.298" cy="189.585" rx="65.6716" ry="66.4151" fill="#E48198" fill-opacity="0.75"/>
<ellipse cx="41.7915" cy="240.302" rx="8.35821" ry="8.45283" fill="#F3B36A"/>
<ellipse cx="10.7463" cy="150.943" rx="10.7463" ry="10.8679" fill="#E48198"/>
<ellipse cx="299.702" cy="138.868" rx="20.2985" ry="20.5283" fill="#A371C3"/>
<ellipse cx="162.387" cy="16.9057" rx="16.7164" ry="16.9057" fill="#3E58CE"/>
<path d="M78.8062 150.943C78.8062 132.689 85.9768 115.181 98.7405 102.273C111.504 89.365 128.815 82.1133 146.866 82.1133C164.916 82.1133 182.228 89.365 194.991 102.273C207.755 115.181 214.926 132.689 214.926 150.943C214.926 169.198 207.755 186.706 194.991 199.614C182.228 212.522 164.916 219.774 146.866 219.774C128.815 219.774 111.504 212.522 98.7405 199.614C85.9768 186.706 78.8062 169.198 78.8062 150.943ZM142.612 91.3795C136.912 93.1347 131.255 98.4346 126.559 107.34C125.011 110.3 123.681 113.371 122.577 116.528H142.612V91.3795ZM113.602 116.528C115.02 111.958 116.842 107.527 119.047 103.287C120.518 100.474 122.216 97.7893 124.125 95.2598C113.585 99.6807 104.516 107.061 97.9906 116.528H113.602ZM108.65 146.642C108.906 139.096 109.824 131.86 111.305 125.132H93.0477C89.8755 131.887 87.9825 139.182 87.4668 146.642H108.65ZM120.042 125.132C118.369 132.186 117.405 139.392 117.166 146.642H142.612V125.132H120.042ZM151.12 125.132V146.642H176.557C176.321 139.392 175.361 132.186 173.69 125.132H151.12ZM117.175 155.245C117.411 162.495 118.371 169.701 120.042 176.755H142.612V155.245H117.175ZM151.12 155.245V176.755H173.69C175.281 170.173 176.293 162.92 176.565 155.245H151.12ZM122.577 185.359C123.751 188.68 125.087 191.76 126.559 194.547C131.255 203.452 136.921 208.744 142.612 210.507V185.359H122.577ZM124.125 206.627C122.216 204.098 120.517 201.413 119.047 198.6C116.842 194.36 115.02 189.929 113.602 185.359H97.9906C104.515 194.826 113.585 202.207 124.125 206.627ZM111.305 176.755C109.766 169.683 108.878 162.483 108.65 155.245H87.4668C87.9943 162.903 89.9425 170.156 93.0477 176.755H111.305ZM169.606 206.627C180.147 202.207 189.216 194.826 195.741 185.359H180.13C178.712 189.929 176.89 194.36 174.685 198.6C173.215 201.413 171.516 204.098 169.606 206.627ZM151.12 185.359V210.507C156.82 208.752 162.477 203.452 167.173 194.547C168.645 191.76 169.981 188.68 171.155 185.359H151.12ZM182.427 176.755H200.684C203.789 170.156 205.738 162.903 206.265 155.245H185.081C184.854 162.483 183.966 169.683 182.427 176.755ZM206.265 146.642C205.749 139.182 203.856 131.887 200.684 125.132H182.427C183.907 131.86 184.826 139.096 185.081 146.642H206.265ZM174.685 103.287C176.787 107.279 178.616 111.719 180.13 116.528H195.741C189.216 107.061 180.147 99.6803 169.606 95.2598C171.461 97.7033 173.163 100.405 174.685 103.287ZM171.155 116.528C170.051 113.371 168.721 110.3 167.173 107.34C162.477 98.4346 156.82 93.1433 151.12 91.3795V116.528H171.155Z" fill="black"/>
</g>
<defs>
<clipPath id="clip0_45_113">
<rect width="320" height="256" fill="white"/>
</clipPath>
</defs>
</svg>
