<svg width="397" height="191" viewBox="0 0 397 191" fill="none" xmlns="http://www.w3.org/2000/svg">
<path d="M355.312 7H140.719C133.994 7 125.795 10.3486 119.163 16L221.65 94.1875L232.219 102.25C243.562 110.969 252.656 110.688 265.406 102.25L275.981 94.1875L378.531 16C371.848 10.1663 363.208 7 355.312 7Z" fill="#361460"/>
<path d="M0 66.1562H106.969V40.1875C106.969 30.3951 112.204 21.9299 119.163 16M16.0312 122.5H106.688V147.25C106.688 155.641 109.632 164.775 115.312 171.837M115.312 94.1875H34.6875M119.163 16C125.795 10.3486 133.994 7 140.719 7H355.312C363.208 7 371.848 10.1663 378.531 16M119.163 16L221.65 94.1875M378.531 16C385.258 21.8727 390 30.4486 390 41.2188V144.719C390 156.272 386.58 165.339 381.225 171.837M378.531 16L275.981 94.1875M221.65 94.1875L232.219 102.25C243.562 110.969 252.656 110.688 265.406 102.25L275.981 94.1875M221.65 94.1875L115.312 171.837M115.312 171.837C121.056 178.977 129.596 184 140.719 184H355.219C364.974 184 374.586 179.893 381.225 171.837M275.981 94.1875L381.225 171.837" stroke="#000000" stroke-width="13.125"/>
</svg>
