<svg width="169" height="161" viewBox="0 0 169 161" fill="none" xmlns="http://www.w3.org/2000/svg">
<path d="M42.7951 138.003L21.1557 133.277C19.1885 132.883 17.6148 131.864 16.4344 130.221C15.2541 128.582 14.7951 126.778 15.0574 124.809L17.2213 102.556L2.46721 85.6201C1.15574 84.176 0.5 82.4693 0.5 80.5C0.5 78.5307 1.15574 76.824 2.46721 75.3799L17.2213 58.444L15.0574 36.1911C14.7951 34.2218 15.2541 32.4179 16.4344 30.7795C17.6148 29.1358 19.1885 28.117 21.1557 27.7232L42.7951 22.9969L54.2049 3.69788C55.2541 1.99117 56.6967 0.875238 58.5328 0.350095C60.3689 -0.175047 62.2049 -0.109405 64.041 0.547024L84.5 9.21188L104.959 0.547024C106.795 -0.109405 108.631 -0.175047 110.467 0.350095C112.303 0.875238 113.746 1.99117 114.795 3.69788L126.205 22.9969L147.844 27.7232C149.811 28.117 151.385 29.1358 152.566 30.7795C153.746 32.4179 154.205 34.2218 153.943 36.1911L151.779 58.444L166.533 75.3799C167.844 76.824 168.5 78.5307 168.5 80.5C168.5 82.4693 167.844 84.176 166.533 85.6201L151.779 102.556L153.943 124.809C154.205 126.778 153.746 128.582 152.566 130.221C151.385 131.864 149.811 132.883 147.844 133.277L126.205 138.003L114.795 157.302C113.746 159.009 112.303 160.125 110.467 160.65C108.631 161.175 106.795 161.109 104.959 160.453L84.5 151.788L64.041 160.453C62.2049 161.109 60.3689 161.175 58.5328 160.65C56.6967 160.125 55.2541 159.009 54.2049 157.302L42.7951 138.003ZM70.7295 102.95C72.1721 104.394 74.0082 105.116 76.2377 105.116C78.4672 105.116 80.3033 104.394 81.7459 102.95L115.189 69.472C116.762 67.8966 117.549 66.0244 117.549 63.8556C117.549 61.692 116.762 59.8225 115.189 58.2471C113.615 56.6716 111.747 55.8839 109.586 55.8839C107.419 55.8839 105.549 56.6716 103.975 58.2471L76.2377 86.014L64.8279 74.7891C63.2541 73.3449 61.3866 72.6544 59.2253 72.7174C57.0587 72.7857 55.2541 73.5419 53.8115 74.986C52.3689 76.4301 51.6475 78.2681 51.6475 80.5C51.6475 82.7319 52.3689 84.5698 53.8115 86.014L70.7295 102.95Z" fill="#00FF19"/>
<path d="M76.2377 105.116C74.0082 105.116 72.1721 104.394 70.7295 102.95L53.8115 86.014C52.3689 84.5698 51.6475 82.7319 51.6475 80.5C51.6475 78.2681 52.3689 76.4301 53.8115 74.986C55.2541 73.5419 57.0587 72.7857 59.2253 72.7174C61.3866 72.6544 63.2541 73.3449 64.8279 74.7891L76.2377 86.014L103.975 58.2471C105.549 56.6716 107.419 55.8839 109.586 55.8839C111.747 55.8839 113.615 56.6716 115.189 58.2471C116.762 59.8225 117.549 61.692 117.549 63.8556C117.549 66.0244 116.762 67.8966 115.189 69.472L81.7459 102.95C80.3033 104.394 78.4672 105.116 76.2377 105.116Z" fill="white"/>
</svg>
